<?xml version="1.0" encoding="UTF-8" standalone="no"?>
<!-- Generator: Adobe Illustrator 25.0.1, SVG Export Plug-In . SVG Version: 6.00 Build 0)  -->

<svg
   version="1.1"
   id="svg2"
   x="0px"
   y="0px"
   viewBox="0 0 885 300"
   style="enable-background:new 0 0 885 300;"
   xml:space="preserve"
   sodipodi:docname="banner.svg"
   inkscape:version="1.2.1 (9c6d41e, 2022-07-14)"
   xmlns:inkscape="http://www.inkscape.org/namespaces/inkscape"
   xmlns:sodipodi="http://sodipodi.sourceforge.net/DTD/sodipodi-0.dtd"
   xmlns="http://www.w3.org/2000/svg"
   xmlns:svg="http://www.w3.org/2000/svg"><defs
   id="defs436" />
<style
   type="text/css"
   id="style268">
	.st0{fill:#5DA649;}
	.st1{fill:none;}
	.st2{fill:#2D2B2B;}
	.st3{fill:#FFFFFF;}
	.st4{fill:#BA2025;}
	.st5{fill:#EEA794;}
	.st6{fill:#6BB87C;}
	.st7{fill:#108C55;}
</style>
<sodipodi:namedview
   bordercolor="#666666"
   borderopacity="1.0"
   id="base"
   inkscape:current-layer="svg2"
   inkscape:cx="437.90113"
   inkscape:cy="204.55589"
   inkscape:document-units="px"
   inkscape:pageopacity="0.0"
   inkscape:pageshadow="2"
   inkscape:window-height="1205"
   inkscape:window-maximized="0"
   inkscape:window-width="1390"
   inkscape:window-x="2005"
   inkscape:window-y="25"
   inkscape:zoom="0.9899495"
   pagecolor="#ffffff"
   showgrid="false"
   units="px"
   inkscape:showpageshadow="2"
   inkscape:pagecheckerboard="0"
   inkscape:deskcolor="#d1d1d1">
	</sodipodi:namedview>

<path
   class="st2"
   d="m 446.22986,213.69661 c -0.44964,-0.69423 -1.19944,-1.04328 -2.03947,-1.04633 -0.73502,-0.001 -1.45525,0.34097 -1.95559,0.91634 l -11.62401,15.42572 26.76096,-0.24873 z"
   id="path21221-0-8"
   style="fill:#db4d58;fill-opacity:1;stroke-width:1.10095" /><rect
   style="fill:#db4d58;fill-opacity:1;stroke-width:1.40598"
   id="rect34018-3"
   width="229.53131"
   height="50.058281"
   x="327.73434"
   y="227.74829"
   ry="14.377803" /><path
   class="st2"
   d="m 449.95357,219.73119 c -0.44372,-0.63302 -1.18365,-0.95128 -2.01261,-0.9541 -0.72532,-10e-4 -1.43604,0.31093 -1.92978,0.83559 l -11.47081,14.0661 26.4082,-0.2268 z"
   id="path21221-0-3"
   style="fill:#f2545b;fill-opacity:1;stroke-width:1.04436" /><rect
   style="fill:#f2545b;fill-opacity:1;stroke-width:1.32501"
   id="rect34018-5"
   width="223.56238"
   height="45.646149"
   x="333.70325"
   y="232.16043"
   ry="8.6071205" /><path
   d="m 422.54861,38.139785 c 12.09562,-21.410013 40.93165,-15.068863 40.93165,-15.068863 l -0.74632,34.753531 -43.24222,51.309457 c 0,0 -8.90574,-49.864035 3.05689,-70.994125 z"
   fill="#c13742"
   id="path4-7"
   style="stroke-width:3.60263" /><path
   d="m 414.1473,44.580784 c 9.62692,-23.347873 38.14492,-21.451281 38.14492,-21.451281 l 2.94459,34.313909 -36.47698,59.067308 c 0,0 -14.27491,-48.575728 -4.61253,-71.929936 z"
   fill="#af2d3c"
   id="path6-9"
   style="stroke-width:3.60263" /><polygon
   points="142.57,34.54 141.3,21.25 136.09,20.93 133.13,34.74 "
   fill="#f6a749"
   id="polygon8-2"
   transform="matrix(-3.5465172,0.63341013,0.63341013,3.5465172,955.07685,-68.131998)" /><path
   d="m 424.22499,150.59404 a 111.68174,111.68174 0 0 1 66.3596,4.36035 c -7.41707,9.08315 -23.72203,17.3749 -45.43555,22.02148 -23.72239,5.07855 -48.08456,4.52572 -65.08274,-0.48961 11.63614,-10.45881 32.24622,-22.92294 44.15869,-25.89222 z"
   fill="#d17457"
   id="path42-0"
   style="stroke-width:3.60263" /><path
   d="m 424.77855,107.38456 -8.93215,46.49913 c 0,0 33.03514,15.50882 59.17648,0.40996 l -3.75929,-43.79326 z"
   fill="#d17457"
   id="path54-2"
   style="stroke-width:3.60263" /><path
   d="m 484.54739,92.464621 c 3.02881,11.426089 9.26487,28.720339 9.26487,28.720339 a 49.536257,49.536257 0 0 1 3.73725,26.04793 15.27518,15.27518 0 0 1 -8.55823,11.29975 14.410547,14.410547 0 0 1 -6.64191,8.50554 c 0,0 -0.86363,7.25395 -6.1479,9.22244 a 21.363636,21.363636 0 0 1 -8.25303,9.52521 11.060095,11.060095 0 0 1 -12.06715,-2.19979 10.807911,10.807911 0 0 1 -10.32445,-8.22006 c 0,0 -8.51307,-4.2252 -8.85275,-12.06936 a 14.194389,14.194389 0 0 1 -6.6272,-8.62423 10.988043,10.988043 0 0 1 -6.26245,-9.86046 38.98053,38.98053 0 0 1 -2.34362,-13.12211 c -0.28903,-8.58514 11.16413,-39.944442 11.16413,-39.944442 z"
   fill="#562c27"
   id="path56-3"
   style="stroke-width:3.60263" /><path
   d="m 481.89671,105.49061 c 0,0 2.80598,14.68637 0.9505,18.64081 -1.53759,3.27552 -12.73462,-1.01927 -16.31155,-0.96596 -3.57695,0.0533 -20.21633,7.08731 -21.97951,5.20643 -1.76319,-1.88089 -0.21593,-21.69973 -0.21593,-21.69973 a 130.99187,130.99187 0 0 0 37.55649,-1.18155 z"
   fill="#ecb883"
   id="path58-7"
   style="stroke-width:3.60263" /><polygon
   points="162.13,28.54 153.83,17.77 149.22,20.08 154.19,33.39 "
   fill="#f6a749"
   id="polygon60-5"
   transform="matrix(-3.5465172,0.63341013,0.63341013,3.5465172,955.07685,-68.131998)" /><path
   d="m 489.33418,101.23456 c -29.70965,6.18448 -72.40003,-1.707893 -72.40003,-1.707893 0,0 9.43372,-47.17425 34.18725,-48.118583 38.60146,-1.477968 38.21278,49.826476 38.21278,49.826476 z"
   fill="#fbc456"
   id="path62-9"
   style="stroke-width:3.60263" /><path
   d="m 454.3805,99.572479 q 0.87656,2.039231 1.80504,3.959401 a 286.48168,286.48168 0 0 1 -39.17412,-3.982417 c 0,0 9.35645,-47.197046 34.10998,-48.141379 1.20581,-0.215357 2.41037,-0.02794 3.66052,0.005 -9.00546,6.951462 -9.414,27.408649 -0.40142,48.15943 z"
   fill="#f6a749"
   id="path110-2"
   style="stroke-width:3.60263" /><path
   d="m 456.93529,55.273645 -0.42559,0.076 0.46105,-0.08234 c 28.05815,-0.473246 28.30761,42.519618 28.30761,42.519618 a 73.097503,73.097503 0 0 1 -8.27859,1.185789 C 477.64384,76.350878 469.2089,57.399953 456.93529,55.273645 Z"
   fill="#ffea80"
   id="path112-2"
   style="stroke-width:3.60263" /><path
   d="m 458.37854,120.52352 c -0.10769,-1.62761 -1.09951,-2.87773 -2.24706,-2.74598 -1.14756,0.13173 -1.9898,1.56307 -1.91123,3.23248 0.0785,1.6694 1.0995,2.87772 2.24705,2.74596 1.14758,-0.13173 1.94801,-1.59219 1.91124,-3.23246 z"
   fill="#5b4a49"
   id="path140-8"
   style="stroke-width:3.60263" /><path
   d="m 476.35562,118.52048 c -0.29136,-1.6314 -1.07038,-2.91953 -2.11152,-2.80677 -1.04118,0.11273 -1.80617,1.56686 -1.69213,3.22994 0.11405,1.66306 1.07038,2.91951 2.14701,2.80043 1.07663,-0.11906 1.66428,-1.54153 1.65664,-3.2236 z"
   fill="#5b4a49"
   id="path142-9"
   style="stroke-width:3.60263" /><path
   d="m 460.21364,111.74199 -8.17734,-1.32085 a 2.1255557,2.1255557 0 0 0 -2.23299,2.04564 l -0.34952,2.55099 a 2.1255557,2.1255557 0 0 0 1.52888,2.61807 l 8.2356,1.23725 a 2.0895294,2.0895294 0 0 0 2.12659,-2.02666 l 0.35585,-2.51551 a 2.1615822,2.1615822 0 0 0 -1.48707,-2.58893 z"
   fill="#562c27"
   id="path144-7"
   style="stroke-width:3.60263" /><path
   d="m 478.12357,109.56796 -7.44894,1.73295 c -0.95755,0.17102 -1.57057,1.45159 -1.44893,2.74734 l 0.24959,2.62697 c 0.22803,1.27674 1.01463,2.19755 1.95952,1.95559 l 7.47174,-1.81021 a 2.4858195,2.4858195 0 0 0 1.41347,-2.741 l -0.44973,-2.51802 c -0.0507,-1.30842 -0.90189,-2.1811 -1.74672,-1.99362 z"
   fill="#562c27"
   id="path146-3"
   style="stroke-width:3.60263" /><path
   d="m 473.13375,132.85618 c -0.095,0.49271 -0.18996,0.98543 -0.32042,1.48448 a 10.051357,10.051357 0 0 1 -10.56845,8.03574 10.807911,10.807911 0 0 1 -7.8635,-12.06307 z"
   fill="#443138"
   id="path148-6"
   style="stroke-width:3.60263" /><path
   d="m 460.80165,122.61591 c -0.50673,-2.83722 0.64836,-5.38569 2.6344,-5.7404 1.98607,-0.35471 3.95191,1.63636 4.45864,4.47358 0.50673,2.8372 -0.64836,5.38568 -2.63441,5.74039 -1.98606,0.35471 -3.98357,-1.81369 -4.45863,-4.47357 z"
   fill="#ecb883"
   id="path150-1"
   style="stroke-width:3.60263" /><path
   d="m 468.13401,119.00076 a 11.60049,11.60049 0 0 0 -0.83087,0.88033 c 0.70051,2.69282 1.01855,7.13737 -3.69708,6.55232 a 1.1528438,1.1528438 0 0 0 0.0569,0.31919 c 7.63904,2.40509 5.27783,-6.10272 4.47095,-7.75184 z"
   fill="#d17457"
   id="path152-2"
   style="stroke-width:3.60263" /><path
   d="m 471.9596,133.24886 c 0.0697,0.39012 -0.14438,0.83091 -0.24568,1.28816 a 8.7544075,8.7544075 0 0 1 -9.25374,6.9958 9.2227504,9.2227504 0 0 1 -6.8147,-10.49375 z"
   fill="#f4e8d6"
   id="path154-9"
   style="stroke-width:3.60263" /><polygon
   points="146.33,31.96 146.28,31.21 144.43,31.63 146.41,30.76 146.43,29.98 146.63,30.68 "
   fill="#443138"
   id="polygon156-3"
   transform="matrix(-3.5465172,0.63341013,0.63341013,3.5465172,955.07685,-68.131998)" /><circle
   class="st2"
   cx="356.60477"
   cy="156.85245"
   r="12.564044"
   id="circle21275-9"
   style="fill:#f2545b;stroke-width:0.589861" /><path
   class="st3"
   d="m 353.53748,164.2847 c -0.29493,-5.30875 -0.35391,-9.20184 -0.17695,-9.67371 0.059,-0.11793 0.059,-0.23596 0.17695,-0.47189 0.76682,-2.47743 0,-4.01107 0.70784,-4.54194 0.35391,-0.23595 0.76682,-0.17696 1.12073,-0.11792 1.76959,0.29493 3.06728,2.71336 2.77235,4.60092 -0.059,0.29493 -0.11797,0.53088 -0.17696,0.64884 0.11798,0 0.23595,0 0.29493,0 0.76682,0 1.59263,-0.059 2.35945,0 1.53364,0.11792 2.77235,1.41567 2.83133,2.94932 0.059,0.8258 0.11798,1.71059 0,2.53639 -0.11797,1.35668 -0.88479,2.30046 -2.00553,3.00829 -0.58986,0.41292 -1.29769,0.70784 -2.00552,0.88481 -0.41291,0.059 -0.76682,0.11792 -0.8848,0.11792 -1.71059,0 -4.60091,0.059 -5.01382,0.059 z"
   id="path21277-5"
   style="fill:#ffffff;stroke-width:0.589861" /><path
   class="st3"
   d="m 352.06283,154.84692 c 0.059,3.18525 0.11798,6.31152 0.17696,9.49677 -0.64885,0 -1.35668,0.059 -2.00553,0.059 -0.29493,0 -0.53087,-0.29493 -0.53087,-0.64886 0,-0.58985 0,-1.2387 -0.059,-1.82857 -0.059,-2.0645 -0.059,-4.12903 -0.11798,-6.19353 0,-0.53088 0.23595,-0.76682 0.76682,-0.76682 0.64885,-0.11792 1.17972,-0.11792 1.76959,-0.11792 z"
   id="path21279-5"
   style="fill:#ffffff;stroke-width:0.589861" /><circle
   class="st2"
   cx="-345.46732"
   cy="182.73576"
   r="12.564044"
   id="circle21275-2-5"
   style="fill:#f2545b;stroke-width:0.589861"
   transform="scale(-1,1)" /><circle
   class="st2"
   cx="-408.62192"
   cy="208.66522"
   r="5.2326469"
   id="circle21275-2-9-8"
   style="fill:#f2545b;stroke-width:0.245665"
   transform="scale(-1,1)" /><circle
   class="st2"
   cx="-377.58582"
   cy="164.58183"
   r="5.2326469"
   id="circle21275-2-9-1-2"
   style="fill:#f2545b;stroke-width:0.245665"
   transform="scale(-1,1)" /><circle
   class="st2"
   cx="-353.14783"
   cy="205.07906"
   r="5.2326469"
   id="circle21275-2-9-7-9"
   style="fill:#f2545b;stroke-width:0.245665"
   transform="scale(-1,1)" /><circle
   class="st2"
   cx="-380.96786"
   cy="192.62006"
   r="20.55858"
   id="circle26186-2"
   style="fill:#f2545b;stroke-width:0.965191"
   transform="scale(-1,1)" /><path
   class="st3"
   d="m 367.37199,191.72332 c 0.39924,-4.08767 3.31786,-7.49485 7.01303,-7.74285 2.86153,-0.15308 5.3994,1.49267 6.64207,4.06325 1.38231,-2.61036 4.09441,-4.33567 6.96284,-4.12678 3.70441,0.23462 6.51571,3.69762 6.59648,7.92065 0.0531,2.77513 -1.09267,5.27218 -2.73229,6.90994 l -10.59111,7.87387 c -0.47077,0.34726 -1.06787,0.32889 -1.43306,-0.0441 l -10.05972,-8.02725 c -1.7019,-1.62003 -2.58401,-4.05894 -2.39824,-6.82672 z"
   id="path21223-0"
   style="fill:#ffffff;stroke-width:1.20003" /><circle
   class="st2"
   cx="528.3952"
   cy="156.85245"
   r="12.564044"
   id="circle21275"
   style="fill:#f2545b;stroke-width:0.589861" /><path
   class="st3"
   d="m 525.32792,164.2847 c -0.29493,-5.30875 -0.35392,-9.20184 -0.17695,-9.67371 0.059,-0.11793 0.059,-0.23596 0.17695,-0.47189 0.76682,-2.47743 0,-4.01107 0.70784,-4.54194 0.35391,-0.23595 0.76681,-0.17696 1.12073,-0.11792 1.76958,0.29493 3.06727,2.71336 2.77235,4.60092 -0.059,0.29493 -0.11793,0.53088 -0.17695,0.64884 0.11792,0 0.23593,0 0.29492,0 0.76682,0 1.59262,-0.059 2.35945,0 1.53363,0.11792 2.77235,1.41567 2.83132,2.94932 0.059,0.8258 0.11792,1.71059 0,2.53639 -0.11792,1.35668 -0.88479,2.30046 -2.00552,3.00829 -0.58986,0.41292 -1.29769,0.70784 -2.00553,0.88481 -0.4129,0.059 -0.76682,0.11792 -0.88479,0.11792 -1.7106,0 -4.60092,0.059 -5.01382,0.059 z"
   id="path21277"
   style="fill:#ffffff;stroke-width:0.589861" /><path
   class="st3"
   d="m 523.85327,154.84692 c 0.059,3.18525 0.11792,6.31152 0.17695,9.49677 -0.64884,0 -1.35668,0.059 -2.00552,0.059 -0.29494,0 -0.53088,-0.29493 -0.53088,-0.64886 0,-0.58985 0,-1.2387 -0.059,-1.82857 -0.059,-2.0645 -0.059,-4.12903 -0.11793,-6.19353 0,-0.53088 0.23596,-0.76682 0.76682,-0.76682 0.64885,-0.11792 1.17973,-0.11792 1.7696,-0.11792 z"
   id="path21279"
   style="fill:#ffffff;stroke-width:0.589861" /><circle
   class="st2"
   cx="539.53265"
   cy="182.73576"
   r="12.564044"
   id="circle21275-2"
   style="fill:#f2545b;stroke-width:0.589861" /><circle
   class="st2"
   cx="476.37805"
   cy="208.66522"
   r="5.2326469"
   id="circle21275-2-9"
   style="fill:#f2545b;stroke-width:0.245665" /><circle
   class="st2"
   cx="507.41415"
   cy="164.58183"
   r="5.2326469"
   id="circle21275-2-9-1"
   style="fill:#f2545b;stroke-width:0.245665" /><circle
   class="st2"
   cx="531.85217"
   cy="205.07906"
   r="5.2326469"
   id="circle21275-2-9-7"
   style="fill:#f2545b;stroke-width:0.245665" /><circle
   class="st2"
   cx="504.03214"
   cy="192.62006"
   r="20.55858"
   id="circle26186"
   style="fill:#f2545b;stroke-width:0.965191" /><path
   class="st3"
   d="m 517.62799,191.72332 c -0.39924,-4.08767 -3.31786,-7.49485 -7.01303,-7.74285 -2.86153,-0.15308 -5.3994,1.49267 -6.64207,4.06325 -1.38231,-2.61036 -4.09441,-4.33567 -6.96284,-4.12678 -3.70441,0.23462 -6.51571,3.69762 -6.59648,7.92065 -0.0531,2.77513 1.09267,5.27218 2.73229,6.90994 l 10.59111,7.87387 c 0.47077,0.34726 1.06788,0.32889 1.43306,-0.0441 l 10.05972,-8.02725 c 1.7019,-1.62003 2.58401,-4.05894 2.39824,-6.82672 z"
   id="path21223"
   style="fill:#ffffff;stroke-width:1.20003" /><path
   d="m 378.33101,241.00897 q 2.13999,-1.24418 4.52881,-1.89115 2.38883,-0.69674 5.07625,-0.69674 2.13999,0 3.88184,0.49767 1.79162,0.49767 3.0358,1.59255 1.29395,1.04511 1.94092,2.73719 0.69674,1.64232 0.69674,3.98138 v 15.42782 h -5.12602 l -0.5972,-2.43859 h -0.19907 q -1.14465,1.39348 -2.93626,2.18975 -1.74186,0.79628 -4.08091,0.79628 -1.94092,0 -3.43394,-0.54744 -1.49301,-0.59721 -2.53812,-1.54278 -1.04511,-0.99535 -1.59255,-2.33906 -0.49768,-1.34371 -0.49768,-2.8865 0,-2.04045 0.84605,-3.4837 0.89581,-1.49301 2.43859,-2.43859 1.54278,-0.94558 3.58323,-1.39348 2.09023,-0.4479 4.47905,-0.4479 h 2.98603 v -1.44325 q 0,-1.64232 -1.04511,-2.38883 -0.99534,-0.79627 -2.83673,-0.79627 -1.44325,0 -2.98603,0.4479 -1.49301,0.44791 -3.3344,1.44325 z m 12.54133,11.24738 -2.13999,0.0498 q -3.0358,0.0995 -4.23021,1.04511 -1.19441,0.89581 -1.19441,2.18975 0,1.69209 0.99534,2.33906 1.04511,0.59721 2.33906,0.59721 1.29394,0 2.43859,-0.74651 1.19441,-0.74651 1.79162,-1.74185 z"
   style="font-weight:bold;font-size:36px;font-family:'Mukta Mahee';-inkscape-font-specification:'Mukta Mahee Bold';fill:#ffffff;stroke-width:1.38242"
   id="path36129" /><path
   d="m 402.96564,246.98103 q 0,-1.94092 0.74651,-3.53347 0.79627,-1.59255 2.13998,-2.68743 1.39349,-1.14464 3.23487,-1.74185 1.89115,-0.5972 4.13068,-0.5972 0.84604,0 1.84138,0.1493 0.99535,0.0995 1.84139,0.34837 h 10.1525 v 4.18044 h -2.13999 l -3.08556,-0.4479 q 0.64697,0.79627 1.04511,1.99068 0.4479,1.19442 0.4479,2.38883 0,3.7823 -2.73719,6.12136 -2.68743,2.28929 -7.41531,2.28929 -1.24418,0 -2.18976,-0.19907 -1.24418,0.49767 -1.24418,1.64232 0,0.79627 0.54744,1.19441 0.54744,0.39814 1.94092,0.39814 h 5.32509 q 3.93161,0 6.27066,1.74185 2.38883,1.69208 2.38883,5.47439 0,1.94092 -0.94558,3.53347 -0.89581,1.64231 -2.58789,2.78696 -1.69208,1.19441 -4.08091,1.84138 -2.38882,0.64698 -5.32509,0.64698 -5.42462,0 -8.60972,-1.94092 -3.13533,-1.89115 -3.13533,-5.47439 0,-1.64232 1.09488,-2.8865 1.09488,-1.19441 3.0358,-1.89115 -0.69674,-0.49767 -1.39349,-1.39348 -0.69674,-0.94558 -0.69674,-2.33906 0,-1.64231 0.99535,-2.83673 0.99534,-1.19441 2.53812,-1.89115 -0.7465,-0.39814 -1.49301,-0.99534 -0.69674,-0.64698 -1.29395,-1.49302 -0.5972,-0.84604 -0.99534,-1.94092 -0.34837,-1.09488 -0.34837,-2.43859 z m 6.3702,16.47294 q -0.74651,0.39813 -1.24418,1.04511 -0.49767,0.64697 -0.49767,1.64231 0,1.44325 1.29394,2.38883 1.34372,0.99534 4.57858,0.99534 3.23487,0 4.72788,-1.09488 1.49302,-1.09488 1.49302,-2.48836 0,-1.39348 -0.94558,-1.94092 -0.94557,-0.54743 -2.93626,-0.54743 z m 7.51484,-16.52271 q 0,-1.94092 -1.04511,-2.93626 -1.04511,-0.99534 -2.63766,-0.99534 -1.64232,0 -2.68743,0.99534 -0.99534,0.99534 -0.99534,2.8865 0,1.99068 1.04511,2.98603 1.04511,0.99534 2.63766,0.99534 1.64232,0 2.63766,-0.99534 1.04511,-0.99535 1.04511,-2.93627 z"
   style="font-weight:bold;font-size:36px;font-family:'Mukta Mahee';-inkscape-font-specification:'Mukta Mahee Bold';fill:#ffffff;stroke-width:1.38242"
   id="path36131" /><path
   d="m 453.52903,250.61403 q 0,2.93627 -0.94557,5.27532 -0.94558,2.33906 -2.63766,3.98138 -1.64232,1.59255 -3.88184,2.48836 -2.23952,0.84604 -4.82742,0.84604 -2.58789,0 -4.82741,-0.79628 -2.18976,-0.79627 -3.83207,-2.33905 -1.59255,-1.54279 -2.53813,-3.78231 -0.89581,-2.28929 -0.89581,-5.17578 0,-3.0358 0.94558,-5.37486 0.94557,-2.38882 2.58789,-3.98137 1.69208,-1.64232 3.93161,-2.48836 2.23952,-0.84604 4.82741,-0.84604 2.58789,0 4.77765,0.79627 2.23952,0.79628 3.83207,2.33906 1.64232,1.49301 2.53813,3.7823 0.94557,2.28929 0.94557,5.27532 z m -6.8181,0.24884 q 0,-2.04045 -0.4479,-3.4837 -0.44791,-1.44325 -1.19441,-2.33906 -0.74651,-0.89581 -1.74186,-1.29395 -0.99534,-0.4479 -2.04045,-0.4479 -1.04511,0 -1.99069,0.39814 -0.94557,0.34837 -1.69208,1.24418 -0.74651,0.84604 -1.19441,2.28929 -0.44791,1.44324 -0.44791,3.633 0,1.94092 0.44791,3.38417 0.4479,1.39348 1.19441,2.28929 0.79627,0.89581 1.74185,1.34371 0.99534,0.44791 2.04045,0.44791 1.04511,0 1.99069,-0.34837 0.94558,-0.39814 1.69209,-1.29395 0.7465,-0.89581 1.19441,-2.28929 0.4479,-1.44325 0.4479,-3.53347 z"
   style="font-weight:bold;font-size:36px;font-family:'Mukta Mahee';-inkscape-font-specification:'Mukta Mahee Bold';fill:#ffffff;stroke-width:1.38242"
   id="path36133" /><path
   d="m 458.25682,262.65769 v -23.73894 h 5.12602 l 0.74651,4.27998 q 0.84604,-1.89116 2.68742,-3.33441 1.84139,-1.44324 4.62835,-1.44324 1.14465,0 2.04045,0.24883 0.89581,0.24884 1.49302,0.59721 l -1.09488,5.22555 q -0.54744,-0.2986 -1.39348,-0.49767 -0.84604,-0.24884 -1.99069,-0.24884 -2.43859,0 -4.0809,1.64232 -1.59255,1.59255 -1.59255,5.27532 v 11.99389 z"
   style="font-weight:bold;font-size:36px;font-family:'Mukta Mahee';-inkscape-font-specification:'Mukta Mahee Bold';fill:#ffffff;stroke-width:1.38242"
   id="path36135" /><path
   d="m 477.31755,241.00897 q 2.13999,-1.24418 4.52881,-1.89115 2.38883,-0.69674 5.07625,-0.69674 2.13999,0 3.88184,0.49767 1.79162,0.49767 3.0358,1.59255 1.29395,1.04511 1.94092,2.73719 0.69674,1.64232 0.69674,3.98138 v 15.42782 h -5.12602 l -0.5972,-2.43859 h -0.19907 q -1.14465,1.39348 -2.93626,2.18975 -1.74186,0.79628 -4.08091,0.79628 -1.94092,0 -3.43394,-0.54744 -1.49301,-0.59721 -2.53812,-1.54278 -1.04511,-0.99535 -1.59255,-2.33906 -0.49768,-1.34371 -0.49768,-2.8865 0,-2.04045 0.84605,-3.4837 0.89581,-1.49301 2.43859,-2.43859 1.54278,-0.94558 3.58323,-1.39348 2.09023,-0.4479 4.47905,-0.4479 h 2.98603 v -1.44325 q 0,-1.64232 -1.04511,-2.38883 -0.99534,-0.79627 -2.83673,-0.79627 -1.44325,0 -2.98603,0.4479 -1.49301,0.44791 -3.3344,1.44325 z m 12.54133,11.24738 -2.13999,0.0498 q -3.0358,0.0995 -4.23021,1.04511 -1.19441,0.89581 -1.19441,2.18975 0,1.69209 0.99534,2.33906 1.04511,0.59721 2.33906,0.59721 1.29394,0 2.43859,-0.74651 1.19441,-0.74651 1.79162,-1.74185 z"
   style="font-weight:bold;font-size:36px;font-family:'Mukta Mahee';-inkscape-font-specification:'Mukta Mahee Bold';fill:#ffffff;stroke-width:1.38242"
   id="path36137" /><path
   d="m 516.93207,244.59221 q -2.93626,-1.39348 -5.67346,-1.39348 -1.59255,0 -2.48836,0.54743 -0.84604,0.54744 -0.84604,1.49302 0,0.94558 0.74651,1.54278 0.79627,0.59721 3.13533,1.29395 l 1.49302,0.4479 q 3.08556,0.89581 4.67811,2.5879 1.59255,1.69208 1.59255,4.37951 0,3.53347 -2.7372,5.62369 -2.68742,2.09022 -7.31577,2.09022 -4.72788,0 -8.11205,-1.69208 l 1.49302,-4.87719 q 1.44324,0.74651 3.03579,1.24418 1.59255,0.44791 3.23487,0.44791 1.99069,0 2.8865,-0.59721 0.94557,-0.64697 0.94557,-1.64232 0,-1.04511 -0.89581,-1.59255 -0.89581,-0.5972 -3.38416,-1.29394 l -1.54279,-0.44791 q -2.98603,-0.99534 -4.37951,-2.63766 -1.39348,-1.64231 -1.39348,-4.37951 0,-3.23487 2.43859,-5.27532 2.43859,-2.04045 6.8181,-2.04045 4.32975,0 7.66415,1.54278 z"
   style="font-weight:bold;font-size:36px;font-family:'Mukta Mahee';-inkscape-font-specification:'Mukta Mahee Bold';fill:#ffffff;stroke-width:1.38242"
   id="path36139" /></svg>
