<?xml version="1.0" encoding="utf-8"?>
<!-- Generator: Adobe Illustrator 25.0.1, SVG Export Plug-In . SVG Version: 6.00 Build 0)  -->
<svg version="1.1"
	 id="svg2" xmlns:cc="http://creativecommons.org/ns#" xmlns:dc="http://purl.org/dc/elements/1.1/" xmlns:inkscape="http://www.inkscape.org/namespaces/inkscape" xmlns:rdf="http://www.w3.org/1999/02/22-rdf-syntax-ns#" xmlns:sodipodi="http://sodipodi.sourceforge.net/DTD/sodipodi-0.dtd" xmlns:svg="http://www.w3.org/2000/svg"
	 xmlns="http://www.w3.org/2000/svg" xmlns:xlink="http://www.w3.org/1999/xlink" x="0px" y="0px" viewBox="0 0 885 300"
	 style="enable-background:new 0 0 885 300;" xml:space="preserve">
<style type="text/css">
	.st0{fill:#5DA649;}
	.st1{fill:none;}
	.st2{fill:#2D2B2B;}
	.st3{fill:#FFFFFF;}
	.st4{fill:#BA2025;}
	.st5{fill:#EEA794;}
	.st6{fill:#6BB87C;}
	.st7{fill:#108C55;}
</style>
<sodipodi:namedview  bordercolor="#666666" borderopacity="1.0" id="base" inkscape:current-layer="layer1" inkscape:cx="211.66272" inkscape:cy="232.55672" inkscape:document-units="px" inkscape:pageopacity="0.0" inkscape:pageshadow="2" inkscape:window-height="976" inkscape:window-maximized="1" inkscape:window-width="1280" inkscape:window-x="0" inkscape:window-y="48" inkscape:zoom="0.49497475" pagecolor="#ffffff" showgrid="false" units="px">
	</sodipodi:namedview>
<g>
	<g>
		<g>
			<path class="st0" d="M405.5,91.8c41-15,47,24.5,47,24.5S416.9,134.7,405.5,91.8"/>
			<path class="st0" d="M440,42.9c36.9,23.2,9.3,52.1,9.3,52.1S413.1,78.1,440,42.9"/>
			<path class="st0" d="M426.8,83.1c-43.4,4.2-39.3-35.3-39.3-35.3S426.4,38.8,426.8,83.1"/>
		</g>
		<g>
			<path class="st1" d="M517.4,120c-0.1,0.5,0.3,1,1.2,1.3C517.8,121.1,517.4,120.5,517.4,120z"/>
			<path class="st1" d="M523.5,126.1c-0.3-0.4-0.9-0.6-2-0.8C522.6,125.5,523.2,125.7,523.5,126.1z"/>
			<path class="st1" d="M518.7,126c-0.1,0.1-0.1,0.4,0,0.5C518.6,126.4,518.6,126.2,518.7,126z"/>
			<path class="st1" d="M520.3,118.9c0.3,0.1,0.5,0.3,0.9,0.4C520.9,119.1,520.5,118.9,520.3,118.9z"/>
			<path class="st1" d="M520.1,118.8c-0.4-0.1-0.8-0.1-0.9-0.1c-0.5,0-0.9,0.1-1.2,0.4l0,0C519,118.7,519.4,118.7,520.1,118.8z"/>
			<path class="st1" d="M502.1,116.5h0.1c-0.9-0.3-1.5-0.9-1.5-1.5C500.7,115.7,501.2,116.3,502.1,116.5z"/>
			<path class="st1" d="M495.9,116.6l0.1-0.1C495.9,116.5,495.9,116.5,495.9,116.6z"/>
			<path class="st1" d="M495.7,117.4C495.7,117.3,495.7,117.3,495.7,117.4C495.7,117.3,495.7,117.3,495.7,117.4z"/>
			<path class="st1" d="M495.7,116.9c0-0.1,0.1-0.3,0.1-0.4C495.8,116.8,495.8,116.8,495.7,116.9z"/>
			<path class="st1" d="M521.5,127.5c-1.3,0.1-2.3-0.1-2.7-0.5c0,0.1,0.1,0.1,0.1,0.3c0.5,0.5,1.9,0.5,3.1,0.3
				C521.9,127.4,521.8,127.4,521.5,127.5z"/>
			<path class="st1" d="M529.5,143.8c-0.1-0.1-0.1-0.1-0.3-0.1c-0.3,0-0.4,0.3-0.4,0.6C529,143.8,529.2,143.5,529.5,143.8z"/>
			<path class="st1" d="M505.3,115.1L505.3,115.1c-0.1-0.6-0.9-1-2.4-1.2C504.1,114.1,505,114.6,505.3,115.1z"/>
			<path class="st1" d="M496.4,116.1c0.1-0.1,0.3-0.1,0.4-0.3C496.7,116,496.6,116,496.4,116.1z"/>
			<path class="st1" d="M498,65.9c-0.6,0.4-1,0.9-0.6,1.4s1.3,0.9,2.4,1c-0.1,0-0.1,0-0.3,0C497.2,67.8,496.7,67,498,65.9z"/>
			<path class="st1" d="M509,64.4c0.9-0.3,1.5-0.4,2-0.4c-0.9,0-1.9,0.3-2.6,0.6C508.6,64.5,508.9,64.5,509,64.4z"/>
			<path class="st1" d="M500.5,68.5c0.9,0,1.9-0.1,2.7-0.4c0.1-0.1,0.3-0.1,0.5-0.3C502.7,68.2,501.6,68.5,500.5,68.5z"/>
			<path class="st1" d="M503.4,65.5c-0.8-0.4-1.8-0.4-2.8-0.4C501.6,65.2,502.6,65.3,503.4,65.5z"/>
			<path class="st1" d="M492.5,67.8c0.3,0,0.5-0.1,0.6-0.3c0.5-0.3,0.8-0.5,0.9-0.9C493.9,67.3,493.2,67.7,492.5,67.8z"/>
			<path class="st1" d="M487.2,65.4c-0.1,0.1-0.3,0.4-0.3,0.5c0,0.3,0.1,0.4,0.1,0.6C487,66.2,487,65.8,487.2,65.4z"/>
			<path class="st1" d="M492.2,68L492.2,68L492.2,68z"/>
			<path class="st1" d="M529.3,153c-0.3-1.8-0.4-3.7-0.5-5.1C528.8,149.3,529.1,151,529.3,153z"/>
			<path class="st1" d="M491.3,64.8c-1.3-0.3-2.6-0.1-3.3,0.3h0.1C489.1,64.6,490.3,64.6,491.3,64.8z"/>
			<path class="st1" d="M529.5,143.8L529.5,143.8L529.5,143.8z"/>
			<path class="st1" d="M496.1,116.4c0.1-0.1,0.3-0.1,0.3-0.3C496.3,116.3,496.2,116.3,496.1,116.4z"/>
			<path class="st1" d="M479.9,125.5c0.3-0.1,0.4-0.3,0.6-0.4c-0.4,0.3-1,0.4-1.8,0.5C479.2,125.6,479.7,125.6,479.9,125.5z"/>
			<path class="st1" d="M475.6,118.9c0.8-0.4,2.3-1.2,3.8-1.9C478,117.7,476.6,118.4,475.6,118.9z"/>
			<path class="st1" d="M497.2,172.5c1.8,1.2,4,1.3,5.9,0.3C501,173.6,498.7,173.5,497.2,172.5z"/>
			<path class="st1" d="M480,99.9c0.1,0,0.3,0,0.4,0C480.4,100,480.2,99.9,480,99.9z"/>
			<path class="st1" d="M495.8,117.4c0,0.1,0.1,0.3,0.3,0.4c0.5,0.6,1.7,0.9,2.7,0.8c-0.1,0-0.3,0-0.3,0
				C497,118.7,495.9,118,495.8,117.4z"/>
			<path class="st1" d="M476.5,123.6c0.1-0.1,0.3-0.3,0.4-0.3c-0.6,0.3-1.2,0.8-1.2,1.4c0,0.4,0.8,0.6,1.7,0.8h-0.1
				C475.6,125.1,475.3,124.6,476.5,123.6z"/>
			<path class="st1" d="M486.2,101.9c-0.1-1-0.4-1.2-1-1.3C485.7,100.8,486.1,101.1,486.2,101.9z"/>
			<path class="st1" d="M480,123.2c0.4,0.1,0.6,0.4,0.9,0.6C480.7,123.6,480.4,123.3,480,123.2L480,123.2z"/>
			<path class="st1" d="M506.9,168.5c0.1-0.4,0.3-0.9,0.4-1.3c-0.4,1.3-1,2.6-1.7,3.6C506.2,170.2,506.6,169.4,506.9,168.5z"/>
			<path class="st1" d="M500,116.3c-1-0.6-2.3-0.6-3.2-0.3C497.8,115.6,499.1,115.7,500,116.3z"/>
			<path class="st1" d="M495.7,117.2C495.7,117,495.7,117,495.7,117.2C495.7,117,495.7,117,495.7,117.2z"/>
			<path class="st1" d="M499.1,118.6c0.6-0.1,1.3-0.4,1.4-0.9c0,0,0,0,0-0.1C500.3,118,499.8,118.4,499.1,118.6z"/>
			<path class="st2" d="M538.8,144.6c-0.4-2.6-1-7.6-1.5-11c-0.5-3.5-1.7-12.3-2.7-19.6c-0.9-7.4-1.9-14.6-2.2-16.3
				c-0.3-2.2-0.1-3.1,0.6-4c1.2-1.3,1.4-4.6,0.5-5.5c-0.4-0.4-0.5-1.7-0.4-3.1c0.3-1.8,0.1-2.7-0.5-3.3c-0.6-0.5-0.8-1.2-0.5-2
				c0.8-1.8-0.3-3.8-2-4.4c-1.2-0.3-1.5-0.8-1.5-2.4c0-2.7-1.7-7.3-3.3-9.5c-0.8-0.9-2.9-2.6-4.9-3.6c-5.8-3.1-9.5-3.8-20.7-4.1
				c-9.5-0.3-10.4-0.1-14.1,1.2c-7.6,2.7-12.2,7.7-14.2,15.2c-0.6,2.3-1.8,5.1-2.6,6c-1.7,1.9-2.4,4.2-1.8,5.3
				c0.3,0.4,0,1.3-0.5,1.9c-0.5,0.8-1,3.1-1.3,5c-0.4,3.5-0.3,3.7,1.2,5c1.7,1.2,1.7,1.4,1.3,5.5c-0.3,2.4-0.6,5.9-0.9,7.7
				s-1,7.7-1.7,13.1c-0.6,5.4-1.9,15.1-2.7,21.4c-0.9,6.4-1.8,13.7-2,16.3c-0.3,2.6-0.8,5.1-0.9,5.8c-0.6,1.7,0.8,5.8,2.7,7.8
				c2,2.3,4.2,3.3,11.9,5.5c18.4,5.3,31.4,6.1,46,3.2c11.1-2.3,16.5-5.6,19.6-12c1.9-4.2,2-4.9,0.9-13.7
				C539.7,152.2,539.1,147.1,538.8,144.6z M469.9,84.8c1.8-1.4,1.9-2,0.8-3.3c-1.2-1.2-1.2-2.6-0.1-2.6c1.8,0,3.1-2.4,3.5-6.8
				c0.5-5.5,2.4-8.7,6.1-10.6c2.6-1.3,2.8-1.3,4.4-0.3c2.2,1.3,6.7,1.4,6.7,0.1c0-0.4-0.9-1-1.9-1.4c-1.7-0.5-1.3-0.6,2.6-0.4
				c2.4,0.1,5.8,0.4,7.3,0.6c1.8,0.3,3.1,0.1,3.6-0.3c0.5-0.5,1.9-0.6,3.8-0.3c2.6,0.3,2.9,0.5,2.7,1.5c-0.4,1.2,0.5,1.4,5.1,1.2
				c1.7-0.1,1.9,0,1.7,1c-0.3,0.9,0,1.4,1.2,1.8c1.7,0.8,3.2,4,3.2,6.8c0,2.7-1.7,3.8-7,4.9c-3.6,0.6-12.3,1.8-17.9,2.3
				c-1.2,0,0.8,0.1,4.2,0.3c10.6,0.1,23.3-1.7,24.6-3.7c0.9-1.3-1-6-3.3-8.5c-0.6-0.8-1-1.5-0.8-1.8c0.9-0.9,4.4,4,5.1,6.9
				c0.4,1.7,0.5,3.2,0.4,3.5c-0.6,0.9-7.6,2.9-12.5,3.6c-9.5,1.3-14.5,1.4-25,0.6c-14.7-1-14.3-1-14.3,0c0,1.4,8.5,2.3,22.2,2.3
				c12.9,0,20.6-0.8,27.4-2.9c3.5-1.2,3.8-1.2,5.3-0.3c1.5,0.9,1.7,2,0.4,2.6c-0.4,0.1-0.6-0.1-0.4-0.8c0.5-1.4-1.2-1.8-2.8-0.8
				c-1.7,1.2-11.5,3.3-14.5,3.3c-3.3,0-6.8,0.6-6.8,1.3c0,0.3,0.5,0.4,1.3,0.1c0.6-0.3,2.9-0.5,5.1-0.6c2.2,0,5.5-0.3,7.3-0.5
				c2.4-0.3,1.9,0-2,0.9c-7.2,1.5-22.3,2.2-31.2,1.2c-9.6-1-9.9-1-9.9,0c0,1.3,2.4,1.7,12.5,2.6c11,0.9,22.8,0,33-2.2
				c9.2-2,9.7-2,10-0.3c0.1,1.4,0.1,1.4-0.6,0.4c-0.8-1-0.9-1-3.2-0.1c-3.7,1.5-10.6,2.7-17.8,3.2c-6.8,0.4-10.4,1.3-5.9,1.5
				c5,0.1,10.2-0.1,14.9-1c2.6-0.5,5.8-1,6.8-1.2c4.2-0.5-3.1,1.5-8.3,2.4c-12,2-23.9,2.2-35,0.6c-6.8-1-8.1-0.9-6.8,0.5
				c1.3,1.5,10.6,2.6,22.8,2.6c12.3,0,17.2-0.5,26.6-3.1c5.3-1.4,5.6-1.4,6.8-0.4c0.6,0.5,1.2,1.3,1.2,1.5c0,0.8-6.9,2.7-13.1,4
				c-8.3,1.5-32.1,1.5-38.9,0c-4.6-1-10-3.3-10.6-4.5c-0.1-0.3,0.1-1.4,0.6-2.4c1-1.7,1-1.8-0.1-2.7C468.3,86,468.3,86,469.9,84.8z
				 M528.5,88.1c-0.1,0.1-0.8,0.3-1.2,0c-0.5-0.1-0.3-0.4,0.4-0.4C528.3,87.7,528.7,87.8,528.5,88.1z M529.5,154.3
				c0-0.4-0.1-0.9-0.1-1.3c-0.3-2-0.4-3.7-0.5-5.1c-0.1-0.9-0.1-1.7-0.1-2c0-0.6,0.1-1.3,0.1-1.5c0.1-0.4,0.3-0.6,0.4-0.6
				c0,0,0.1,0,0.3,0.1l0,0l0,0c0.3,0.3,0.5,0.8,0.6,1.8c2.8,16.4,2.7,23-0.8,24.3c-3.6,1.4-10.2-2.6-10.2-5.9v-1.5l1.2,1.8
				c1.5,2.4,4.4,3.5,6.5,2.4C529.6,165.4,530.4,161.6,529.5,154.3z M528.8,143c-1,0-1.3-0.5-1.7-5.3c-0.3-2.8-0.8-5.6-1-6
				c-0.4-0.6-0.4,0.1-0.1,2c0.1,1.7,0.4,8.1,0.5,14.3c0,9,0,11.7-0.8,12.3c-1.3,1.5-2.4,1.2-4.9-1.4c-2.6-2.8-2.4-2.2-3.8-22
				c-0.5-6.8-1-14.7-1.3-17.8c-0.5-6.5-0.4-6.5,5-3.1c3.6,2.3,3.7,2.4,3.8,5.1v2.8l0.3-2.6c0.3-3.1,1.4-3.1,2,0
				c0.5,2.4,2,12.9,2.6,17.9C529.9,142.8,529.9,143,528.8,143z M515.1,111.8l-0.4-5.6c-0.5-6.1-0.3-6.5,2.9-6.7c1,0,2.3-0.3,2.9-0.5
				c2.3-0.9,2.6-0.6,3.2,3.3c0.4,2.3,0.9,5.6,1.3,7.7c1.4,7.8,1.4,8.5,0.3,7.6c-0.6-0.5-1-1.8-1-3.6v-2.7l-0.3,2.6l-0.3,2.6
				l-4.4-2.2L515.1,111.8z M527,102.7c-0.3-4-0.1-5.1,0.5-5.5c1.4-0.9,1.5-0.6,2.3,3.6c0.9,5.6,0.9,7-0.4,7.4
				C527.9,108.8,527.4,107.9,527,102.7z M494.3,109.6l5.9,0.3c3.3,0,6.1,0.4,6.5,0.8c0.6,0.6,0.9,6.4,1.9,38.2
				c0.4,11.1,0.4,21.3,0.1,22.4c-0.5,2.7-1.7,3.3-5.8,3.3c-4.2,0-7.3-1.8-10-5.6c-1.9-2.9-1.9-3.1-1.7-8.1
				c0.1-2.8,0.8-13.7,1.3-24.5c0.5-10.6,1.2-21.1,1.3-23L494.3,109.6z M494.1,108.4v-3.3c0-1.9,0.1-3.6,0.4-3.8s3.1-0.3,6.4-0.3
				l6,0.1v3.8c0,3.1-0.1,3.8-0.9,3.7c-0.5-0.1-3.3-0.1-6.4-0.1L494.1,108.4z M483.6,120c0.6,0.1,1,0.4,1.2,0.8
				c0.1,1.5-0.9,21.1-1.7,33c-0.9,14.1-1.4,15.8-4,16.4c-2.2,0.5-7.6-1.5-9-3.5l-1.2-1.7l1.3-10.9c0.8-5.9,1.8-14.7,2.3-19.5
				c1.7-14.7,1.7-15.1,2.6-15.5c0.1,0,0.3-0.1,0.5-0.3c0.9-0.5,2.4-1.3,3.8-1.9c0.3-0.1,0.5-0.3,0.6-0.4c2.3-1.2,4.4-2,4.6-2
				c0.3,0,0.4,0.6,0.4,1.4c0,1.3-0.3,1.5-2.3,1.5c-1.5,0-2.4,0.3-2.7,0.9C479.9,119.2,480.4,119.5,483.6,120z M485,112.4
				c-0.5,0.8-6.9,4-9.3,4.7l-1.4,0.4l0.4-3.7c0.1-2,0.6-6.1,1-9.1l0.8-5.3l3.6,0.4c0.1,0,0.3,0,0.4,0c2.3,0.3,3.7,0.3,4.5,0.6
				c0.6,0.1,1,0.3,1,1.3c0.1,0.9,0,2.3-0.1,4.5C485.8,109.3,485.4,112.2,485,112.4z M537.5,170.2c-1.7,4.2-7.7,7-19.6,8.8
				c-11.4,1.8-23.7,0.9-38.3-2.9c-9.5-2.6-12.9-4-15.2-6.8c-2.3-2.8-2.6-4.6-1.5-11.7c0.9-5.9,2.6-19.2,4.2-32.1
				c1.4-11.8,3.3-26.3,3.6-27c0.1-0.4,0.5-0.8,0.8-0.8c0.3,0,0.9,0.4,1.4,0.8c0.9,0.8,0.9,1.7-0.1,11.1c-0.6,5.8-1.4,12.4-1.7,14.9
				c-0.4,2.4-0.8,6.3-0.9,8.6c-0.5,5.5-2.6,23.7-3.3,29.8c-0.8,5.8-0.3,7.2,3.7,9.1c6.5,3.3,12.5-0.3,14.5-8.7
				c0.5-1.9,1.2-10.2,1.5-18.6c0.4-8.3,0.9-18.3,1.3-22c0.3-3.7,0.8-10.2,0.9-14.5c0.1-7.4,0.1-7.4,1.7-7.4h1.4l-0.4,6.7
				c-0.1,3.7-0.9,16.5-1.5,28.4c-1.7,29.3-1.7,33.2-0.5,35.5c2.2,4,7,6.8,11.8,6.8c2.9,0,6.8-2.2,8.3-4.9c2.4-4,2.6-6.1,1.5-31.9
				c-1.3-32.8-1.4-40.3-0.6-40.6c0.8-0.4,1.2,3.2,2,17.5c0.4,5.5,0.9,12.9,1.3,16.4s0.9,10.2,1.2,15.2c1.2,17.5,1.3,18.1,2.8,20
				c2,2.4,4.5,3.6,7.7,3.7c2.6,0,2.9-0.1,5.3-2.9c4.9-5.5,5.1-9.7,2.4-27c-0.8-5.1-1.7-11.9-1.9-15.1c-0.3-3.6-0.8-6.1-1.2-6.7
				c-1.2-1.2-1.8-11.5-0.9-12.2c0.5-0.3,1-0.5,1.2-0.5c0.6,0,1,5,0.5,6c-0.3,0.6-0.5,2.2-0.5,3.6s0.1,2,0.4,1.4
				c0.8-2.9,1.2-1.5,2.2,6c0.6,4.5,1.5,11.9,2.2,16.3C538.2,163.6,538.4,167.7,537.5,170.2z"/>
			<path class="st2" d="M494.3,64.1c2.6,0.6,5.9-0.4,4.7-1.5c-0.8-0.8-4.7-1.2-6.3-0.8C491.1,62.3,492,63.5,494.3,64.1z"/>
			<path class="st2" d="M503.6,63.9c2.7,0,4.7-1,3.8-1.9c-0.5-0.5-5.9-0.5-6.3,0C499.9,63.1,500.9,63.9,503.6,63.9z"/>
			<path class="st2" d="M482.9,65.7c3.5,0,3.6-1.7,0.4-2.9c-2.4-0.9-4-0.9-4.4,0.3C478.3,64.5,480.2,65.7,482.9,65.7z"/>
			<path class="st2" d="M508.5,64.6c-0.6,0.4-0.9,0.8-0.9,1.4c0,1,0.4,1.2,2.6,1.2c1.4,0,2.9-0.4,3.5-0.9c0.9-0.8,0.9-0.9,0-1.7
				c-0.6-0.5-1.5-0.6-2.3-0.6c-0.5,0-1.2,0.1-2,0.4C508.9,64.5,508.6,64.5,508.5,64.6z"/>
			<path class="st2" d="M487.2,66.6c0.6,1,3.1,1.8,5,1.4l0,0c0.1,0,0.1,0,0.3,0c0.8-0.3,1.4-0.5,1.5-1c0.1-0.6-0.4-1.3-1.5-1.8
				c-0.4-0.1-0.9-0.3-1.3-0.4c-1-0.1-2.2-0.1-3.2,0.1h-0.1c-0.3,0.1-0.5,0.3-0.6,0.5C487,65.8,487,66.2,487.2,66.6z"/>
			<path class="st2" d="M503.6,67.8c1.5-0.8,1.7-1.4,0.1-2.2c-0.1,0-0.3-0.1-0.4-0.1c-0.8-0.3-1.8-0.4-2.8-0.4
				c-1,0.1-1.9,0.4-2.6,0.6c-1.3,1-0.8,2,1.5,2.4c0.1,0,0.1,0,0.3,0c0.3,0,0.5,0,0.8,0C501.6,68.5,502.7,68.2,503.6,67.8z"/>
			<path class="st2" d="M502.3,116.5c1.8,0.4,3.3-0.3,3.1-1.4c-0.3-0.5-1.2-1-2.4-1.2c-1.8-0.1-2.2,0-2.2,0.9
				C500.7,115.7,501.4,116.3,502.3,116.5z"/>
			<path class="st2" d="M495.7,117.3L495.7,117.3c0,0.1,0,0.1,0,0.3c0.3,0.6,1.3,1.2,2.7,1.2c0.1,0,0.3,0,0.3,0c0.1,0,0.3,0,0.4,0
				c0.6-0.1,1.2-0.5,1.4-0.9c0.1-0.5,0-1.2-0.5-1.4c-0.9-0.5-2.2-0.6-3.2-0.3l0,0c-0.1,0-0.3,0.1-0.4,0.3l0,0
				c-0.1,0.1-0.3,0.1-0.3,0.3l0,0l-0.1,0.1l0,0c-0.1,0.1-0.1,0.3-0.1,0.4l0,0v0.1C495.7,117.2,495.7,117.2,495.7,117.3z"/>
			<path class="st2" d="M501.8,120.9c-2.4,0.6-0.8,2.6,2.3,2.6c1.3,0,2.6-1.4,1.9-2C505.5,120.9,502.7,120.6,501.8,120.9z"/>
			<path class="st2" d="M493.5,165.2c0,2,2,6.1,3.6,7.3c1.5,1,3.8,1.2,5.9,0.3c1-0.5,1.8-1.2,2.6-2c0.8-1,1.3-2.2,1.7-3.6
				c0.3-1.3,0.5-2.7,0.4-3.7l-0.1-2.3l-1.5,2.7c-2.6,4.6-6.3,5.1-10.8,1.4l-1.8-1.5V165.2L493.5,165.2L493.5,165.2z"/>
			<path class="st2" d="M522.7,120.4c0-0.3-0.8-0.9-1.5-1.2c-0.4-0.1-0.6-0.3-0.9-0.4h-0.1c-0.8-0.3-1.2-0.1-1.9,0.3l0,0
				c-0.4,0.3-0.6,0.6-0.8,0.9c0,0.5,0.4,1,1.2,1.3C519.9,121.8,522.7,121.1,522.7,120.4z"/>
			<path class="st2" d="M521.5,127.5c0.1,0,0.4,0,0.5,0c0.9-0.1,1.5-0.5,1.5-1c0-0.1,0-0.3-0.1-0.4c-0.3-0.4-1-0.6-2-0.8
				c-1.4-0.1-2.4,0.3-2.7,0.6c-0.1,0.3-0.1,0.4,0,0.5c0,0.1,0.1,0.3,0.1,0.4C519.2,127.4,520.3,127.7,521.5,127.5z"/>
			<ellipse class="st2" cx="525.6" cy="128.4" rx="0.6" ry="0.9"/>
			<path class="st2" d="M480,123.2c-1-0.4-2.3-0.3-3.2,0.1c-0.1,0.1-0.3,0.1-0.4,0.3c-1,1-0.9,1.5,0.9,1.9h0.1
				c0.4,0.1,0.9,0.1,1.4,0.1c0.8,0,1.4-0.1,1.8-0.5c0.5-0.4,0.6-0.9,0.4-1.4C480.7,123.6,480.3,123.3,480,123.2z"/>
			<path class="st2" d="M474.9,162.2l-1.3-1.3c-1.7-1.7-1.9-1.5-2.3,0.8c-0.5,2.6,0.5,5.4,2.4,6.4c1.3,0.8,1.7,0.6,3.1-0.4
				c3.6-2.7,4-4.2,4.7-20.2c0.4-8.1,0.6-14.9,0.5-15s-0.4,1-0.5,2.6c-0.9,10.1-3.7,22.8-5.6,25.6L474.9,162.2z"/>
			<path class="st3" d="M469.4,86.9c1.2,0.9,1.2,0.9,0.1,2.7c-0.5,1-0.9,2-0.6,2.4c0.8,1.2,6,3.3,10.6,4.5c6.8,1.5,30.7,1.7,38.9,0
				c6.1-1.2,13.1-3.2,13.1-4c0-0.3-0.5-0.9-1.2-1.5c-1-1-1.4-0.9-6.8,0.4c-9.5,2.6-14.3,3.1-26.6,3.1c-12.2,0-21.5-1-22.8-2.6
				c-1.2-1.5,0-1.7,6.8-0.5c11,1.7,22.9,1.4,35-0.6c5.3-0.9,12.5-2.9,8.3-2.4c-1.2,0.1-4.2,0.8-6.8,1.2c-4.6,0.9-10,1.2-14.9,1
				c-4.5-0.1-0.9-1,5.9-1.5c7-0.4,14-1.7,17.8-3.2c2.3-0.9,2.4-0.9,3.2,0.1c0.9,1,0.9,1,0.6-0.4c-0.3-1.8-0.9-1.8-10,0.3
				c-10.1,2.3-21.9,3.1-33,2.2c-10.1-0.8-12.5-1.3-12.5-2.6c0-0.9,0.3-0.9,9.9,0c9,0.9,24.1,0.4,31.2-1.2c4.1-0.9,4.5-1,2-0.9
				c-1.8,0.3-5.1,0.5-7.3,0.5c-2.2,0.1-4.5,0.4-5.1,0.6c-0.8,0.1-1.3,0.1-1.3-0.1c0-0.6,3.3-1.3,6.8-1.3c3.1,0,12.8-2.3,14.5-3.3
				s3.3-0.6,2.8,0.8c-0.3,0.6,0,0.9,0.4,0.8c1.3-0.5,1.2-1.7-0.4-2.6c-1.4-0.9-1.7-0.9-5.3,0.3c-6.8,2.2-14.5,3.1-27.4,2.9
				c-13.8,0-22.2-0.9-22.2-2.3c0-1-0.5-1,14.3,0c10.5,0.8,15.5,0.6,25-0.6c5.1-0.6,11.9-2.6,12.5-3.6c0.1-0.4,0-1.9-0.4-3.5
				c-0.8-2.9-4.2-7.8-5.1-6.9c-0.3,0.3,0.1,1,0.8,1.8c2.3,2.4,4.1,7.2,3.3,8.5c-1.3,1.9-13.8,3.8-24.6,3.7c-3.5,0-5.3-0.1-4.2-0.3
				c5.6-0.5,14.3-1.7,17.9-2.3c5.4-1,7-2.2,7-4.9c0-2.9-1.5-6-3.2-6.8c-1-0.5-1.4-1-1.2-1.8c0.3-1,0-1.2-1.7-1
				c-4.6,0.3-5.5,0-5.1-1.2c0.3-0.9-0.1-1.2-2.7-1.5c-1.9-0.3-3.3-0.1-3.8,0.3c-0.5,0.4-1.8,0.5-3.6,0.3c-1.7-0.3-4.9-0.5-7.3-0.6
				c-3.8-0.1-4.2-0.1-2.6,0.4c1,0.4,1.9,1,1.9,1.4c0,1.2-4.5,1-6.7-0.1c-1.7-0.9-1.8-0.9-4.4,0.3c-3.7,1.8-5.6,5.1-6.1,10.6
				c-0.4,4.4-1.7,6.8-3.5,6.8c-1,0-1,1.5,0.1,2.6c1.3,1.3,1.2,1.9-0.8,3.3C468.3,86,468.3,86,469.4,86.9z M500.5,68.5
				c-0.3,0-0.5,0-0.8,0c-1.2-0.1-2-0.5-2.4-1s0-1,0.6-1.4s1.5-0.6,2.6-0.6c0.9-0.1,1.9,0,2.8,0.4c0.1,0,0.3,0.1,0.4,0.1
				c1.5,0.8,1.4,1.4-0.1,2.2c-0.1,0.1-0.3,0.1-0.5,0.3C502.3,68.4,501.4,68.5,500.5,68.5z M511,64c0.9,0,1.8,0.3,2.3,0.6
				c0.9,0.8,1,0.9,0,1.7c-0.5,0.4-2,0.9-3.5,0.9c-2,0-2.6-0.1-2.6-1.2c0-0.5,0.4-1,0.9-1.4C509.1,64.3,510.1,64,511,64z M501,62
				c0.5-0.5,5.9-0.5,6.3,0c0.9,0.9-1,1.9-3.8,1.9C500.9,63.9,499.9,63.1,501,62z M492.7,62c1.5-0.5,5.6,0,6.3,0.8
				c1,1-2.3,2.2-4.7,1.5C492,63.5,491.1,62.3,492.7,62z M487.2,65.4c0.1-0.3,0.4-0.4,0.6-0.5c0.8-0.4,2-0.5,3.3-0.3
				c0.5,0.1,0.9,0.3,1.3,0.4c1.2,0.4,1.7,1.2,1.5,1.8c-0.1,0.4-0.4,0.6-0.9,0.9c-0.3,0.1-0.5,0.1-0.6,0.3c-0.1,0-0.1,0-0.3,0l0,0
				c-2,0.4-4.4-0.3-5-1.4c-0.1-0.1-0.1-0.4-0.1-0.6C487,65.8,487.1,65.7,487.2,65.4z M478.9,63.1c0.4-1.2,2-1.3,4.4-0.3
				c3.3,1.3,3.1,2.9-0.4,2.9C480.2,65.7,478.3,64.5,478.9,63.1z"/>
			<path class="st3" d="M527.7,87.8c-0.6,0-0.9,0.1-0.4,0.4c0.4,0.1,0.9,0.1,1.2,0C528.7,87.8,528.3,87.7,527.7,87.8z"/>
			<path class="st3" d="M529.9,100.8c-0.8-4.2-0.9-4.5-2.3-3.6c-0.6,0.4-0.8,1.5-0.5,5.5c0.4,5.3,0.9,6.1,2.4,5.5
				C530.6,107.8,530.8,106.4,529.9,100.8z"/>
			<path class="st3" d="M533.1,126.2c-1-7.7-1.5-9-2.2-6c-0.1,0.6-0.3,0-0.4-1.4c0-1.4,0.1-3.1,0.5-3.6c0.6-1,0.1-6-0.5-6
				c-0.1,0-0.8,0.3-1.2,0.5c-1,0.6-0.4,11,0.9,12.2c0.5,0.5,0.9,3.1,1.2,6.7c0.3,3.2,1.2,10.1,1.9,15.1c2.8,17.3,2.4,21.5-2.4,27
				c-2.4,2.7-2.7,2.9-5.3,2.9c-3.2,0-5.8-1.3-7.7-3.7c-1.7-1.9-1.7-2.6-2.8-20c-0.4-5-0.9-11.8-1.2-15.2c-0.3-3.5-0.9-10.9-1.3-16.4
				c-0.9-14.3-1.3-17.9-2-17.5c-0.7,0.4-0.6,7.9,0.6,40.6c1,25.7,0.9,27.9-1.5,31.9c-1.7,2.7-5.4,4.9-8.3,4.9
				c-4.7,0-9.6-2.9-11.8-6.8c-1.2-2.2-1.2-6,0.5-35.5c0.6-11.9,1.3-24.7,1.5-28.4l0.4-6.7h-1.4c-1.5,0-1.5,0-1.8,7.6
				c-0.3,4.2-0.6,10.8-0.9,14.5c-0.3,3.7-0.9,13.7-1.3,22c-0.4,8.5-1,16.8-1.5,18.6c-2,8.5-7.9,12-14.5,8.7c-4-1.9-4.5-3.3-3.7-9.1
				c0.9-6.1,2.9-24.5,3.3-29.8c0.1-2.3,0.6-6.1,0.9-8.6c0.4-2.4,1.2-9.2,1.7-14.9c1-9.5,1-10.5,0.1-11.1c-0.5-0.4-1.2-0.8-1.4-0.8
				c-0.3,0-0.6,0.4-0.8,0.8c-0.3,0.8-2.2,15.2-3.6,27c-1.7,12.9-3.3,26.3-4.2,32.1c-1,7-0.8,8.8,1.5,11.7c2.3,2.8,5.8,4.2,15.2,6.8
				c14.6,3.7,26.9,4.7,38.3,2.9c11.9-1.8,17.9-4.6,19.6-8.8c0.9-2.6,0.6-6.7-2.3-27.8C534.6,138,533.7,130.7,533.1,126.2z"/>
			<path class="st3" d="M523.8,116.3l0.3-2.6l0.3-2.6v2.7c0,1.7,0.5,3.1,1,3.6c1,0.9,1,0.4-0.3-7.6c-0.4-1.9-0.9-5.4-1.3-7.7
				c-0.6-4.1-0.9-4.4-3.2-3.3c-0.6,0.3-1.9,0.5-2.9,0.5c-3.2,0.1-3.3,0.5-2.9,6.7l0.4,5.6l4.4,2.2L523.8,116.3z"/>
			<path class="st3" d="M486.2,101.9c-0.1-0.6-0.4-1-1-1.3c-0.9-0.3-2.2-0.4-4.5-0.6c-0.1,0-0.3,0-0.4,0l-3.6-0.4l-0.8,5.3
				c-0.4,2.8-0.9,6.9-1,9.1l-0.4,3.7l1.4-0.4c2.4-0.8,8.8-4,9.3-4.7c0.3-0.4,0.8-3.2,0.9-6.1C486.2,104.1,486.3,102.8,486.2,101.9z"
				/>
			<path class="st3" d="M506.2,108.7c0.6,0.1,0.9-0.6,0.9-3.7v-3.8l-6-0.1c-3.3,0-6.1,0-6.4,0.3s-0.4,1.9-0.4,3.8v3.3h5.5
				C502.7,108.4,505.7,108.6,506.2,108.7z"/>
			<path class="st3" d="M492.6,136.5c-0.5,10.6-1.2,21.6-1.3,24.5c-0.3,5-0.3,5.1,1.7,8.1c2.6,3.8,5.8,5.6,10,5.6
				c4.1,0,5.3-0.6,5.8-3.3c0.3-1.2,0.1-11.3-0.1-22.4c-1-31.8-1.3-37.5-1.9-38.2c-0.4-0.4-3.2-0.8-6.5-0.8l-5.9-0.3l-0.4,3.8
				C493.7,115.5,493.1,125.9,492.6,136.5z M504,123.4c-3.1,0-4.7-1.9-2.3-2.6c0.9-0.3,3.7,0,4.2,0.5
				C506.7,122,505.3,123.4,504,123.4z M502.8,114.1c1.5,0.1,2.3,0.5,2.4,1.2l0,0c0.3,1.2-1.3,1.8-3.1,1.4H502
				c-0.9-0.3-1.4-0.8-1.4-1.5C500.7,114.1,501,113.8,502.8,114.1z M495.7,116.9c0-0.1,0.1-0.3,0.1-0.4l0,0l0.1-0.1l0,0
				c0.1-0.1,0.3-0.1,0.3-0.3l0,0c0.1-0.1,0.3-0.1,0.4-0.3l0,0c0.9-0.4,2.2-0.4,3.2,0.3c0.5,0.3,0.6,0.9,0.5,1.4c0,0,0,0,0,0.1
				c-0.1,0.5-0.8,0.8-1.4,0.9c-0.1,0-0.3,0-0.4,0c-1,0.1-2.2-0.1-2.7-0.8c-0.1-0.1-0.3-0.3-0.3-0.4v-0.1v-0.1V117
				C495.7,117,495.7,117,495.7,116.9C495.7,117,495.7,116.9,495.7,116.9z M495.3,165.3c4.4,3.7,8.1,3.3,10.8-1.4l1.5-2.7l0.1,2.3
				c0.1,0.9-0.1,2.4-0.4,3.7c-0.1,0.5-0.3,0.9-0.4,1.3c-0.4,0.9-0.8,1.5-1.3,2.2c-0.8,0.9-1.7,1.5-2.6,2c-1.9,0.9-4.1,0.9-5.9-0.3
				c-1.5-1.2-3.6-5.1-3.6-7.3v-1.4L495.3,165.3z"/>
			<path class="st3" d="M526.9,121.6c-0.6-3.1-1.7-2.9-2,0l-0.3,2.6v-2.8c-0.1-2.8-0.1-2.8-3.8-5.1c-5.4-3.5-5.5-3.3-5,3.1
				c0.3,3.1,0.8,11,1.3,17.8c1.4,19.8,1.3,19.2,3.8,22c2.4,2.6,3.6,2.9,4.9,1.4c0.6-0.8,0.8-3.3,0.8-12.3
				c-0.1-6.3-0.3-12.7-0.5-14.3c-0.3-1.9-0.1-2.7,0.1-2c0.3,0.5,0.8,3.2,1,6c0.4,4.7,0.5,5.3,1.7,5.3c1,0,1.2-0.3,0.8-3.5
				C529,134.7,527.4,124.1,526.9,121.6z M517.4,120c0-0.4,0.3-0.6,0.8-0.9c0.3-0.1,0.6-0.3,1.2-0.4c0.1,0,0.5,0,0.9,0.1h0.1
				c0.3,0.1,0.6,0.3,0.9,0.4c0.9,0.3,1.5,0.9,1.5,1.2c0,0.8-2.8,1.4-4.2,0.9C517.7,121.1,517.3,120.5,517.4,120z M519,127.1
				c-0.1-0.1-0.1-0.1-0.1-0.3c-0.1-0.1-0.1-0.3-0.1-0.4c0-0.3,0-0.4,0-0.5c0.3-0.5,1.3-0.8,2.7-0.6c1.2,0.1,1.9,0.4,2,0.8
				c0,0.1,0.1,0.3,0.1,0.4c0,0.5-0.6,0.8-1.5,1C520.9,127.7,519.5,127.7,519,127.1z M525.6,129.3c-0.3,0-0.6-0.4-0.6-0.9
				s0.3-0.9,0.6-0.9c0.4,0,0.6,0.4,0.6,0.9S526,129.3,525.6,129.3z"/>
			<path class="st3" d="M482.9,117.4c2,0,2.3-0.1,2.3-1.5c0-0.9-0.1-1.5-0.4-1.4c-0.3,0-2.3,0.9-4.6,2c-0.3,0.1-0.5,0.3-0.6,0.4
				c-1.5,0.8-3.1,1.5-3.8,1.9c-0.3,0.1-0.4,0.3-0.5,0.3c-0.9,0.5-1,0.9-2.6,15.5c-0.5,4.7-1.5,13.6-2.3,19.5l-1.3,10.9l1.2,1.7
				c1.4,1.9,6.8,4,9,3.5c2.6-0.6,3.1-2.3,4-16.4c0.9-11.9,1.8-31.5,1.7-33c0-0.4-0.5-0.6-1.2-0.8c-3.2-0.5-3.7-0.8-3.3-1.7
				C480.4,117.8,481.5,117.4,482.9,117.4z M482,132.5c0.1,0.1,0,6.8-0.5,15c-0.8,16-1.2,17.5-4.7,20.2c-1.4,1-1.8,1.2-3.1,0.4
				c-1.8-0.9-2.8-3.7-2.4-6.4c0.4-2.3,0.6-2.4,2.3-0.8l1.3,1.3l0.9-1.4c1.9-2.9,4.7-15.6,5.6-25.6
				C481.6,133.5,481.8,132.4,482,132.5z M480.8,123.8c0.3,0.5,0.1,1-0.4,1.4c-0.1,0.1-0.4,0.3-0.6,0.4c-0.3,0.1-0.8,0.1-1.2,0.1
				s-0.9,0-1.4-0.1c-0.9-0.1-1.7-0.5-1.7-0.8c0-0.6,0.5-1.2,1.2-1.4c0.9-0.4,2-0.5,3.2-0.1h0.1C480.4,123.3,480.7,123.6,480.8,123.8
				z"/>
			<path class="st3" d="M526.8,166.7c-2.2,1-5.1,0-6.5-2.4l-1.2-1.8v1.5c0,3.5,6.7,7.3,10.2,5.9c3.5-1.3,3.6-7.9,0.8-24.3
				c-0.1-0.9-0.4-1.5-0.6-1.8l0,0l0,0c-0.3-0.1-0.5,0-0.6,0.5c-0.1,0.4-0.1,0.9-0.1,1.5c0,0.4,0.1,1.2,0.1,2
				c0.1,1.4,0.3,3.2,0.5,5.1c0,0.4,0.1,0.9,0.1,1.3C530.4,161.6,529.6,165.4,526.8,166.7z"/>
		</g>
		<g>
			<path class="st4" d="M398.7,105.8c7.9,17.4-7.3,33.5,0.5,50.5c7.8,17,33.8,8.5,30.3-5.8c-2.6-10.8-12.9-4.5-11.3,0.6
				c0.9,2.9-2.4,5.3-4,1.8c-2.4-5.3-1-12.2,5.5-15.1c17.3-7.9,38.5,25.5,2.3,42.1c-37.6,17.3-72.6-32-69.1-60.8
				c3.5-29.1,19.8-25.6,22.9-26C378.9,92.7,398.7,105.8,398.7,105.8z"/>
			<path class="st5" d="M377.6,119.3c0.3-1.3,10.4-4.2,10.8-5.5c0.4-1.2,0.3-6.1,1.5-6.7c1.2-0.5,7.4,7.7,5.5,10.1
				c-2,2.4-6.3,8.1-5.8,9.1s6-1.5,6.5-0.6c0.1,0.3,0.9,1,0.6,2.2c-1.4,4.4-7.7,18.1-6.1,21.4c0.3,0.6,6.8,9.5,6.4,10.5
				c-0.4,1-1.4,3.6-0.6,3.7c0.9,0.1,3.8,1,4.4,1.4c0.5,0.4,0.3,0.1,1.3,1c1,0.8,0.1,6.4,1.5,6.5c1.4,0.1,6-2.6,7.2-2.7
				c2-0.1,6.3-0.1,7.2-0.4c1.4-0.4,6.4-4,8.7-4.5c2.4-0.5-2.6,2.3-3.8,3.8c-1.4,1.5-4.1,3.6-5.3,4.2c-3.3,1.5-4-1.2-5.9-0.5
				c-2,0.6-7.9,3.8-9.1,3.5c-2.3-0.9-1.7-3.7-3.6-4c-1.9-0.3-3.5,1.4-4.2-0.6c-0.8-2-4.4-4.2-4.6-5.4c-0.4-1.2,1.7-3.5,0.6-4
				c-1-0.5-3.7-0.6-4.6-1.9c-0.9-1.3-10.5-15.5-9.9-17c0.8-1.7,7.6-2.3,7.9-3.3c0.4-1-5.1-2-5-3.8c0.1-1.8,0-2.9-0.8-7.6
				C378,125.2,377.7,122.3,377.6,119.3L377.6,119.3z"/>
			<path class="st6" d="M373.1,103.3c2.2,0.6,6,8.7,8.1,8.2c1.5-0.4,3.2-9.3,4.7-10.1c4.4-1.9,11.4,8.8,14.9,7.3
				c0,0-3.7-10.9-10.4-14.2c-6.7-3.2-11.3-2.4-14.3-8.7c-1.3-2.6-2-8.3-4.7-12.8c0.3,1.3,0.1,3.3,0,4.6c-0.5,5.1-6.4,15-6.4,16.9
				c0.1,1.9,1.8,16.3,2.2,19.6C369,113.7,371.2,102.8,373.1,103.3z"/>
			<path class="st7" d="M368.6,97.3c2-3.8,3.2-4.7,3.2-5.8c0-1,1-9.9,1.2-14.2c0-1.2-1.5-3.1-1.8-4.4c-3.8-6.5-11.1-12.4-23.2-7.2
				c-3.5,1.5-6.3,5.4-6.3,5.4c-2.9,4.1-4.4,10-2.4,15.2c0.5,1.5,2.3,2.6,4.2,2.4c1.7,0,3.2-0.8,4.2-2l0.1-0.1
				c0.8-0.9,0.9-1.5,0.6-2.3c-0.1-0.6-0.6-1.2-1.2-1.7c-1-1-2.3-2.2-3.3-3.7c-0.1-0.3-0.4-0.5-0.5-0.9c0.4-0.8,2-5.5,6-7.4
				c7-3.5,11.8-1.8,15.2,5.6c5.8,12.4-15.1,25.9-11.4,37.8c0.8,2.4,5.8-9.1,7.9-8.8c2.2,0.3,3.3,9.1,5.6,8.8l0,0
				C366.7,110.7,364.9,104.2,368.6,97.3z"/>
		</g>
	</g>
	<g>
		<path d="M336.5,201.3c0-5,1.3-8.6,3.8-10.8s6.6-3.3,12.2-3.3c3.9,0,7.1,1,9.5,3.1c2.4,2,4.1,5.2,5.2,9.4l-7.1,5.4h-3.8l8.3-6.2
			c-1.1-3.4-2.6-5.8-4.6-7.2s-4.5-2.1-7.5-2.1c-2,0-3.8,0.1-5.2,0.4c-1.4,0.3-2.8,0.8-4.2,1.5c-1.4,0.7-2.5,1.9-3.2,3.6
			c-0.7,1.6-1.1,3.7-1.1,6.3c0,2.3,1,4.3,3.1,6c2.1,1.7,4.6,3.2,7.6,4.5c3,1.2,6,2.5,9,3.8s5.5,2.9,7.6,4.9s3.1,4.3,3.1,6.9
			c0,5.1-1.3,8.9-3.8,11.4s-6.9,3.8-13,3.8c-5,0-9-1-11.8-3c-2.9-2-4.8-5.2-5.9-9.4l2.2-0.9c1,4.1,2.8,7,5.3,8.6s5.9,2.4,10.3,2.4
			c4.9,0,8.6-0.9,10.9-2.8c2.4-1.9,3.6-5.2,3.6-10.1c0-2.3-1-4.3-3.1-6c-2.1-1.7-4.6-3.2-7.6-4.5c-3-1.2-6-2.5-9-3.8
			s-5.5-2.9-7.6-4.9C337.6,206.2,336.5,203.9,336.5,201.3z"/>
		<path d="M400,225.2l-1.2-2l4.3-2.5c3.5-1.9,5.3-5,5.3-9.3c0-7.9-6-11.9-18.1-11.9h-7.1v57.6h-2.3v-59.9h9.4
			c6.8,0,11.9,1.2,15.3,3.7s5.1,6,5.1,10.5c0,5.1-2.2,8.9-6.5,11.3L400,225.2z"/>
		<path d="M421.6,197.2h2.3v44.6h-2.3V197.2z"/>
		<path d="M440.7,237.1c-2.8-3.6-4.1-9.5-4.1-17.6s1.4-14,4.1-17.6c2.8-3.6,7.4-5.5,13.8-5.5c6.4,0,11,1.8,13.8,5.3l-1.7,1.5
			c-2.3-3-6.3-4.5-12.1-4.5c-2.6,0-4.7,0.3-6.5,0.8c-1.8,0.5-3.3,1.5-4.8,3s-2.5,3.6-3.3,6.4c-0.7,2.8-1.1,6.3-1.1,10.6
			s0.4,7.8,1.1,10.6c0.7,2.8,1.8,4.9,3.3,6.4s3.1,2.5,4.8,3c1.7,0.5,3.9,0.8,6.5,0.8c5.8,0,9.9-1.5,12.1-4.5l1.7,1.5
			c-2.8,3.5-7.4,5.3-13.8,5.3C448.1,242.5,443.5,240.7,440.7,237.1z"/>
		<path d="M509.5,237.2c-2.8,3.5-7.4,5.3-13.8,5.3c-6.4,0-11-1.8-13.8-5.5c-2.8-3.6-4.1-9.5-4.1-17.6s1.4-14,4.1-17.6
			c2.8-3.6,7.3-5.5,13.8-5.5c7.4,0,12.5,2.4,15.1,7.3L492,219.4h-3.6l19.4-16.2c-2.3-3-6.3-4.5-12.1-4.5c-2.6,0-4.7,0.3-6.5,0.8
			c-1.7,0.5-3.3,1.5-4.8,3s-2.5,3.6-3.3,6.4c-0.7,2.8-1.1,6.3-1.1,10.6s0.4,7.8,1.1,10.6s1.8,4.9,3.3,6.4s3.1,2.5,4.8,3
			c1.7,0.5,3.9,0.8,6.5,0.8c5.8,0,9.9-1.5,12.1-4.5L509.5,237.2z"/>
		<path d="M533.6,196.3c6.4,0,10.9,1.4,13.5,4.2l-1.5,1.7c-2.5-2.4-6.4-3.6-11.7-3.6c-8,0-12,3.2-12,9.5c0,2.5,1,4.4,2.9,5.9
			c1.9,1.5,4.3,2.6,7.1,3.3c2.8,0.8,5.6,1.6,8.4,2.4c2.8,0.8,5.1,2.2,7.1,4.1c1.9,1.9,2.9,4.3,2.9,7.3c0,3.5-1.5,6.4-4.4,8.5
			c-2.9,2.1-7.1,3.2-12.7,3.2c-2.7,0-5.4-0.4-8-1.1c-2.6-0.7-4.6-1.8-5.9-3.2l1.5-1.7c2.6,2.4,6.6,3.6,12.1,3.6
			c5,0,8.7-0.9,11.3-2.8c2.5-1.8,3.8-4,3.8-6.5c0-2.6-1-4.6-2.9-6.2c-1.9-1.6-4.3-2.8-7.1-3.6s-5.6-1.6-8.4-2.5
			c-2.8-0.8-5.1-2.2-7.1-3.9c-1.9-1.8-2.9-4.1-2.9-7.1c0-3.9,1.3-6.9,4-8.8C526.2,197.2,529.5,196.3,533.6,196.3z"/>
	</g>
</g>
</svg>
