<?xml version="1.0" encoding="UTF-8" standalone="no"?>
<!-- Generator: Adobe Illustrator 25.0.1, SVG Export Plug-In . SVG Version: 6.00 Build 0)  -->

<svg
   version="1.1"
   id="svg2"
   x="0px"
   y="0px"
   viewBox="0 0 885 300"
   style="enable-background:new 0 0 885 300;"
   xml:space="preserve"
   sodipodi:docname="banner.svg"
   inkscape:version="1.2 (dc2aedaf03, 2022-05-15)"
   xmlns:inkscape="http://www.inkscape.org/namespaces/inkscape"
   xmlns:sodipodi="http://sodipodi.sourceforge.net/DTD/sodipodi-0.dtd"
   xmlns="http://www.w3.org/2000/svg"
   xmlns:svg="http://www.w3.org/2000/svg"><defs
   id="defs436">
	
	
</defs>
<style
   type="text/css"
   id="style268">
	.st0{fill:#5DA649;}
	.st1{fill:none;}
	.st2{fill:#2D2B2B;}
	.st3{fill:#FFFFFF;}
	.st4{fill:#BA2025;}
	.st5{fill:#EEA794;}
	.st6{fill:#6BB87C;}
	.st7{fill:#108C55;}
</style>
<sodipodi:namedview
   bordercolor="#666666"
   borderopacity="1.0"
   id="base"
   inkscape:current-layer="svg2"
   inkscape:cx="599.52553"
   inkscape:cy="204.05081"
   inkscape:document-units="px"
   inkscape:pageopacity="0.0"
   inkscape:pageshadow="2"
   inkscape:window-height="995"
   inkscape:window-maximized="1"
   inkscape:window-width="1920"
   inkscape:window-x="0"
   inkscape:window-y="0"
   inkscape:zoom="0.9899495"
   pagecolor="#ffffff"
   showgrid="false"
   units="px"
   inkscape:showpageshadow="2"
   inkscape:pagecheckerboard="0"
   inkscape:deskcolor="#d1d1d1">
	</sodipodi:namedview>

<g
   id="g840"
   transform="rotate(-10.126292,294.74732,-1684.9499)"><path
     d="m 117.5591,40.316343 c 14.80406,-17.901006 40.56653,-7.214854 40.56653,-7.214854 l -6.46614,32.194584 -48.7343,40.532507 c 0,0 0,-47.849458 14.63391,-65.512237 z"
     fill="#c13742"
     id="path4"
     style="stroke-width:3.40323" /><path
     d="M 108.67666,44.910707 C 121.50685,24.7976 147.71174,31.297775 147.71174,31.297775 l -2.96081,32.398778 -43.73155,48.870427 c 0,0 -5.206942,-47.543166 7.65728,-67.656273 z"
     fill="#af2d3c"
     id="path6"
     style="stroke-width:3.40323" /><polygon
     points="141.3,21.25 136.09,20.93 133.13,34.74 142.57,34.54 "
     fill="#f6a749"
     id="polygon8"
     transform="matrix(-3.403233,0,0,3.403233,630.42631,29.936482)" /><path
     d="m 100.44083,145.16995 a 105.50022,105.50022 0 0 1 60.98594,15.07632 c -8.40599,7.21486 -24.9457,12.21761 -45.90961,12.93229 -22.903761,0.78274 -45.467196,-3.77759 -60.441421,-11.2647 12.55793,-7.79341 33.794104,-15.96117 45.365091,-16.74391 z"
     fill="#d17457"
     id="path42"
     style="stroke-width:3.40323" /><path
     d="m 108.13214,105.07987 -16.029226,41.75767 c 0,0 28.144736,19.90891 54.962216,10.20969 l 3.77759,-41.34928 z"
     fill="#d17457"
     id="path54"
     style="stroke-width:3.40323" /><path
     d="m 166.1913,101.13212 c 0.91887,11.12857 3.84565,28.24683 3.84565,28.24683 a 46.794454,46.794454 0 0 1 -0.85081,24.8436 14.429708,14.429708 0 0 1 -9.83534,9.08663 13.612932,13.612932 0 0 1 -7.58921,6.80647 c 0,0 -2.00791,6.60227 -7.24889,7.55518 a 20.181172,20.181172 0 0 1 -9.25679,7.48711 10.447925,10.447925 0 0 1 -10.85631,-4.04985 10.209699,10.209699 0 0 1 -8.23583,-9.35889 c 0,0 -7.21485,-5.34307 -6.22792,-12.69406 a 13.408738,13.408738 0 0 1 -4.73049,-9.12066 10.379861,10.379861 0 0 1 -4.18598,-10.2097 36.822981,36.822981 0 0 1 0,-12.59196 c 1.1571,-8.03163 17.01617,-35.29153 17.01617,-35.29153 z"
     fill="#562c27"
     id="path56"
     style="stroke-width:3.40323" /><path
     d="m 161.5629,112.80521 c 0,0 0.17016,14.12341 -2.2121,17.49261 -1.97388,2.79065 -11.67309,-3.06291 -15.00826,-3.60742 -3.33517,-0.54452 -19.97698,3.23307 -21.30424,1.19113 -1.32726,-2.04194 3.40324,-20.21521 3.40324,-20.21521 a 123.74155,123.74155 0 0 0 35.12136,5.13889 z"
     fill="#ecb883"
     id="path58"
     style="stroke-width:3.40323" /><polygon
     points="153.83,17.77 149.22,20.08 154.19,33.39 162.13,28.54 "
     fill="#f6a749"
     id="polygon60"
     transform="matrix(-3.403233,0,0,3.403233,630.42631,29.936482)" /><path
     d="m 169.18614,110.08262 c -28.65522,0.81678 -67.04369,-13.612933 -67.04369,-13.612933 0,0 16.60778,-42.302186 39.7838,-39.069115 36.14233,5.036785 27.25989,52.682048 27.25989,52.682048 z"
     fill="#fbc456"
     id="path62"
     style="stroke-width:3.40323" /><path
     d="m 136.95752,102.73164 q 0.47646,2.04194 1.02097,3.98178 A 270.62509,270.62509 0 0 1 102.21052,96.503719 c 0,0 16.53971,-42.336218 39.71573,-39.103147 1.15709,0 2.24613,0.374356 3.40323,0.612582 -9.52905,4.96872 -13.30664,23.924728 -8.37196,44.718486 z"
     fill="#f6a749"
     id="path110"
     style="stroke-width:3.40323" /><path
     d="m 146.69077,61.960905 h -0.40839 0.44242 c 26.17087,4.220008 19.2623,44.242025 19.2623,44.242025 a 69.051598,69.051598 0 0 1 -7.8955,-0.27226 c 4.35614,-20.929878 -0.34032,-39.953951 -11.40083,-43.969765 z"
     fill="#ffea80"
     id="path112"
     style="stroke-width:3.40323" /><path
     d="m 137.19575,122.87878 c 0.17016,-1.53146 -0.54452,-2.85872 -1.63355,-2.92679 -1.08904,-0.0681 -2.11,1.12307 -2.3142,2.68856 -0.20419,1.56549 0.54452,2.85871 1.63355,2.92678 1.08904,0.0681 2.07597,-1.1571 2.3142,-2.68855 z"
     fill="#5b4a49"
     id="path140"
     style="stroke-width:3.40323" /><path
     d="m 154.24595,124.00184 c 0,-1.56549 -0.51049,-2.89275 -1.49742,-2.96081 -0.98694,-0.0681 -1.93985,1.1571 -2.11001,2.72259 -0.17016,1.56548 0.51049,2.89274 1.53146,2.96081 1.02097,0.0681 1.80371,-1.1571 2.07597,-2.72259 z"
     fill="#5b4a49"
     id="path142"
     style="stroke-width:3.40323" /><path
     d="m 140.36076,115.01731 -7.38502,-2.58646 a 2.0079075,2.0079075 0 0 0 -2.41629,1.53145 l -0.74871,2.3142 a 2.0079075,2.0079075 0 0 0 0.98693,2.68856 l 7.45308,2.51839 a 1.9738751,1.9738751 0 0 0 2.3142,-1.53146 l 0.74871,-2.28016 a 2.0419398,2.0419398 0 0 0 -0.9529,-2.65452 z"
     fill="#562c27"
     id="path144"
     style="stroke-width:3.40323" /><path
     d="m 157.37692,115.97021 -7.21485,0.37436 c -0.91887,0 -1.70162,1.08903 -1.80371,2.3142 l -0.2042,2.48436 c 0,1.22516 0.57855,2.2121 1.49742,2.14403 l 7.24889,-0.44242 a 2.3482308,2.3482308 0 0 0 1.76968,-2.3142 v -2.41629 c 0.17016,-1.22516 -0.47645,-2.17807 -1.29323,-2.14404 z"
     fill="#562c27"
     id="path146"
     style="stroke-width:3.40323" /><path
     d="m 148.86884,136.798 c -0.17016,0.44242 -0.34032,0.88484 -0.54452,1.32726 a 9.4950201,9.4950201 0 0 1 -11.1626,5.71743 10.209699,10.209699 0 0 1 -5.30904,-12.5239 z"
     fill="#443138"
     id="path148"
     style="stroke-width:3.40323" /><path
     d="m 139.10156,125.22701 c 0,-2.72259 1.49742,-4.90066 3.40323,-4.90066 1.90582,0 3.40324,2.17807 3.40324,4.90066 0,2.72258 -1.49742,4.90065 -3.40324,4.90065 -1.90581,0 -3.40323,-2.34823 -3.40323,-4.90065 z"
     fill="#ecb883"
     id="path150"
     style="stroke-width:3.40323" /><path
     d="m 146.52061,123.08297 a 10.95841,10.95841 0 0 0 -0.91887,0.68065 c 0.20419,2.62049 -0.23823,6.80646 -4.5263,5.4792 a 1.0890346,1.0890346 0 0 0 0,0.30629 c 6.70437,3.50533 5.92162,-4.79856 5.44517,-6.46614 z"
     fill="#d17457"
     id="path152"
     style="stroke-width:3.40323" /><path
     d="m 147.71174,136.96816 c 0,0.37436 -0.27226,0.74871 -0.44242,1.1571 a 8.2698562,8.2698562 0 0 1 -9.76728,4.96872 8.7122765,8.7122765 0 0 1 -4.59436,-10.89035 z"
     fill="#f4e8d6"
     id="path154"
     style="stroke-width:3.40323" /><polygon
     points="146.41,30.76 146.43,29.98 146.63,30.68 146.33,31.96 146.28,31.21 144.43,31.63 "
     fill="#443138"
     id="polygon156"
     transform="matrix(-3.403233,0,0,3.403233,630.42631,29.936482)" /></g><g
   aria-label="ἀγορά"
   id="text245"
   style="font-size:74.6667px;line-height:1.25"><path
     d="m 356.7135,244.46576 -1.45834,4.04688 q -1.13021,3.13542 -4.59375,5.14063 -2.26042,1.3125 -6.27084,1.27604 -7.18229,-0.0729 -11.66667,-5.65104 -4.52083,-5.68751 -4.52083,-14.80209 0,-8.9323 4.52083,-14.76564 4.26563,-5.50521 13.27084,-5.46875 6.19792,0 9.33334,2.44271 2.77083,2.15104 3.82813,6.85417 l 0.29166,1.34896 1.42188,-4.04688 q 1.3125,-3.82812 5.06771,-5.72396 h 3.68229 v 2.15105 q -3.5,1.09375 -4.73958,4.52083 l -3.79167,10.35417 2.55208,11.15626 q 1.3125,5.72396 2.69792,6.34375 2.00521,0.91146 6.5625,-1.82292 v 4.41146 q -7.40104,4.26563 -12.61459,-0.18229 -2.36979,-2.04167 -3.02604,-4.99479 z m -1.56771,-7.14583 -2.29688,-10.71876 q -1.82292,-8.53125 -6.78125,-8.56771 -4.19271,-0.0365 -7.36459,4.44792 -2.66146,3.68229 -2.66146,12.14063 0,8.02084 2.66146,12.14063 2.84375,4.48438 7.76563,4.11979 4.19271,-0.32812 7.21875,-9.26042 z m -7.21876,-45.20836 q 2.47917,0 3.90105,2.00521 0.94791,1.27604 0.94791,2.88021 v 0.58334 q 0.32813,5.90625 -5.61458,10.9375 -0.18229,0.14583 -0.25521,0.21875 l -2.69792,-1.09375 q 2.88021,-2.77083 3.24479,-5.79688 -1.78645,-0.14583 -2.98958,-1.42187 -1.38542,-1.38542 -1.38542,-3.42709 0,-2.55208 1.96875,-3.97396 1.23959,-0.91146 2.88021,-0.91146 z"
     style="font-family:'DejaVu Serif';-inkscape-font-specification:'DejaVu Serif'"
     id="path297" /><path
     d="m 400.86456,251.83035 q 2.26042,10.64584 0.14583,14.58334 -1.71354,3.13542 -4.22917,3.20834 -3.86458,0.10937 -5.54167,-3.64584 -1.89583,-4.22917 3.17188,-12.54167 L 384.0208,219.16367 h -6.41667 v -3.90104 h 12.39584 l 9.44271,31.50001 q 8.27605,-11.1198 9.26042,-18.77605 0.47396,-3.60938 -0.4375,-6.05209 -1.45833,-3.90104 -3.20833,-4.52083 v -2.15104 h 4.08333 q 4.22917,2.55208 5.25001,4.70312 1.45833,3.0625 1.45833,4.9948 0,3.53646 -3.75521,10.53646 -1.45833,2.73438 -11.22917,16.33334 z"
     style="font-family:'DejaVu Serif';-inkscape-font-specification:'DejaVu Serif'"
     id="path299" /><path
     d="m 441.98958,251.46577 q 5.39583,0 8.13021,-4.26563 2.77084,-4.26563 2.77084,-12.57813 0,-8.3125 -2.77084,-12.54167 -2.73438,-4.26563 -8.13021,-4.26563 -5.39584,0 -8.16667,4.26563 -2.73438,4.22917 -2.73438,12.54167 0,8.3125 2.77084,12.57813 2.77083,4.26563 8.13021,4.26563 z m 0,3.60937 q -8.45834,0 -13.59897,-5.57812 -5.14062,-5.61459 -5.14062,-14.87501 0,-9.26042 5.10417,-14.83855 5.14062,-5.57813 13.63542,-5.57813 8.49479,0 13.59896,5.57813 5.14063,5.57813 5.14063,14.83855 0,9.26042 -5.14063,14.87501 -5.10417,5.57812 -13.59896,5.57812 z"
     style="font-family:'DejaVu Serif';-inkscape-font-specification:'DejaVu Serif'"
     id="path301" /><path
     d="m 475.89584,232.72618 v 3.82812 q 0,7.00001 2.66146,10.6823 2.69792,3.64583 7.80209,3.64583 5.14062,0 7.76562,-4.11979 2.66146,-4.11979 2.66146,-12.14063 0,-8.34896 -2.625,-12.14063 -3.17187,-4.44792 -7.80208,-4.44792 -4.84897,0 -7.80209,4.04688 -2.66146,3.68229 -2.66146,10.64584 z m 0,36.82293 h -6.70834 v -34.63543 q 0,-9.15105 3.17188,-13.59897 3.53646,-4.15625 5.97917,-5.43229 3.20833,-1.67709 7.91146,-1.67709 9.33334,0 13.85417,5.65105 4.52084,5.65104 4.52084,14.76563 0,9.11459 -4.52084,14.80209 -4.52083,5.65104 -11.66667,5.65104 -4.48438,0 -7.54688,-1.71354 -3.02604,-1.75 -4.99479,-5.39583 z"
     style="font-family:'DejaVu Serif';-inkscape-font-specification:'DejaVu Serif'"
     id="path303" /><path
     d="m 540.60942,244.46576 -1.45834,4.04688 q -1.13021,3.13542 -4.59375,5.14063 -2.26042,1.3125 -6.27084,1.27604 -7.18229,-0.0729 -11.66667,-5.65104 -4.52083,-5.68751 -4.52083,-14.80209 0,-8.9323 4.52083,-14.76564 4.26563,-5.50521 13.27084,-5.46875 6.19792,0 9.33334,2.44271 2.77083,2.15104 3.82813,6.85417 l 0.29166,1.34896 1.42188,-4.04688 q 1.3125,-3.82812 5.06771,-5.72396 h 3.68229 v 2.15105 q -3.5,1.09375 -4.73958,4.52083 l -3.79167,10.35417 2.55208,11.15626 q 1.3125,5.72396 2.69792,6.34375 2.00521,0.91146 6.5625,-1.82292 v 4.41146 q -7.40104,4.26563 -12.61459,-0.18229 -2.36979,-2.04167 -3.02604,-4.99479 z m -1.56771,-7.14583 -2.29688,-10.71876 q -1.82292,-8.53125 -6.78125,-8.56771 -4.19271,-0.0365 -7.36459,4.44792 -2.66146,3.68229 -2.66146,12.14063 0,8.02084 2.66146,12.14063 2.84375,4.48438 7.76563,4.11979 4.19271,-0.32812 7.21875,-9.26042 z m -3.2448,-43.02086 h 7.25522 l -12.39584,13.70834 h -4.26563 z"
     style="font-family:'DejaVu Serif';-inkscape-font-specification:'DejaVu Serif'"
     id="path305" /></g></svg>
