<?xml version="1.0" encoding="utf-8"?>
<!-- Generator: Adobe Illustrator 25.0.1, SVG Export Plug-In . SVG Version: 6.00 Build 0)  -->
<svg version="1.1"
	 id="svg2" xmlns:cc="http://creativecommons.org/ns#" xmlns:dc="http://purl.org/dc/elements/1.1/" xmlns:inkscape="http://www.inkscape.org/namespaces/inkscape" xmlns:rdf="http://www.w3.org/1999/02/22-rdf-syntax-ns#" xmlns:sodipodi="http://sodipodi.sourceforge.net/DTD/sodipodi-0.dtd" xmlns:svg="http://www.w3.org/2000/svg"
	 xmlns="http://www.w3.org/2000/svg" xmlns:xlink="http://www.w3.org/1999/xlink" x="0px" y="0px" viewBox="0 0 213.3 213.3"
	 style="enable-background:new 0 0 213.3 213.3;" xml:space="preserve">
<style type="text/css">
	.st0{fill:#5DA649;}
	.st1{fill:none;}
	.st2{fill:#2D2B2B;}
	.st3{fill:#FFFFFF;}
	.st4{fill:#BA2025;}
	.st5{fill:#EEA794;}
	.st6{fill:#6BB87C;}
	.st7{fill:#108C55;}
</style>
<sodipodi:namedview  bordercolor="#666666" borderopacity="1.0" id="base" inkscape:current-layer="layer1" inkscape:cx="142.49908" inkscape:cy="48.957351" inkscape:document-units="px" inkscape:pageopacity="0.0" inkscape:pageshadow="2" inkscape:window-height="976" inkscape:window-maximized="1" inkscape:window-width="1280" inkscape:window-x="0" inkscape:window-y="48" inkscape:zoom="1.4" pagecolor="#ffffff" showgrid="false" units="px">
	</sodipodi:namedview>
<g>
	<g>
		<g>
			<path class="st0" d="M77.8,61.2c32-11.7,36.7,19.1,36.7,19.1S86.7,94.7,77.8,61.2"/>
			<path class="st0" d="M104.7,23c28.8,18.1,7.3,40.7,7.3,40.7S83.7,50.5,104.7,23"/>
			<path class="st0" d="M94.4,54.4c-33.9,3.3-30.7-27.6-30.7-27.6S94.1,19.8,94.4,54.4"/>
		</g>
		<g>
			<path class="st1" d="M165.2,83.2c-0.1,0.4,0.2,0.8,0.9,1C165.5,84.1,165.2,83.6,165.2,83.2z"/>
			<path class="st1" d="M169.9,88c-0.2-0.3-0.7-0.5-1.6-0.6C169.2,87.5,169.7,87.7,169.9,88z"/>
			<path class="st1" d="M166.2,87.9c-0.1,0.1-0.1,0.3,0,0.4C166.1,88.2,166.1,88.1,166.2,87.9z"/>
			<path class="st1" d="M167.4,82.4c0.2,0.1,0.4,0.2,0.7,0.3C167.9,82.5,167.6,82.4,167.4,82.4z"/>
			<path class="st1" d="M167.3,82.3c-0.3-0.1-0.6-0.1-0.7-0.1c-0.4,0-0.7,0.1-0.9,0.3l0,0C166.4,82.2,166.7,82.2,167.3,82.3z"/>
			<path class="st1" d="M153.2,80.5h0.1c-0.7-0.2-1.2-0.7-1.2-1.2C152.1,79.9,152.5,80.3,153.2,80.5z"/>
			<path class="st1" d="M148.4,80.6l0.1-0.1C148.4,80.5,148.4,80.5,148.4,80.6z"/>
			<path class="st1" d="M148.2,81.2C148.2,81.1,148.2,81.1,148.2,81.2C148.2,81.1,148.2,81.1,148.2,81.2z"/>
			<path class="st1" d="M148.2,80.8c0-0.1,0.1-0.2,0.1-0.3C148.3,80.7,148.3,80.7,148.2,80.8z"/>
			<path class="st1" d="M168.4,89.1c-1,0.1-1.8-0.1-2.1-0.4c0,0.1,0.1,0.1,0.1,0.2c0.4,0.4,1.5,0.4,2.4,0.2
				C168.7,89,168.6,89,168.4,89.1z"/>
			<path class="st1" d="M174.6,101.8c-0.1-0.1-0.1-0.1-0.2-0.1c-0.2,0-0.3,0.2-0.3,0.5C174.2,101.8,174.4,101.6,174.6,101.8z"/>
			<path class="st1" d="M155.7,79.4L155.7,79.4c-0.1-0.5-0.7-0.8-1.9-0.9C154.8,78.6,155.5,79,155.7,79.4z"/>
			<path class="st1" d="M148.8,80.2c0.1-0.1,0.2-0.1,0.3-0.2C149,80.1,148.9,80.1,148.8,80.2z"/>
			<path class="st1" d="M150,41c-0.5,0.3-0.8,0.7-0.5,1.1s1,0.7,1.9,0.8c-0.1,0-0.1,0-0.2,0C149.4,42.5,149,41.8,150,41z"/>
			<path class="st1" d="M158.6,39.8c0.7-0.2,1.2-0.3,1.6-0.3c-0.7,0-1.5,0.2-2,0.5C158.3,39.9,158.5,39.9,158.6,39.8z"/>
			<path class="st1" d="M152,43c0.7,0,1.5-0.1,2.1-0.3c0.1-0.1,0.2-0.1,0.4-0.2C153.7,42.8,152.8,43,152,43z"/>
			<path class="st1" d="M154.2,40.7c-0.6-0.3-1.4-0.3-2.2-0.3C152.8,40.4,153.6,40.5,154.2,40.7z"/>
			<path class="st1" d="M145.7,42.5c0.2,0,0.4-0.1,0.5-0.2c0.4-0.2,0.6-0.4,0.7-0.7C146.8,42.1,146.3,42.4,145.7,42.5z"/>
			<path class="st1" d="M141.6,40.6c-0.1,0.1-0.2,0.3-0.2,0.4c0,0.2,0.1,0.3,0.1,0.5C141.4,41.2,141.4,40.9,141.6,40.6z"/>
			<path class="st1" d="M145.5,42.6L145.5,42.6L145.5,42.6z"/>
			<path class="st1" d="M174.5,109c-0.2-1.4-0.3-2.9-0.4-4C174.1,106.1,174.3,107.4,174.5,109z"/>
			<path class="st1" d="M144.8,40.1c-1-0.2-2-0.1-2.6,0.2h0.1C143.1,40,144,40,144.8,40.1z"/>
			<path class="st1" d="M174.6,101.8L174.6,101.8L174.6,101.8z"/>
			<path class="st1" d="M148.5,80.4c0.1-0.1,0.2-0.1,0.2-0.2C148.7,80.3,148.6,80.3,148.5,80.4z"/>
			<path class="st1" d="M135.9,87.5c0.2-0.1,0.3-0.2,0.5-0.3c-0.3,0.2-0.8,0.3-1.4,0.4C135.3,87.6,135.7,87.6,135.9,87.5z"/>
			<path class="st1" d="M132.5,82.4c0.6-0.3,1.8-0.9,3-1.5C134.4,81.4,133.3,82,132.5,82.4z"/>
			<path class="st1" d="M149.4,124.2c1.4,0.9,3.1,1,4.6,0.2C152.4,125.1,150.6,125,149.4,124.2z"/>
			<path class="st1" d="M136,67.5c0.1,0,0.2,0,0.3,0C136.3,67.6,136.1,67.5,136,67.5z"/>
			<path class="st1" d="M148.3,81.2c0,0.1,0.1,0.2,0.2,0.3c0.4,0.5,1.3,0.7,2.1,0.6c-0.1,0-0.2,0-0.2,0
				C149.2,82.2,148.4,81.7,148.3,81.2z"/>
			<path class="st1" d="M133.2,86c0.1-0.1,0.2-0.2,0.3-0.2c-0.5,0.2-0.9,0.6-0.9,1.1c0,0.3,0.6,0.5,1.3,0.6h-0.1
				C132.5,87.2,132.3,86.8,133.2,86z"/>
			<path class="st1" d="M140.8,69.1c-0.1-0.8-0.3-0.9-0.8-1C140.4,68.2,140.7,68.5,140.8,69.1z"/>
			<path class="st1" d="M136,85.7c0.3,0.1,0.5,0.3,0.7,0.5C136.5,86,136.3,85.8,136,85.7L136,85.7z"/>
			<path class="st1" d="M157,121.1c0.1-0.3,0.2-0.7,0.3-1c-0.3,1-0.8,2-1.3,2.8C156.4,122.4,156.7,121.8,157,121.1z"/>
			<path class="st1" d="M151.6,80.3c-0.8-0.5-1.8-0.5-2.5-0.2C149.9,79.8,150.9,79.9,151.6,80.3z"/>
			<path class="st1" d="M148.2,81C148.2,80.9,148.2,80.9,148.2,81C148.2,80.9,148.2,80.9,148.2,81z"/>
			<path class="st1" d="M150.9,82.1c0.5-0.1,1-0.3,1.1-0.7c0,0,0,0,0-0.1C151.8,81.7,151.4,82,150.9,82.1z"/>
			<path class="st2" d="M181.9,102.4c-0.3-2-0.8-5.9-1.2-8.6s-1.3-9.6-2.1-15.3c-0.7-5.8-1.5-11.4-1.7-12.7
				c-0.2-1.7-0.1-2.4,0.5-3.1c0.9-1,1.1-3.6,0.4-4.3c-0.3-0.3-0.4-1.3-0.3-2.4c0.2-1.4,0.1-2.1-0.4-2.6c-0.5-0.4-0.6-0.9-0.4-1.6
				c0.6-1.4-0.2-3-1.6-3.4c-0.9-0.2-1.2-0.6-1.2-1.9c0-2.1-1.3-5.7-2.6-7.4c-0.6-0.7-2.3-2-3.8-2.8c-4.5-2.4-7.4-3-16.2-3.2
				c-7.4-0.2-8.1-0.1-11,0.9c-5.9,2.1-9.5,6-11.1,11.9c-0.5,1.8-1.4,4-2,4.7c-1.3,1.5-1.9,3.3-1.4,4.1c0.2,0.3,0,1-0.4,1.5
				c-0.4,0.6-0.8,2.4-1,3.9c-0.3,2.7-0.2,2.9,0.9,3.9c1.3,0.9,1.3,1.1,1,4.3c-0.2,1.9-0.5,4.6-0.7,6s-0.8,6-1.3,10.2
				s-1.5,11.8-2.1,16.7c-0.7,5-1.4,10.7-1.6,12.7s-0.6,4-0.7,4.5c-0.5,1.3,0.6,4.5,2.1,6.1c1.6,1.8,3.3,2.6,9.3,4.3
				c14.4,4.1,24.5,4.8,35.9,2.5c8.7-1.8,12.9-4.4,15.3-9.4c1.5-3.3,1.6-3.8,0.7-10.7C182.6,108.4,182.1,104.4,181.9,102.4z
				 M128.1,55.7c1.4-1.1,1.5-1.6,0.6-2.6c-0.9-0.9-0.9-2-0.1-2c1.4,0,2.4-1.9,2.7-5.3c0.4-4.3,1.9-6.8,4.8-8.3c2-1,2.2-1,3.4-0.2
				c1.7,1,5.2,1.1,5.2,0.1c0-0.3-0.7-0.8-1.5-1.1c-1.3-0.4-1-0.5,2-0.3c1.9,0.1,4.5,0.3,5.7,0.5c1.4,0.2,2.4,0.1,2.8-0.2
				c0.4-0.4,1.5-0.5,3-0.2c2,0.2,2.3,0.4,2.1,1.2c-0.3,0.9,0.4,1.1,4,0.9c1.3-0.1,1.5,0,1.3,0.8c-0.2,0.7,0,1.1,0.9,1.4
				c1.3,0.6,2.5,3.1,2.5,5.3c0,2.1-1.3,3-5.5,3.8c-2.8,0.5-9.6,1.4-14,1.8c-0.9,0,0.6,0.1,3.3,0.2c8.3,0.1,18.2-1.3,19.2-2.9
				c0.7-1-0.8-4.7-2.6-6.6c-0.5-0.6-0.8-1.2-0.6-1.4c0.7-0.7,3.4,3.1,4,5.4c0.3,1.3,0.4,2.5,0.3,2.7c-0.5,0.7-5.9,2.3-9.8,2.8
				c-7.4,1-11.3,1.1-19.5,0.5c-11.5-0.8-11.2-0.8-11.2,0c0,1.1,6.6,1.8,17.3,1.8c10.1,0,16.1-0.6,21.4-2.3c2.7-0.9,3-0.9,4.1-0.2
				c1.2,0.7,1.3,1.6,0.3,2c-0.3,0.1-0.5-0.1-0.3-0.6c0.4-1.1-0.9-1.4-2.2-0.6c-1.3,0.9-9,2.6-11.3,2.6c-2.6,0-5.3,0.5-5.3,1
				c0,0.2,0.4,0.3,1,0.1c0.5-0.2,2.3-0.4,4-0.5c1.7,0,4.3-0.2,5.7-0.4c1.9-0.2,1.5,0-1.6,0.7c-5.6,1.2-17.4,1.7-24.4,0.9
				c-7.5-0.8-7.7-0.8-7.7,0c0,1,1.9,1.3,9.8,2c8.6,0.7,17.8,0,25.8-1.7c7.2-1.6,7.6-1.6,7.8-0.2c0.1,1.1,0.1,1.1-0.5,0.3
				c-0.6-0.8-0.7-0.8-2.5-0.1c-2.9,1.2-8.3,2.1-13.9,2.5c-5.3,0.3-8.1,1-4.6,1.2c3.9,0.1,8-0.1,11.6-0.8c2-0.4,4.5-0.8,5.3-0.9
				c3.3-0.4-2.4,1.2-6.5,1.9c-9.4,1.6-18.7,1.7-27.3,0.5c-5.3-0.8-6.3-0.7-5.3,0.4c1,1.2,8.3,2,17.8,2c9.6,0,13.4-0.4,20.8-2.4
				c4.1-1.1,4.4-1.1,5.3-0.3c0.5,0.4,0.9,1,0.9,1.2c0,0.6-5.4,2.1-10.2,3.1c-6.5,1.2-25.1,1.2-30.4,0c-3.6-0.8-7.8-2.6-8.3-3.5
				c-0.1-0.2,0.1-1.1,0.5-1.9c0.8-1.3,0.8-1.4-0.1-2.1C126.8,56.7,126.8,56.7,128.1,55.7z M173.8,58.3c-0.1,0.1-0.6,0.2-0.9,0
				c-0.4-0.1-0.2-0.3,0.3-0.3C173.7,58,174,58.1,173.8,58.3z M174.6,110c0-0.3-0.1-0.7-0.1-1c-0.2-1.6-0.3-2.9-0.4-4
				c-0.1-0.7-0.1-1.3-0.1-1.6c0-0.5,0.1-1,0.1-1.2c0.1-0.3,0.2-0.5,0.3-0.5c0,0,0.1,0,0.2,0.1l0,0l0,0c0.2,0.2,0.4,0.6,0.5,1.4
				c2.2,12.8,2.1,18-0.6,19c-2.8,1.1-8-2-8-4.6v-1.2l0.9,1.4c1.2,1.9,3.4,2.7,5.1,1.9C174.7,118.7,175.3,115.7,174.6,110z
				 M174.1,101.2c-0.8,0-1-0.4-1.3-4.1c-0.2-2.2-0.6-4.4-0.8-4.7c-0.3-0.5-0.3,0.1-0.1,1.6c0.1,1.3,0.3,6.3,0.4,11.2
				c0,7,0,9.1-0.6,9.6c-1,1.2-1.9,0.9-3.8-1.1c-2-2.2-1.9-1.7-3-17.2c-0.4-5.3-0.8-11.5-1-13.9c-0.4-5.1-0.3-5.1,3.9-2.4
				c2.8,1.8,2.9,1.9,3,4v2.2l0.2-2c0.2-2.4,1.1-2.4,1.6,0c0.4,1.9,1.6,10.1,2,14C174.9,101,174.9,101.2,174.1,101.2z M163.4,76.8
				l-0.3-4.4c-0.4-4.8-0.2-5.1,2.3-5.2c0.8,0,1.8-0.2,2.3-0.4c1.8-0.7,2-0.5,2.5,2.6c0.3,1.8,0.7,4.4,1,6c1.1,6.1,1.1,6.6,0.2,5.9
				c-0.5-0.4-0.8-1.4-0.8-2.8v-2.1l-0.2,2l-0.2,2l-3.4-1.7L163.4,76.8z M172.7,69.7c-0.2-3.1-0.1-4,0.4-4.3c1.1-0.7,1.2-0.5,1.8,2.8
				c0.7,4.4,0.7,5.5-0.3,5.8C173.4,74.5,173,73.8,172.7,69.7z M147.1,75.1l4.6,0.2c2.6,0,4.8,0.3,5.1,0.6c0.5,0.5,0.7,5,1.5,29.8
				c0.3,8.7,0.3,16.6,0.1,17.5c-0.4,2.1-1.3,2.6-4.5,2.6c-3.3,0-5.7-1.4-7.8-4.4c-1.5-2.3-1.5-2.4-1.3-6.3c0.1-2.2,0.6-10.7,1-19.1
				c0.4-8.3,0.9-16.5,1-18L147.1,75.1z M147,74.2v-2.6c0-1.5,0.1-2.8,0.3-3s2.4-0.2,5-0.2l4.7,0.1v3c0,2.4-0.1,3-0.7,2.9
				c-0.4-0.1-2.6-0.1-5-0.1L147,74.2z M138.8,83.2c0.5,0.1,0.8,0.3,0.9,0.6c0.1,1.2-0.7,16.5-1.3,25.8c-0.7,11-1.1,12.3-3.1,12.8
				c-1.7,0.4-5.9-1.2-7-2.7l-0.9-1.3l1-8.5c0.6-4.6,1.4-11.5,1.8-15.2c1.3-11.5,1.3-11.8,2-12.1c0.1,0,0.2-0.1,0.4-0.2
				c0.7-0.4,1.9-1,3-1.5c0.2-0.1,0.4-0.2,0.5-0.3c1.8-0.9,3.4-1.6,3.6-1.6c0.2,0,0.3,0.5,0.3,1.1c0,1-0.2,1.2-1.8,1.2
				c-1.2,0-1.9,0.2-2.1,0.7C135.9,82.6,136.3,82.8,138.8,83.2z M139.9,77.3c-0.4,0.6-5.4,3.1-7.3,3.7l-1.1,0.3l0.3-2.9
				c0.1-1.6,0.5-4.8,0.8-7.1l0.6-4.1l2.8,0.3c0.1,0,0.2,0,0.3,0c1.8,0.2,2.9,0.2,3.5,0.5c0.5,0.1,0.8,0.2,0.8,1
				c0.1,0.7,0,1.8-0.1,3.5C140.5,74.9,140.2,77.1,139.9,77.3z M180.9,122.4c-1.3,3.3-6,5.5-15.3,6.9c-8.9,1.4-18.5,0.7-29.9-2.3
				c-7.4-2-10.1-3.1-11.9-5.3s-2-3.6-1.2-9.1c0.7-4.6,2-15,3.3-25.1c1.1-9.2,2.6-20.5,2.8-21.1c0.1-0.3,0.4-0.6,0.6-0.6
				c0.2,0,0.7,0.3,1.1,0.6c0.7,0.6,0.7,1.3-0.1,8.7c-0.5,4.5-1.1,9.7-1.3,11.6c-0.3,1.9-0.6,4.9-0.7,6.7c-0.4,4.3-2,18.5-2.6,23.3
				c-0.6,4.5-0.2,5.6,2.9,7.1c5.1,2.6,9.8-0.2,11.3-6.8c0.4-1.5,0.9-8,1.2-14.5s0.7-14.3,1-17.2c0.2-2.9,0.6-8,0.7-11.3
				c0.1-5.8,0.1-5.8,1.3-5.8h1.1l-0.3,5.2c-0.1,2.9-0.7,12.9-1.2,22.2c-1.3,22.9-1.3,25.9-0.4,27.7c1.7,3.1,5.5,5.3,9.2,5.3
				c2.3,0,5.3-1.7,6.5-3.8c1.9-3.1,2-4.8,1.2-24.9c-1-25.6-1.1-31.5-0.5-31.7c0.6-0.3,0.9,2.5,1.6,13.7c0.3,4.3,0.7,10.1,1,12.8
				c0.3,2.7,0.7,8,0.9,11.9c0.9,13.7,1,14.1,2.2,15.6c1.6,1.9,3.5,2.8,6,2.9c2,0,2.3-0.1,4.1-2.3c3.8-4.3,4-7.6,1.9-21.1
				c-0.6-4-1.3-9.3-1.5-11.8c-0.2-2.8-0.6-4.8-0.9-5.2c-0.9-0.9-1.4-9-0.7-9.5c0.4-0.2,0.8-0.4,0.9-0.4c0.5,0,0.8,3.9,0.4,4.7
				c-0.2,0.5-0.4,1.7-0.4,2.8c0,1.1,0.1,1.6,0.3,1.1c0.6-2.3,0.9-1.2,1.7,4.7c0.5,3.5,1.2,9.3,1.7,12.7
				C181.4,117.3,181.6,120.5,180.9,122.4z"/>
			<path class="st2" d="M147.1,39.6c2,0.5,4.6-0.3,3.7-1.2c-0.6-0.6-3.7-0.9-4.9-0.6C144.6,38.2,145.3,39.1,147.1,39.6z"/>
			<path class="st2" d="M154.4,39.4c2.1,0,3.7-0.8,3-1.5c-0.4-0.4-4.6-0.4-4.9,0C151.5,38.8,152.3,39.4,154.4,39.4z"/>
			<path class="st2" d="M138.2,40.8c2.7,0,2.8-1.3,0.3-2.3c-1.9-0.7-3.1-0.7-3.4,0.2C134.6,39.9,136.1,40.8,138.2,40.8z"/>
			<path class="st2" d="M158.2,40c-0.5,0.3-0.7,0.6-0.7,1.1c0,0.8,0.3,0.9,2,0.9c1.1,0,2.3-0.3,2.7-0.7c0.7-0.6,0.7-0.7,0-1.3
				c-0.5-0.4-1.2-0.5-1.8-0.5c-0.4,0-0.9,0.1-1.6,0.3C158.5,39.9,158.3,39.9,158.2,40z"/>
			<path class="st2" d="M141.6,41.5c0.5,0.8,2.4,1.4,3.9,1.1l0,0c0.1,0,0.1,0,0.2,0c0.6-0.2,1.1-0.4,1.2-0.8c0.1-0.5-0.3-1-1.2-1.4
				c-0.3-0.1-0.7-0.2-1-0.3c-0.8-0.1-1.7-0.1-2.5,0.1h-0.1c-0.2,0.1-0.4,0.2-0.5,0.4C141.4,40.9,141.4,41.2,141.6,41.5z"/>
			<path class="st2" d="M154.4,42.5c1.2-0.6,1.3-1.1,0.1-1.7c-0.1,0-0.2-0.1-0.3-0.1c-0.6-0.2-1.4-0.3-2.2-0.3
				c-0.8,0.1-1.5,0.3-2,0.5c-1,0.8-0.6,1.6,1.2,1.9c0.1,0,0.1,0,0.2,0c0.2,0,0.4,0,0.6,0C152.8,43,153.7,42.8,154.4,42.5z"/>
			<path class="st2" d="M153.4,80.5c1.4,0.3,2.6-0.2,2.4-1.1c-0.2-0.4-0.9-0.8-1.9-0.9c-1.4-0.1-1.7,0-1.7,0.7
				C152.1,79.9,152.7,80.3,153.4,80.5z"/>
			<path class="st2" d="M148.2,81.1L148.2,81.1c0,0.1,0,0.1,0,0.2c0.2,0.5,1,0.9,2.1,0.9c0.1,0,0.2,0,0.2,0c0.1,0,0.2,0,0.3,0
				c0.5-0.1,0.9-0.4,1.1-0.7c0.1-0.4,0-0.9-0.4-1.1c-0.7-0.4-1.7-0.5-2.5-0.2l0,0c-0.1,0-0.2,0.1-0.3,0.2l0,0
				c-0.1,0.1-0.2,0.1-0.2,0.2l0,0l-0.1,0.1l0,0c-0.1,0.1-0.1,0.2-0.1,0.3l0,0v0.1C148.2,81,148.2,81,148.2,81.1z"/>
			<path class="st2" d="M153,83.9c-1.9,0.5-0.6,2,1.8,2c1,0,2-1.1,1.5-1.6C155.9,83.9,153.7,83.7,153,83.9z"/>
			<path class="st2" d="M146.5,118.5c0,1.6,1.6,4.8,2.8,5.7c1.2,0.8,3,0.9,4.6,0.2c0.8-0.4,1.4-0.9,2-1.6c0.6-0.8,1-1.7,1.3-2.8
				c0.2-1,0.4-2.1,0.3-2.9l-0.1-1.8l-1.2,2.1c-2,3.6-4.9,4-8.4,1.1l-1.4-1.2L146.5,118.5L146.5,118.5z"/>
			<path class="st2" d="M169.3,83.5c0-0.2-0.6-0.7-1.2-0.9c-0.3-0.1-0.5-0.2-0.7-0.3h-0.1c-0.6-0.2-0.9-0.1-1.5,0.2l0,0
				c-0.3,0.2-0.5,0.5-0.6,0.7c0,0.4,0.3,0.8,0.9,1C167.1,84.6,169.3,84.1,169.3,83.5z"/>
			<path class="st2" d="M168.4,89.1c0.1,0,0.3,0,0.4,0c0.7-0.1,1.2-0.4,1.2-0.8c0-0.1,0-0.2-0.1-0.3c-0.2-0.3-0.8-0.5-1.6-0.6
				c-1.1-0.1-1.9,0.2-2.1,0.5c-0.1,0.2-0.1,0.3,0,0.4c0,0.1,0.1,0.2,0.1,0.3C166.6,89,167.4,89.2,168.4,89.1z"/>
			<ellipse class="st2" cx="171.6" cy="89.8" rx="0.5" ry="0.7"/>
			<path class="st2" d="M136,85.7c-0.8-0.3-1.8-0.2-2.5,0.1c-0.1,0.1-0.2,0.1-0.3,0.2c-0.8,0.8-0.7,1.2,0.7,1.5h0.1
				c0.3,0.1,0.7,0.1,1.1,0.1c0.6,0,1.1-0.1,1.4-0.4c0.4-0.3,0.5-0.7,0.3-1.1C136.5,86,136.2,85.8,136,85.7z"/>
			<path class="st2" d="M132,116.2l-1-1c-1.3-1.3-1.5-1.2-1.8,0.6c-0.4,2,0.4,4.2,1.9,5c1,0.6,1.3,0.5,2.4-0.3
				c2.8-2.1,3.1-3.3,3.7-15.8c0.3-6.3,0.5-11.6,0.4-11.7s-0.3,0.8-0.4,2c-0.7,7.9-2.9,17.8-4.4,20L132,116.2z"/>
			<path class="st3" d="M127.7,57.4c0.9,0.7,0.9,0.7,0.1,2.1c-0.4,0.8-0.7,1.6-0.5,1.9c0.6,0.9,4.7,2.6,8.3,3.5
				c5.3,1.2,24,1.3,30.4,0c4.8-0.9,10.2-2.5,10.2-3.1c0-0.2-0.4-0.7-0.9-1.2c-0.8-0.8-1.1-0.7-5.3,0.3c-7.4,2-11.2,2.4-20.8,2.4
				c-9.5,0-16.8-0.8-17.8-2c-0.9-1.2,0-1.3,5.3-0.4c8.6,1.3,17.9,1.1,27.3-0.5c4.1-0.7,9.8-2.3,6.5-1.9c-0.9,0.1-3.3,0.6-5.3,0.9
				c-3.6,0.7-7.8,0.9-11.6,0.8c-3.5-0.1-0.7-0.8,4.6-1.2c5.5-0.3,10.9-1.3,13.9-2.5c1.8-0.7,1.9-0.7,2.5,0.1
				c0.7,0.8,0.7,0.8,0.5-0.3c-0.2-1.4-0.7-1.4-7.8,0.2c-7.9,1.8-17.1,2.4-25.8,1.7c-7.9-0.6-9.8-1-9.8-2c0-0.7,0.2-0.7,7.7,0
				c7,0.7,18.8,0.3,24.4-0.9c3.2-0.7,3.5-0.8,1.6-0.7c-1.4,0.2-4,0.4-5.7,0.4c-1.7,0.1-3.5,0.3-4,0.5c-0.6,0.1-1,0.1-1-0.1
				c0-0.5,2.6-1,5.3-1c2.4,0,10-1.8,11.3-2.6c1.3-0.8,2.6-0.5,2.2,0.6c-0.2,0.5,0,0.7,0.3,0.6c1-0.4,0.9-1.3-0.3-2
				c-1.1-0.7-1.3-0.7-4.1,0.2c-5.3,1.7-11.3,2.4-21.4,2.3c-10.8,0-17.3-0.7-17.3-1.8c0-0.8-0.4-0.8,11.2,0
				c8.2,0.6,12.1,0.5,19.5-0.5c4-0.5,9.3-2,9.8-2.8c0.1-0.3,0-1.5-0.3-2.7c-0.6-2.3-3.3-6.1-4-5.4c-0.2,0.2,0.1,0.8,0.6,1.4
				c1.8,1.9,3.2,5.6,2.6,6.6c-1,1.5-10.8,3-19.2,2.9c-2.7,0-4.1-0.1-3.3-0.2c4.4-0.4,11.2-1.3,14-1.8c4.2-0.8,5.5-1.7,5.5-3.8
				c0-2.3-1.2-4.7-2.5-5.3c-0.8-0.4-1.1-0.8-0.9-1.4c0.2-0.8,0-0.9-1.3-0.8c-3.6,0.2-4.3,0-4-0.9c0.2-0.7-0.1-0.9-2.1-1.2
				c-1.5-0.2-2.6-0.1-3,0.2c-0.4,0.3-1.4,0.4-2.8,0.2c-1.3-0.2-3.8-0.4-5.7-0.5c-3-0.1-3.3-0.1-2,0.3c0.8,0.3,1.5,0.8,1.5,1.1
				c0,0.9-3.5,0.8-5.2-0.1c-1.3-0.7-1.4-0.7-3.4,0.2c-2.9,1.4-4.4,4-4.8,8.3c-0.3,3.4-1.3,5.3-2.7,5.3c-0.8,0-0.8,1.2,0.1,2
				c1,1,0.9,1.5-0.6,2.6C126.8,56.7,126.8,56.7,127.7,57.4z M152,43c-0.2,0-0.4,0-0.6,0c-0.9-0.1-1.6-0.4-1.9-0.8
				c-0.3-0.4,0-0.8,0.5-1.1c0.5-0.3,1.2-0.5,2-0.5c0.7-0.1,1.5,0,2.2,0.3c0.1,0,0.2,0.1,0.3,0.1c1.2,0.6,1.1,1.1-0.1,1.7
				c-0.1,0.1-0.2,0.1-0.4,0.2C153.4,42.9,152.7,43,152,43z M160.2,39.5c0.7,0,1.4,0.2,1.8,0.5c0.7,0.6,0.8,0.7,0,1.3
				c-0.4,0.3-1.6,0.7-2.7,0.7c-1.6,0-2-0.1-2-0.9c0-0.4,0.3-0.8,0.7-1.1C158.7,39.7,159.5,39.5,160.2,39.5z M152.4,37.9
				c0.4-0.4,4.6-0.4,4.9,0c0.7,0.7-0.8,1.5-3,1.5C152.3,39.4,151.5,38.8,152.4,37.9z M145.9,37.9c1.2-0.4,4.4,0,4.9,0.6
				c0.8,0.8-1.8,1.7-3.7,1.2C145.3,39.1,144.6,38.2,145.9,37.9z M141.6,40.6c0.1-0.2,0.3-0.3,0.5-0.4c0.6-0.3,1.6-0.4,2.6-0.2
				c0.4,0.1,0.7,0.2,1,0.3c0.9,0.3,1.3,0.9,1.2,1.4c-0.1,0.3-0.3,0.5-0.7,0.7c-0.2,0.1-0.4,0.1-0.5,0.2c-0.1,0-0.1,0-0.2,0l0,0
				c-1.6,0.3-3.4-0.2-3.9-1.1c-0.1-0.1-0.1-0.3-0.1-0.5C141.4,40.9,141.5,40.8,141.6,40.6z M135.1,38.8c0.3-0.9,1.6-1,3.4-0.2
				c2.6,1,2.4,2.3-0.3,2.3C136.1,40.8,134.6,39.9,135.1,38.8z"/>
			<path class="st3" d="M173.2,58.1c-0.5,0-0.7,0.1-0.3,0.3c0.3,0.1,0.7,0.1,0.9,0C174,58.1,173.7,58,173.2,58.1z"/>
			<path class="st3" d="M174.9,68.2c-0.6-3.3-0.7-3.5-1.8-2.8c-0.5,0.3-0.6,1.2-0.4,4.3c0.3,4.1,0.7,4.8,1.9,4.3
				C175.5,73.7,175.6,72.6,174.9,68.2z"/>
			<path class="st3" d="M177.4,88.1c-0.8-6-1.2-7-1.7-4.7c-0.1,0.5-0.2,0-0.3-1.1c0-1.1,0.1-2.4,0.4-2.8c0.5-0.8,0.1-4.7-0.4-4.7
				c-0.1,0-0.6,0.2-0.9,0.4c-0.8,0.5-0.3,8.6,0.7,9.5c0.4,0.4,0.7,2.4,0.9,5.2c0.2,2.5,0.9,7.9,1.5,11.8c2.2,13.5,1.9,16.8-1.9,21.1
				c-1.9,2.1-2.1,2.3-4.1,2.3c-2.5,0-4.5-1-6-2.9c-1.3-1.5-1.3-2-2.2-15.6c-0.3-3.9-0.7-9.2-0.9-11.9c-0.2-2.7-0.7-8.5-1-12.8
				c-0.7-11.2-1-14-1.6-13.7s-0.5,6.2,0.5,31.7c0.8,20.1,0.7,21.8-1.2,24.9c-1.3,2.1-4.2,3.8-6.5,3.8c-3.7,0-7.5-2.3-9.2-5.3
				c-0.9-1.7-0.9-4.7,0.4-27.7c0.5-9.3,1-19.3,1.2-22.2l0.3-5.2h-1.1c-1.2,0-1.2,0-1.4,5.9c-0.2,3.3-0.5,8.4-0.7,11.3
				s-0.7,10.7-1,17.2c-0.3,6.6-0.8,13.1-1.2,14.5c-1.6,6.6-6.2,9.4-11.3,6.8c-3.1-1.5-3.5-2.6-2.9-7.1c0.7-4.8,2.3-19.1,2.6-23.3
				c0.1-1.8,0.5-4.8,0.7-6.7c0.3-1.9,0.9-7.2,1.3-11.6c0.8-7.4,0.8-8.2,0.1-8.7c-0.4-0.3-0.9-0.6-1.1-0.6c-0.2,0-0.5,0.3-0.6,0.6
				c-0.2,0.6-1.7,11.9-2.8,21.1c-1.3,10.1-2.6,20.5-3.3,25.1c-0.8,5.5-0.6,6.9,1.2,9.1c1.8,2.2,4.5,3.3,11.9,5.3
				c11.4,2.9,21,3.7,29.9,2.3c9.3-1.4,14-3.6,15.3-6.9c0.7-2,0.5-5.2-1.8-21.7C178.6,97.3,177.9,91.6,177.4,88.1z"/>
			<path class="st3" d="M170.2,80.3l0.2-2l0.2-2v2.1c0,1.3,0.4,2.4,0.8,2.8c0.8,0.7,0.8,0.3-0.2-5.9c-0.3-1.5-0.7-4.2-1-6
				c-0.5-3.2-0.7-3.4-2.5-2.6c-0.5,0.2-1.5,0.4-2.3,0.4c-2.5,0.1-2.6,0.4-2.3,5.2l0.3,4.4l3.4,1.7L170.2,80.3z"/>
			<path class="st3" d="M140.8,69.1c-0.1-0.5-0.3-0.8-0.8-1c-0.7-0.2-1.7-0.3-3.5-0.5c-0.1,0-0.2,0-0.3,0l-2.8-0.3l-0.6,4.1
				c-0.3,2.2-0.7,5.4-0.8,7.1l-0.3,2.9l1.1-0.3c1.9-0.6,6.9-3.1,7.3-3.7c0.2-0.3,0.6-2.5,0.7-4.8C140.8,70.8,140.9,69.8,140.8,69.1z
				"/>
			<path class="st3" d="M156.4,74.4c0.5,0.1,0.7-0.5,0.7-2.9v-3l-4.7-0.1c-2.6,0-4.8,0-5,0.2s-0.3,1.5-0.3,3v2.6h4.3
				C153.7,74.2,156,74.3,156.4,74.4z"/>
			<path class="st3" d="M145.8,96.1c-0.4,8.3-0.9,16.9-1,19.1c-0.2,3.9-0.2,4,1.3,6.3c2,3,4.5,4.4,7.8,4.4c3.2,0,4.1-0.5,4.5-2.6
				c0.2-0.9,0.1-8.8-0.1-17.5c-0.8-24.8-1-29.3-1.5-29.8c-0.3-0.3-2.5-0.6-5.1-0.6l-4.6-0.2l-0.3,3
				C146.7,79.7,146.2,87.8,145.8,96.1z M154.7,85.9c-2.4,0-3.7-1.5-1.8-2c0.7-0.2,2.9,0,3.3,0.4C156.8,84.8,155.7,85.9,154.7,85.9z
				 M153.8,78.6c1.2,0.1,1.8,0.4,1.9,0.9l0,0c0.2,0.9-1,1.4-2.4,1.1h-0.1c-0.7-0.2-1.1-0.6-1.1-1.2
				C152.1,78.6,152.4,78.4,153.8,78.6z M148.2,80.8c0-0.1,0.1-0.2,0.1-0.3l0,0l0.1-0.1l0,0c0.1-0.1,0.2-0.1,0.2-0.2l0,0
				c0.1-0.1,0.2-0.1,0.3-0.2l0,0c0.7-0.3,1.7-0.3,2.5,0.2c0.4,0.2,0.5,0.7,0.4,1.1c0,0,0,0,0,0.1c-0.1,0.4-0.6,0.6-1.1,0.7
				c-0.1,0-0.2,0-0.3,0c-0.8,0.1-1.7-0.1-2.1-0.6c-0.1-0.1-0.2-0.2-0.2-0.3v-0.1V81v-0.1C148.2,80.9,148.2,80.9,148.2,80.8
				C148.2,80.9,148.2,80.8,148.2,80.8z M147.9,118.6c3.4,2.9,6.3,2.6,8.4-1.1l1.2-2.1l0.1,1.8c0.1,0.7-0.1,1.9-0.3,2.9
				c-0.1,0.4-0.2,0.7-0.3,1c-0.3,0.7-0.6,1.2-1,1.7c-0.6,0.7-1.3,1.2-2,1.6c-1.5,0.7-3.2,0.7-4.6-0.2c-1.2-0.9-2.8-4-2.8-5.7v-1.1
				L147.9,118.6z"/>
			<path class="st3" d="M172.6,84.5c-0.5-2.4-1.3-2.3-1.6,0l-0.2,2v-2.2c-0.1-2.2-0.1-2.2-3-4c-4.2-2.7-4.3-2.6-3.9,2.4
				c0.2,2.4,0.6,8.6,1,13.9c1.1,15.5,1,15,3,17.2c1.9,2,2.8,2.3,3.8,1.1c0.5-0.6,0.6-2.6,0.6-9.6c-0.1-4.9-0.2-9.9-0.4-11.2
				c-0.2-1.5-0.1-2.1,0.1-1.6c0.2,0.4,0.6,2.5,0.8,4.7c0.3,3.7,0.4,4.1,1.3,4.1c0.8,0,0.9-0.2,0.6-2.7
				C174.2,94.7,173,86.4,172.6,84.5z M165.2,83.2c0-0.3,0.2-0.5,0.6-0.7c0.2-0.1,0.5-0.2,0.9-0.3c0.1,0,0.4,0,0.7,0.1h0.1
				c0.2,0.1,0.5,0.2,0.7,0.3c0.7,0.2,1.2,0.7,1.2,0.9c0,0.6-2.2,1.1-3.3,0.7C165.4,84.1,165.1,83.6,165.2,83.2z M166.4,88.8
				c-0.1-0.1-0.1-0.1-0.1-0.2c-0.1-0.1-0.1-0.2-0.1-0.3c0-0.2,0-0.3,0-0.4c0.2-0.4,1-0.6,2.1-0.5c0.9,0.1,1.5,0.3,1.6,0.6
				c0,0.1,0.1,0.2,0.1,0.3c0,0.4-0.5,0.6-1.2,0.8C167.9,89.2,166.8,89.2,166.4,88.8z M171.6,90.5c-0.2,0-0.5-0.3-0.5-0.7
				s0.2-0.7,0.5-0.7s0.5,0.3,0.5,0.7S171.9,90.5,171.6,90.5z"/>
			<path class="st3" d="M138.2,81.2c1.6,0,1.8-0.1,1.8-1.2c0-0.7-0.1-1.2-0.3-1.1c-0.2,0-1.8,0.7-3.6,1.6c-0.2,0.1-0.4,0.2-0.5,0.3
				c-1.2,0.6-2.4,1.2-3,1.5c-0.2,0.1-0.3,0.2-0.4,0.2c-0.7,0.4-0.8,0.7-2,12.1c-0.4,3.7-1.2,10.6-1.8,15.2l-1,8.5l0.9,1.3
				c1.1,1.5,5.3,3.1,7,2.7c2-0.5,2.4-1.8,3.1-12.8c0.7-9.3,1.4-24.6,1.3-25.8c0-0.3-0.4-0.5-0.9-0.6c-2.5-0.4-2.9-0.6-2.6-1.3
				C136.3,81.5,137.1,81.2,138.2,81.2z M137.5,93c0.1,0.1,0,5.3-0.4,11.7c-0.6,12.5-0.9,13.7-3.7,15.8c-1.1,0.8-1.4,0.9-2.4,0.3
				c-1.4-0.7-2.2-2.9-1.9-5c0.3-1.8,0.5-1.9,1.8-0.6l1,1l0.7-1.1c1.5-2.3,3.7-12.2,4.4-20C137.2,93.8,137.4,92.9,137.5,93z
				 M136.6,86.2c0.2,0.4,0.1,0.8-0.3,1.1c-0.1,0.1-0.3,0.2-0.5,0.3c-0.2,0.1-0.6,0.1-0.9,0.1c-0.3,0-0.7,0-1.1-0.1
				c-0.7-0.1-1.3-0.4-1.3-0.6c0-0.5,0.4-0.9,0.9-1.1c0.7-0.3,1.6-0.4,2.5-0.1h0.1C136.3,85.8,136.5,86,136.6,86.2z"/>
			<path class="st3" d="M172.5,119.7c-1.7,0.8-4,0-5.1-1.9l-0.9-1.4v1.2c0,2.7,5.2,5.7,8,4.6c2.7-1,2.8-6.2,0.6-19
				c-0.1-0.7-0.3-1.2-0.5-1.4l0,0l0,0c-0.2-0.1-0.4,0-0.5,0.4c-0.1,0.3-0.1,0.7-0.1,1.2c0,0.3,0.1,0.9,0.1,1.6
				c0.1,1.1,0.2,2.5,0.4,4c0,0.3,0.1,0.7,0.1,1C175.3,115.7,174.7,118.7,172.5,119.7z"/>
		</g>
		<g>
			<path class="st4" d="M72.5,72.1c6.2,13.6-5.7,26.2,0.4,39.4s26.4,6.6,23.7-4.5c-2-8.4-10.1-3.5-8.8,0.5c0.7,2.3-1.9,4.1-3.1,1.4
				c-1.9-4.1-0.8-9.5,4.3-11.8c13.5-6.2,30.1,19.9,1.8,32.9c-29.4,13.5-56.7-25-54-47.5c2.7-22.7,15.5-20,17.9-20.3
				C57,61.9,72.5,72.1,72.5,72.1z"/>
			<path class="st5" d="M56,82.7c0.2-1,8.1-3.3,8.4-4.3c0.3-0.9,0.2-4.8,1.2-5.2c0.9-0.4,5.8,6,4.3,7.9c-1.6,1.9-4.9,6.3-4.5,7.1
				c0.4,0.8,4.7-1.2,5.1-0.5c0.1,0.2,0.7,0.8,0.5,1.7c-1.1,3.4-6,14.1-4.8,16.7c0.2,0.5,5.3,7.4,5,8.2s-1.1,2.8-0.5,2.9
				c0.7,0.1,3,0.8,3.4,1.1s0.2,0.1,1,0.8c0.8,0.6,0.1,5,1.2,5.1s4.7-2,5.6-2.1c1.6-0.1,4.9-0.1,5.6-0.3c1.1-0.3,5-3.1,6.8-3.5
				c1.9-0.4-2,1.8-3,3c-1.1,1.2-3.2,2.8-4.1,3.3c-2.6,1.2-3.1-0.9-4.6-0.4c-1.6,0.5-6.2,3-7.1,2.7c-1.8-0.7-1.3-2.9-2.8-3.1
				c-1.5-0.2-2.7,1.1-3.3-0.5c-0.6-1.6-3.4-3.3-3.6-4.2c-0.3-0.9,1.3-2.7,0.5-3.1c-0.8-0.4-2.9-0.5-3.6-1.5s-8.2-12.1-7.7-13.3
				c0.6-1.3,5.9-1.8,6.2-2.6c0.3-0.8-4-1.6-3.9-3s0-2.3-0.6-5.9C56.3,87.3,56.1,85,56,82.7L56,82.7z"/>
			<path class="st6" d="M52.5,70.2c1.7,0.5,4.7,6.8,6.3,6.4c1.2-0.3,2.5-7.3,3.7-7.9c3.4-1.5,8.9,6.9,11.6,5.7c0,0-2.9-8.5-8.1-11.1
				c-5.2-2.5-8.8-1.9-11.2-6.8c-1-2-1.6-6.5-3.7-10c0.2,1,0.1,2.6,0,3.6c-0.4,4-5,11.7-5,13.2c0.1,1.5,1.4,12.7,1.7,15.3
				C49.3,78.3,51,69.8,52.5,70.2z"/>
			<path class="st7" d="M49,65.5c1.6-3,2.5-3.7,2.5-4.5s0.8-7.7,0.9-11.1c0-0.9-1.2-2.4-1.4-3.4c-3-5.1-8.7-9.7-18.1-5.6
				c-2.7,1.2-4.9,4.2-4.9,4.2c-2.3,3.2-3.4,7.8-1.9,11.9c0.4,1.2,1.8,2,3.3,1.9c1.3,0,2.5-0.6,3.3-1.6l0.1-0.1
				c0.6-0.7,0.7-1.2,0.5-1.8c-0.1-0.5-0.5-0.9-0.9-1.3c-0.8-0.8-1.8-1.7-2.6-2.9c-0.1-0.2-0.3-0.4-0.4-0.7c0.3-0.6,1.6-4.3,4.7-5.8
				c5.5-2.7,9.2-1.4,11.9,4.4c4.5,9.7-11.8,20.2-8.9,29.5c0.6,1.9,4.5-7.1,6.2-6.9s2.6,7.1,4.4,6.9l0,0C47.5,76,46.1,70.9,49,65.5z"
				/>
		</g>
	</g>
	<g>
		<path d="M23.9,146.7c0-3.9,1-6.7,2.9-8.4c2-1.7,5.1-2.6,9.5-2.6c3.1,0,5.6,0.8,7.4,2.4c1.9,1.6,3.2,4,4.1,7.3l-5.6,4.2h-2.9
			l6.5-4.9c-0.8-2.7-2.1-4.6-3.6-5.6c-1.6-1.1-3.5-1.6-5.8-1.6c-1.6,0-3,0.1-4.1,0.3c-1.1,0.2-2.2,0.6-3.3,1.2
			c-1.1,0.6-1.9,1.5-2.5,2.8c-0.6,1.3-0.8,2.9-0.8,4.9c0,1.8,0.8,3.3,2.4,4.7c1.6,1.4,3.6,2.5,5.9,3.5c2.3,1,4.7,1.9,7,2.9
			s4.3,2.3,5.9,3.8c1.6,1.6,2.4,3.4,2.4,5.4c0,4-1,7-3,8.9s-5.4,2.9-10.2,2.9c-3.9,0-7-0.8-9.2-2.4c-2.2-1.6-3.8-4-4.6-7.4l1.7-0.7
			c0.8,3.2,2.2,5.5,4.1,6.8c1.9,1.3,4.6,1.9,8.1,1.9c3.8,0,6.7-0.7,8.5-2.2c1.9-1.5,2.8-4.1,2.8-7.9c0-1.8-0.8-3.3-2.4-4.7
			c-1.6-1.4-3.6-2.5-5.9-3.5c-2.3-1-4.7-1.9-7-2.9c-2.3-1-4.3-2.3-5.9-3.8C24.7,150.5,23.9,148.7,23.9,146.7z"/>
		<path d="M73.5,165.3l-0.9-1.6l3.4-1.9c2.8-1.5,4.1-3.9,4.1-7.3c0-6.2-4.7-9.3-14.2-9.3h-5.5v45h-1.8v-46.8h7.3
			c5.3,0,9.3,1,11.9,2.9c2.7,1.9,4,4.7,4,8.2c0,4-1.7,6.9-5,8.8L73.5,165.3z"/>
		<path d="M90.3,143.5h1.8v34.8h-1.8V143.5z"/>
		<path d="M105.3,174.6c-2.2-2.8-3.2-7.4-3.2-13.7c0-6.3,1.1-10.9,3.2-13.7c2.2-2.8,5.7-4.3,10.7-4.3s8.6,1.4,10.8,4.1l-1.3,1.2
			c-1.8-2.4-4.9-3.5-9.5-3.5c-2,0-3.7,0.2-5,0.6s-2.6,1.2-3.8,2.3c-1.1,1.1-2,2.8-2.5,5c-0.6,2.2-0.8,4.9-0.8,8.2
			c0,3.3,0.3,6.1,0.8,8.2c0.6,2.2,1.4,3.8,2.5,5c1.1,1.1,2.4,1.9,3.8,2.3s3,0.6,5,0.6c4.6,0,7.7-1.2,9.5-3.5l1.3,1.2
			c-2.2,2.8-5.8,4.1-10.8,4.1S107.4,177.5,105.3,174.6z"/>
		<path d="M159,174.8c-2.2,2.8-5.8,4.1-10.8,4.1s-8.6-1.4-10.7-4.3c-2.2-2.8-3.2-7.4-3.2-13.7c0-6.3,1.1-10.9,3.2-13.7
			c2.2-2.8,5.7-4.3,10.7-4.3c5.8,0,9.7,1.9,11.8,5.7l-14.7,12.3h-2.8l15.2-12.7c-1.8-2.4-4.9-3.5-9.5-3.5c-2,0-3.7,0.2-5,0.6
			c-1.4,0.4-2.6,1.2-3.8,2.3c-1.1,1.1-2,2.8-2.5,5c-0.6,2.2-0.8,4.9-0.8,8.2c0,3.3,0.3,6.1,0.8,8.2c0.6,2.2,1.4,3.8,2.5,5
			c1.1,1.1,2.4,1.9,3.8,2.3c1.4,0.4,3,0.6,5,0.6c4.6,0,7.7-1.2,9.5-3.5L159,174.8z"/>
		<path d="M177.8,142.8c5,0,8.5,1.1,10.6,3.3l-1.2,1.3c-1.9-1.9-5-2.8-9.1-2.8c-6.2,0-9.4,2.5-9.4,7.4c0,1.9,0.8,3.5,2.3,4.6
			c1.5,1.1,3.4,2,5.6,2.6c2.2,0.6,4.4,1.2,6.5,1.9c2.2,0.7,4,1.7,5.5,3.2c1.5,1.5,2.3,3.4,2.3,5.7c0,2.8-1.1,5-3.4,6.6
			c-2.3,1.6-5.6,2.5-9.9,2.5c-2.1,0-4.2-0.3-6.3-0.8c-2.1-0.6-3.6-1.4-4.6-2.5l1.2-1.3c2,1.9,5.2,2.8,9.4,2.8c3.9,0,6.8-0.7,8.8-2.2
			c2-1.4,3-3.1,3-5c0-2-0.8-3.6-2.3-4.9c-1.5-1.2-3.4-2.2-5.6-2.8c-2.2-0.6-4.4-1.3-6.5-1.9c-2.2-0.7-4-1.7-5.5-3.1
			c-1.5-1.4-2.3-3.2-2.3-5.5c0-3.1,1-5.4,3.1-6.9C172,143.5,174.6,142.8,177.8,142.8z"/>
	</g>
</g>
</svg>
