<?xml version="1.0" encoding="UTF-8" standalone="no"?>
<!-- Generator: Adobe Illustrator 25.0.1, SVG Export Plug-In . SVG Version: 6.00 Build 0)  -->

<svg
   version="1.1"
   id="svg2"
   x="0px"
   y="0px"
   viewBox="0 0 213.3 213.3"
   style="enable-background:new 0 0 213.3 213.3;"
   xml:space="preserve"
   sodipodi:docname="logo.svg"
   inkscape:version="1.2.1 (9c6d41e, 2022-07-14)"
   xmlns:inkscape="http://www.inkscape.org/namespaces/inkscape"
   xmlns:sodipodi="http://sodipodi.sourceforge.net/DTD/sodipodi-0.dtd"
   xmlns="http://www.w3.org/2000/svg"
   xmlns:svg="http://www.w3.org/2000/svg"><defs
   id="defs1305" />
<style
   type="text/css"
   id="style1137">
	.st0{fill:#5DA649;}
	.st1{fill:none;}
	.st2{fill:#2D2B2B;}
	.st3{fill:#FFFFFF;}
	.st4{fill:#BA2025;}
	.st5{fill:#EEA794;}
	.st6{fill:#6BB87C;}
	.st7{fill:#108C55;}
</style>
<sodipodi:namedview
   bordercolor="#666666"
   borderopacity="1.0"
   id="base"
   inkscape:current-layer="svg2"
   inkscape:cx="81.785714"
   inkscape:cy="102.5"
   inkscape:document-units="px"
   inkscape:pageopacity="0.0"
   inkscape:pageshadow="2"
   inkscape:window-height="1387"
   inkscape:window-maximized="0"
   inkscape:window-width="2004"
   inkscape:window-x="0"
   inkscape:window-y="25"
   inkscape:zoom="1.4"
   pagecolor="#ffffff"
   showgrid="false"
   units="px"
   inkscape:showpageshadow="2"
   inkscape:pagecheckerboard="0"
   inkscape:deskcolor="#d1d1d1">
	</sodipodi:namedview>

<path
   class="st2"
   d="m 109.34807,152.72611 c -0.32526,-0.50218 -0.86764,-0.75467 -1.47529,-0.75688 -0.53169,-0.001 -1.05268,0.24665 -1.41461,0.66285 l -8.408442,11.15848 19.358032,-0.17992 z"
   id="path21221-0-8"
   style="fill:#db4d58;fill-opacity:1;stroke-width:0.796391" /><rect
   style="fill:#db4d58;fill-opacity:1;stroke-width:1.01704"
   id="rect34018-3"
   width="166.03569"
   height="36.210579"
   x="23.632156"
   y="162.89066"
   ry="10.400448" /><path
   class="st2"
   d="m 112.04168,157.09134 c -0.32097,-0.45791 -0.85621,-0.68813 -1.45586,-0.69017 -0.52467,-0.001 -1.03878,0.22492 -1.39594,0.60444 l -8.29762,10.17497 19.10286,-0.16406 z"
   id="path21221-0-3"
   style="fill:#f2545b;fill-opacity:1;stroke-width:0.755454" /><rect
   style="fill:#f2545b;fill-opacity:1;stroke-width:0.958473"
   id="rect34018-5"
   width="161.71796"
   height="33.018982"
   x="27.949883"
   y="166.08226"
   ry="6.226119" /><path
   d="M 92.217801,25.733857 C 100.96739,10.24653 121.82646,14.833518 121.82646,14.833518 L 121.2866,39.973123 90.006546,77.088761 c 0,0 -6.442136,-36.070065 2.211255,-51.354904 z"
   fill="#c13742"
   id="path4-7"
   style="stroke-width:2.60603" /><path
   d="M 86.140561,30.393072 C 93.104368,13.503959 113.73339,14.875893 113.73339,14.875893 l 2.13002,24.821597 -26.386295,42.727423 c 0,0 -10.326016,-35.138146 -3.336554,-52.031841 z"
   fill="#af2d3c"
   id="path6-9"
   style="stroke-width:2.60603" /><polygon
   points="136.09,20.93 133.13,34.74 142.57,34.54 141.3,21.25 "
   fill="#f6a749"
   id="polygon8-2"
   transform="matrix(-2.5654384,0.45818886,0.45818886,2.5654384,477.43189,-51.139791)" /><path
   d="m 93.430439,107.07971 a 80.787039,80.787039 0 0 1 48.002441,3.15414 c -5.36528,6.57046 -17.15977,12.56845 -32.86664,15.92964 -17.160028,3.67366 -34.782857,3.27376 -47.078801,-0.35417 8.417214,-7.56557 23.325896,-16.58173 31.943,-18.72961 z"
   fill="#d17457"
   id="path42-0"
   style="stroke-width:2.60603" /><path
   d="m 93.830868,75.823336 -6.461236,33.636004 c 0,0 23.896578,11.21859 42.806398,0.29655 l -2.71935,-31.678663 z"
   fill="#d17457"
   id="path54-2"
   style="stroke-width:2.60603" /><path
   d="m 137.06576,65.030725 c 2.19094,8.265271 6.70191,20.775382 6.70191,20.775382 a 35.832962,35.832962 0 0 1 2.70341,18.842253 11.049582,11.049582 0 0 1 -6.19075,8.17388 10.424134,10.424134 0 0 1 -4.80455,6.15264 c 0,0 -0.62472,5.24728 -4.4472,6.67122 a 15.453779,15.453779 0 0 1 -5.96998,6.89024 8.0005229,8.0005229 0 0 1 -8.72899,-1.59126 7.8181008,7.8181008 0 0 1 -7.46838,-5.94613 c 0,0 -6.15809,-3.05638 -6.4038,-8.7306 a 10.267772,10.267772 0 0 1 -4.79391,-6.23849 7.9484027,7.9484027 0 0 1 -4.530058,-7.13275 28.197283,28.197283 0 0 1 -1.695299,-9.492118 C 91.229087,87.194773 99.51394,64.510448 99.51394,64.510448 Z"
   fill="#562c27"
   id="path56-3"
   style="stroke-width:2.60603" /><path
   d="m 135.14834,74.453316 c 0,0 2.02976,10.623655 0.68756,13.48417 -1.11224,2.369409 -9.21182,-0.737307 -11.79926,-0.698746 -2.58745,0.03855 -14.62385,5.126734 -15.89928,3.766165 -1.27544,-1.36057 -0.1562,-15.696898 -0.1562,-15.696898 a 94.75538,94.75538 0 0 0 27.16718,-0.854691 z"
   fill="#ecb883"
   id="path58-7"
   style="stroke-width:2.60603" /><polygon
   points="149.22,20.08 154.19,33.39 162.13,28.54 153.83,17.77 "
   fill="#f6a749"
   id="polygon60-5"
   transform="matrix(-2.5654384,0.45818886,0.45818886,2.5654384,477.43189,-51.139791)" /><path
   d="m 140.52837,71.37462 c -21.49102,4.473658 -52.371892,-1.235434 -52.371892,-1.235434 0,0 6.824054,-34.124361 24.729972,-34.807461 27.92308,-1.069116 27.64192,36.042895 27.64192,36.042895 z"
   fill="#fbc456"
   id="path62-9"
   style="stroke-width:2.60603" /><path
   d="m 115.24398,70.172325 q 0.63408,1.475115 1.30571,2.864104 A 207.23179,207.23179 0 0 1 88.212373,70.155676 c 0,0 6.768159,-34.140851 24.674077,-34.823951 0.87225,-0.155783 1.74359,-0.02021 2.64791,0.0036 -6.51427,5.028468 -6.80979,19.82655 -0.29038,34.837009 z"
   fill="#f6a749"
   id="path110-2"
   style="stroke-width:2.60603" /><path
   d="m 117.09204,38.127949 -0.30786,0.05498 0.33351,-0.05956 c 20.29638,-0.342331 20.47683,30.757347 20.47683,30.757347 a 52.876422,52.876422 0 0 1 -5.98847,0.857762 c 0.4659,-16.363925 -5.63567,-30.072425 -14.51401,-31.610529 z"
   fill="#ffea80"
   id="path112-2"
   style="stroke-width:2.60603" /><path
   d="m 118.13604,85.327647 c -0.0779,-1.177361 -0.79535,-2.081661 -1.62545,-1.986354 -0.83011,0.09529 -1.43936,1.130673 -1.38253,2.338269 0.0568,1.207595 0.79535,2.081653 1.62545,1.986346 0.83012,-0.09529 1.40913,-1.151744 1.38253,-2.338261 z"
   fill="#5b4a49"
   id="path140-8"
   style="stroke-width:2.60603" /><path
   d="m 131.14009,83.878709 c -0.21076,-1.180103 -0.77428,-2.111895 -1.52741,-2.030326 -0.75315,0.08154 -1.30652,1.133418 -1.22403,2.336431 0.0825,1.203006 0.77428,2.111888 1.55308,2.025744 0.7788,-0.08612 1.20389,-1.11509 1.19836,-2.331849 z"
   fill="#5b4a49"
   id="path142-9"
   style="stroke-width:2.60603" /><path
   d="m 119.46349,78.975366 -5.91523,-0.955464 a 1.5375598,1.5375598 0 0 0 -1.61527,1.479756 l -0.25283,1.845301 a 1.5375598,1.5375598 0 0 0 1.10594,1.893827 l 5.95737,0.894989 a 1.5114995,1.5114995 0 0 0 1.53831,-1.46602 l 0.25741,-1.81964 a 1.5636202,1.5636202 0 0 0 -1.0757,-1.872749 z"
   fill="#562c27"
   id="path144-7"
   style="stroke-width:2.60603" /><path
   d="m 132.41897,77.402742 -5.38833,1.253561 c -0.69266,0.123711 -1.1361,1.050032 -1.04811,1.987339 l 0.18055,1.900262 c 0.16495,0.923555 0.73395,1.589642 1.41745,1.414618 l 5.40482,-1.309449 a 1.7981632,1.7981632 0 0 0 1.02246,-1.982758 l -0.32532,-1.821457 c -0.0367,-0.946464 -0.6524,-1.577735 -1.26352,-1.442116 z"
   fill="#562c27"
   id="path146-3"
   style="stroke-width:2.60603" /><path
   d="m 128.80949,94.248699 c -0.0687,0.356416 -0.13741,0.712832 -0.23178,1.073831 a 7.2708337,7.2708337 0 0 1 -7.64488,5.8128 7.8181008,7.8181008 0 0 1 -5.68821,-8.726047 z"
   fill="#443138"
   id="path148-6"
   style="stroke-width:2.60603" /><path
   d="m 119.88884,86.841213 c -0.36655,-2.052354 0.469,-3.895838 1.90564,-4.152423 1.43666,-0.256587 2.85869,1.183691 3.22524,3.236044 0.36655,2.052346 -0.469,3.89583 -1.90565,4.152417 -1.43665,0.256586 -2.88159,-1.311963 -3.22523,-3.236038 z"
   fill="#ecb883"
   id="path150-1"
   style="stroke-width:2.60603" /><path
   d="m 125.19284,84.226132 a 8.391428,8.391428 0 0 0 -0.60103,0.636801 c 0.50673,1.947897 0.73679,5.162946 -2.67435,4.739743 a 0.83393078,0.83393078 0 0 0 0.0412,0.230889 c 5.52584,1.739769 3.81781,-4.414517 3.23414,-5.607433 z"
   fill="#d17457"
   id="path152-2"
   style="stroke-width:2.60603" /><path
   d="m 127.96015,94.532754 c 0.0504,0.282202 -0.10444,0.601051 -0.17772,0.931814 a 6.3326616,6.3326616 0 0 1 -6.69386,5.060542 6.671446,6.671446 0 0 1 -4.92954,-7.590851 z"
   fill="#f4e8d6"
   id="path154-9"
   style="stroke-width:2.60603" /><polygon
   points="144.43,31.63 146.41,30.76 146.43,29.98 146.63,30.68 146.33,31.96 146.28,31.21 "
   fill="#443138"
   id="polygon156-3"
   transform="matrix(-2.5654384,0.45818886,0.45818886,2.5654384,477.43189,-51.139791)" /><circle
   class="st2"
   cx="44.516117"
   cy="111.60684"
   r="9.0884323"
   id="circle21275-9"
   style="fill:#f2545b;stroke-width:0.426687" /><path
   class="st3"
   d="m 42.297334,116.9831 c -0.213343,-3.84018 -0.256012,-6.65632 -0.128006,-6.99766 0.04267,-0.0853 0.04267,-0.17068 0.128006,-0.34135 0.554693,-1.79209 0,-2.90148 0.512025,-3.28549 0.256012,-0.17068 0.554693,-0.12801 0.810705,-0.0853 1.280061,0.21334 2.218772,1.96276 2.005428,3.32816 -0.04267,0.21334 -0.08534,0.38402 -0.128006,0.46935 0.08534,0 0.170675,0 0.213344,0 0.554693,0 1.152055,-0.0427 1.706748,0 1.109386,0.0853 2.005428,1.02405 2.048097,2.13344 0.04267,0.59736 0.08534,1.23739 0,1.83475 -0.08534,0.98138 -0.64003,1.66408 -1.450736,2.1761 -0.426687,0.29869 -0.938711,0.51203 -1.450735,0.64004 -0.298681,0.0427 -0.554693,0.0853 -0.640031,0.0853 -1.237392,0 -3.328158,0.0427 -3.626839,0.0427 z"
   id="path21277-5"
   style="fill:#ffffff;stroke-width:0.426687" /><path
   class="st3"
   d="m 41.230617,110.15611 c 0.04267,2.30411 0.08534,4.56555 0.128006,6.86966 -0.469356,0 -0.98138,0.0427 -1.450736,0.0427 -0.213343,0 -0.384018,-0.21334 -0.384018,-0.46936 0,-0.42668 0,-0.89604 -0.04267,-1.32273 -0.04267,-1.4934 -0.04267,-2.98681 -0.08534,-4.48021 0,-0.38402 0.170675,-0.55469 0.554693,-0.55469 0.469356,-0.0853 0.853374,-0.0853 1.280061,-0.0853 z"
   id="path21279-5"
   style="fill:#ffffff;stroke-width:0.426687" /><circle
   class="st2"
   cx="-36.459629"
   cy="130.33002"
   r="9.0884323"
   id="circle21275-2-5"
   style="fill:#f2545b;stroke-width:0.426687"
   transform="scale(-1,1)" /><circle
   class="st2"
   cx="-82.143661"
   cy="149.08656"
   r="3.7851315"
   id="circle21275-2-9-8"
   style="fill:#f2545b;stroke-width:0.177706"
   transform="scale(-1,1)" /><circle
   class="st2"
   cx="-59.693134"
   cy="117.19804"
   r="3.7851315"
   id="circle21275-2-9-1-2"
   style="fill:#f2545b;stroke-width:0.177706"
   transform="scale(-1,1)" /><circle
   class="st2"
   cx="-42.015461"
   cy="146.49245"
   r="3.7851315"
   id="circle21275-2-9-7-9"
   style="fill:#f2545b;stroke-width:0.177706"
   transform="scale(-1,1)" /><circle
   class="st2"
   cx="-62.139603"
   cy="137.48"
   r="14.871428"
   id="circle26186-2"
   style="fill:#f2545b;stroke-width:0.698189"
   transform="scale(-1,1)" /><path
   class="st3"
   d="m 52.304776,136.83133 c 0.2888,-2.95689 2.40004,-5.42154 5.07301,-5.60093 2.06994,-0.11074 3.90575,1.07975 4.80466,2.93922 0.99992,-1.88825 2.96177,-3.13628 5.0367,-2.98518 2.67965,0.16972 4.71326,2.67474 4.77168,5.72955 0.0384,2.00744 -0.7904,3.81373 -1.97645,4.99843 l -7.66127,5.69571 c -0.34054,0.2512 -0.77247,0.23791 -1.03663,-0.0319 l -7.27689,-5.80666 c -1.2311,-1.17188 -1.86919,-2.93611 -1.73481,-4.93823 z"
   id="path21223-0"
   style="fill:#ffffff;stroke-width:0.868066" /><circle
   class="st2"
   cx="168.78389"
   cy="111.60684"
   r="9.0884323"
   id="circle21275"
   style="fill:#f2545b;stroke-width:0.426687" /><path
   class="st3"
   d="m 166.5651,116.9831 c -0.21334,-3.84018 -0.25601,-6.65632 -0.128,-6.99766 0.0427,-0.0853 0.0427,-0.17068 0.128,-0.34135 0.5547,-1.79209 0,-2.90148 0.51203,-3.28549 0.25601,-0.17068 0.55469,-0.12801 0.8107,-0.0853 1.28006,0.21334 2.21877,1.96276 2.00543,3.32816 -0.0427,0.21334 -0.0853,0.38402 -0.128,0.46935 0.0853,0 0.17067,0 0.21334,0 0.55469,0 1.15205,-0.0427 1.70675,0 1.10938,0.0853 2.00543,1.02405 2.04809,2.13344 0.0427,0.59736 0.0853,1.23739 0,1.83475 -0.0853,0.98138 -0.64003,1.66408 -1.45073,2.1761 -0.42669,0.29869 -0.93871,0.51203 -1.45074,0.64004 -0.29868,0.0427 -0.55469,0.0853 -0.64003,0.0853 -1.23739,0 -3.32816,0.0427 -3.62684,0.0427 z"
   id="path21277"
   style="fill:#ffffff;stroke-width:0.426687" /><path
   class="st3"
   d="m 165.49839,110.15611 c 0.0427,2.30411 0.0853,4.56555 0.128,6.86966 -0.46935,0 -0.98138,0.0427 -1.45073,0.0427 -0.21335,0 -0.38402,-0.21334 -0.38402,-0.46936 0,-0.42668 0,-0.89604 -0.0427,-1.32273 -0.0427,-1.4934 -0.0427,-2.98681 -0.0853,-4.48021 0,-0.38402 0.17068,-0.55469 0.55469,-0.55469 0.46936,-0.0853 0.85338,-0.0853 1.28007,-0.0853 z"
   id="path21279"
   style="fill:#ffffff;stroke-width:0.426687" /><circle
   class="st2"
   cx="176.84036"
   cy="130.33002"
   r="9.0884323"
   id="circle21275-2"
   style="fill:#f2545b;stroke-width:0.426687" /><circle
   class="st2"
   cx="131.15633"
   cy="149.08656"
   r="3.7851315"
   id="circle21275-2-9"
   style="fill:#f2545b;stroke-width:0.177706" /><circle
   class="st2"
   cx="153.60686"
   cy="117.19804"
   r="3.7851315"
   id="circle21275-2-9-1"
   style="fill:#f2545b;stroke-width:0.177706" /><circle
   class="st2"
   cx="171.28453"
   cy="146.49245"
   r="3.7851315"
   id="circle21275-2-9-7"
   style="fill:#f2545b;stroke-width:0.177706" /><circle
   class="st2"
   cx="151.1604"
   cy="137.48"
   r="14.871428"
   id="circle26186"
   style="fill:#f2545b;stroke-width:0.698189" /><path
   class="st3"
   d="m 160.99522,136.83133 c -0.2888,-2.95689 -2.40004,-5.42154 -5.07301,-5.60093 -2.06994,-0.11074 -3.90575,1.07975 -4.80466,2.93922 -0.99992,-1.88825 -2.96177,-3.13628 -5.0367,-2.98518 -2.67965,0.16972 -4.71326,2.67474 -4.77168,5.72955 -0.0384,2.00744 0.7904,3.81373 1.97645,4.99843 l 7.66127,5.69571 c 0.34054,0.2512 0.77247,0.23791 1.03663,-0.0319 l 7.27689,-5.80666 c 1.2311,-1.17188 1.86919,-2.93611 1.73481,-4.93823 z"
   id="path21223"
   style="fill:#ffffff;stroke-width:0.868066" /><path
   d="m 60.232187,172.48301 q 1.548,-0.9 3.276,-1.368 1.728,-0.504 3.672,-0.504 1.548,0 2.808,0.36 1.296,0.36 2.196,1.152 0.936,0.756 1.404,1.98 0.504,1.188 0.504,2.88 v 11.16 h -3.708 l -0.432,-1.764 h -0.144 q -0.828,1.008 -2.124,1.584 -1.26,0.576 -2.952,0.576 -1.404,0 -2.484,-0.396 -1.08,-0.432 -1.836,-1.116 -0.756,-0.72 -1.152,-1.692 -0.36,-0.972 -0.36,-2.088 0,-1.476 0.612,-2.52 0.648,-1.08 1.764,-1.764 1.116,-0.684 2.592,-1.008 1.512,-0.324 3.24,-0.324 h 2.16 v -1.044 q 0,-1.188 -0.756,-1.728 -0.72,-0.576 -2.052,-0.576 -1.044,0 -2.16,0.324 -1.08,0.324 -2.412,1.044 z m 9.072,8.136 -1.548,0.036 q -2.196,0.072 -3.06,0.756 -0.864,0.648 -0.864,1.584 0,1.224 0.72,1.692 0.756,0.432 1.692,0.432 0.936,0 1.764,-0.54 0.864,-0.54 1.296,-1.26 z"
   style="font-weight:bold;font-size:36px;font-family:'Mukta Mahee';-inkscape-font-specification:'Mukta Mahee Bold';fill:#ffffff"
   id="path36129" /><path
   d="m 78.052098,176.80301 q 0,-1.404 0.54,-2.556 0.576,-1.152 1.548,-1.944 1.008,-0.828 2.34,-1.26 1.368,-0.432 2.988,-0.432 0.612,0 1.332,0.108 0.72,0.072 1.332,0.252 h 7.344 v 3.024 h -1.548 l -2.232,-0.324 q 0.468,0.576 0.756,1.44 0.324,0.864 0.324,1.728 0,2.736 -1.98,4.428 -1.944,1.656 -5.364,1.656 -0.9,0 -1.584,-0.144 -0.9,0.36 -0.9,1.188 0,0.576 0.396,0.864 0.396,0.288 1.404,0.288 h 3.852 q 2.844,0 4.536,1.26 1.728,1.224 1.728,3.96 0,1.404 -0.684,2.556 -0.648,1.188 -1.872,2.016 -1.224,0.864 -2.952,1.332 -1.728,0.468 -3.852,0.468 -3.924,0 -6.228,-1.404 -2.268,-1.368 -2.268,-3.96 0,-1.188 0.792,-2.088 0.792,-0.864 2.196,-1.368 -0.504,-0.36 -1.008,-1.008 -0.504,-0.684 -0.504,-1.692 0,-1.188 0.72,-2.052 0.72,-0.864 1.836,-1.368 -0.54,-0.288 -1.08,-0.72 -0.504,-0.468 -0.936,-1.08 -0.432,-0.612 -0.72,-1.404 -0.252,-0.792 -0.252,-1.764 z m 4.608,11.916 q -0.54,0.288 -0.9,0.756 -0.36,0.468 -0.36,1.188 0,1.044 0.936,1.728 0.972,0.72 3.312,0.72 2.34,0 3.42,-0.792 1.08,-0.792 1.08,-1.8 0,-1.008 -0.684,-1.404 -0.684,-0.396 -2.124,-0.396 z m 5.436,-11.952 q 0,-1.404 -0.756,-2.124 -0.756,-0.72 -1.908,-0.72 -1.188,0 -1.944,0.72 -0.72,0.72 -0.72,2.088 0,1.44 0.756,2.16 0.756,0.72 1.908,0.72 1.188,0 1.908,-0.72 0.756,-0.72 0.756,-2.124 z"
   style="font-weight:bold;font-size:36px;font-family:'Mukta Mahee';-inkscape-font-specification:'Mukta Mahee Bold';fill:#ffffff"
   id="path36131" /><path
   d="m 114.62806,179.43101 q 0,2.124 -0.684,3.816 -0.684,1.692 -1.908,2.88 -1.188,1.152 -2.808,1.8 -1.62,0.612 -3.492,0.612 -1.872,0 -3.492,-0.576 -1.584,-0.576 -2.771999,-1.692 -1.152,-1.116 -1.836,-2.736 -0.648,-1.656 -0.648,-3.744 0,-2.196 0.684,-3.888 0.684,-1.728 1.872,-2.88 1.223999,-1.188 2.843999,-1.8 1.62,-0.612 3.492,-0.612 1.872,0 3.456,0.576 1.62,0.576 2.772,1.692 1.188,1.08 1.836,2.736 0.684,1.656 0.684,3.816 z m -4.932,0.18 q 0,-1.476 -0.324,-2.52 -0.324,-1.044 -0.864,-1.692 -0.54,-0.648 -1.26,-0.936 -0.72,-0.324 -1.476,-0.324 -0.756,0 -1.44,0.288 -0.684,0.252 -1.224,0.9 -0.54,0.612 -0.864,1.656 -0.324,1.044 -0.324,2.628 0,1.404 0.324,2.448 0.324,1.008 0.864,1.656 0.576,0.648 1.26,0.972 0.72,0.324 1.476,0.324 0.756,0 1.44,-0.252 0.684,-0.288 1.224,-0.936 0.54,-0.648 0.864,-1.656 0.324,-1.044 0.324,-2.556 z"
   style="font-weight:bold;font-size:36px;font-family:'Mukta Mahee';-inkscape-font-specification:'Mukta Mahee Bold';fill:#ffffff"
   id="path36133" /><path
   d="m 118.04799,188.14301 v -17.172 h 3.708 l 0.54,3.096 q 0.612,-1.368 1.944,-2.412 1.332,-1.044 3.348,-1.044 0.828,0 1.476,0.18 0.648,0.18 1.08,0.432 l -0.792,3.78 q -0.396,-0.216 -1.008,-0.36 -0.612,-0.18 -1.44,-0.18 -1.764,0 -2.952,1.188 -1.152,1.152 -1.152,3.816 v 8.676 z"
   style="font-weight:bold;font-size:36px;font-family:'Mukta Mahee';-inkscape-font-specification:'Mukta Mahee Bold';fill:#ffffff"
   id="path36135" /><path
   d="m 131.83592,172.48301 q 1.548,-0.9 3.276,-1.368 1.728,-0.504 3.672,-0.504 1.548,0 2.808,0.36 1.296,0.36 2.196,1.152 0.936,0.756 1.404,1.98 0.504,1.188 0.504,2.88 v 11.16 h -3.708 l -0.432,-1.764 h -0.144 q -0.828,1.008 -2.124,1.584 -1.26,0.576 -2.952,0.576 -1.404,0 -2.484,-0.396 -1.08,-0.432 -1.836,-1.116 -0.756,-0.72 -1.152,-1.692 -0.36,-0.972 -0.36,-2.088 0,-1.476 0.612,-2.52 0.648,-1.08 1.764,-1.764 1.116,-0.684 2.592,-1.008 1.512,-0.324 3.24,-0.324 h 2.16 v -1.044 q 0,-1.188 -0.756,-1.728 -0.72,-0.576 -2.052,-0.576 -1.044,0 -2.16,0.324 -1.08,0.324 -2.412,1.044 z m 9.072,8.136 -1.548,0.036 q -2.196,0.072 -3.06,0.756 -0.864,0.648 -0.864,1.584 0,1.224 0.72,1.692 0.756,0.432 1.692,0.432 0.936,0 1.764,-0.54 0.864,-0.54 1.296,-1.26 z"
   style="font-weight:bold;font-size:36px;font-family:'Mukta Mahee';-inkscape-font-specification:'Mukta Mahee Bold';fill:#ffffff"
   id="path36137" /><path
   d="m 160.49181,175.07501 q -2.124,-1.008 -4.104,-1.008 -1.152,0 -1.8,0.396 -0.612,0.396 -0.612,1.08 0,0.684 0.54,1.116 0.576,0.432 2.268,0.936 l 1.08,0.324 q 2.232,0.648 3.384,1.872 1.152,1.224 1.152,3.168 0,2.556 -1.98,4.068 -1.944,1.512 -5.292,1.512 -3.42,0 -5.868,-1.224 l 1.08,-3.528 q 1.044,0.54 2.196,0.9 1.152,0.324 2.34,0.324 1.44,0 2.088,-0.432 0.684,-0.468 0.684,-1.188 0,-0.756 -0.648,-1.152 -0.648,-0.432 -2.448,-0.936 l -1.116,-0.324 q -2.16,-0.72 -3.168,-1.908 -1.008,-1.188 -1.008,-3.168 0,-2.34 1.764,-3.816 1.764,-1.476 4.932,-1.476 3.132,0 5.544,1.116 z"
   style="font-weight:bold;font-size:36px;font-family:'Mukta Mahee';-inkscape-font-specification:'Mukta Mahee Bold';fill:#ffffff"
   id="path36139" /></svg>
