<?xml version="1.0" encoding="UTF-8" standalone="no"?>
<!-- Generator: Adobe Illustrator 25.0.1, SVG Export Plug-In . SVG Version: 6.00 Build 0)  -->

<svg
   version="1.1"
   id="svg2"
   x="0px"
   y="0px"
   viewBox="0 0 213.3 213.3"
   style="enable-background:new 0 0 213.3 213.3;"
   xml:space="preserve"
   sodipodi:docname="logo.svg"
   inkscape:version="1.2 (dc2aedaf03, 2022-05-15)"
   xmlns:inkscape="http://www.inkscape.org/namespaces/inkscape"
   xmlns:sodipodi="http://sodipodi.sourceforge.net/DTD/sodipodi-0.dtd"
   xmlns="http://www.w3.org/2000/svg"
   xmlns:svg="http://www.w3.org/2000/svg"><defs
   id="defs1305" />
<style
   type="text/css"
   id="style1137">
	.st0{fill:#5DA649;}
	.st1{fill:none;}
	.st2{fill:#2D2B2B;}
	.st3{fill:#FFFFFF;}
	.st4{fill:#BA2025;}
	.st5{fill:#EEA794;}
	.st6{fill:#6BB87C;}
	.st7{fill:#108C55;}
</style>
<sodipodi:namedview
   bordercolor="#666666"
   borderopacity="1.0"
   id="base"
   inkscape:current-layer="svg2"
   inkscape:cx="143.21429"
   inkscape:cy="49.285714"
   inkscape:document-units="px"
   inkscape:pageopacity="0.0"
   inkscape:pageshadow="2"
   inkscape:window-height="995"
   inkscape:window-maximized="1"
   inkscape:window-width="1920"
   inkscape:window-x="0"
   inkscape:window-y="0"
   inkscape:zoom="1.4"
   pagecolor="#ffffff"
   showgrid="false"
   units="px"
   inkscape:showpageshadow="2"
   inkscape:pagecheckerboard="0"
   inkscape:deskcolor="#d1d1d1">
	</sodipodi:namedview>

<g
   id="g1517"
   transform="matrix(0.67162545,0,0,0.67162545,-74.209138,47.163176)"><g
     id="g840"
     transform="rotate(-10.126292,-138.52491,-738.14932)"><path
       d="m 117.5591,40.316343 c 14.80406,-17.901006 40.56653,-7.214854 40.56653,-7.214854 l -6.46614,32.194584 -48.7343,40.532507 c 0,0 0,-47.849458 14.63391,-65.512237 z"
       fill="#c13742"
       id="path4"
       style="stroke-width:3.40323" /><path
       d="M 108.67666,44.910707 C 121.50685,24.7976 147.71174,31.297775 147.71174,31.297775 l -2.96081,32.398778 -43.73155,48.870427 c 0,0 -5.206942,-47.543166 7.65728,-67.656273 z"
       fill="#af2d3c"
       id="path6"
       style="stroke-width:3.40323" /><polygon
       points="136.09,20.93 133.13,34.74 142.57,34.54 141.3,21.25 "
       fill="#f6a749"
       id="polygon8"
       transform="matrix(-3.403233,0,0,3.403233,630.42631,29.936482)" /><path
       d="m 100.44083,145.16995 a 105.50022,105.50022 0 0 1 60.98594,15.07632 c -8.40599,7.21486 -24.9457,12.21761 -45.90961,12.93229 -22.903761,0.78274 -45.467196,-3.77759 -60.441421,-11.2647 12.55793,-7.79341 33.794104,-15.96117 45.365091,-16.74391 z"
       fill="#d17457"
       id="path42"
       style="stroke-width:3.40323" /><path
       d="m 108.13214,105.07987 -16.029226,41.75767 c 0,0 28.144736,19.90891 54.962216,10.20969 l 3.77759,-41.34928 z"
       fill="#d17457"
       id="path54"
       style="stroke-width:3.40323" /><path
       d="m 166.1913,101.13212 c 0.91887,11.12857 3.84565,28.24683 3.84565,28.24683 a 46.794454,46.794454 0 0 1 -0.85081,24.8436 14.429708,14.429708 0 0 1 -9.83534,9.08663 13.612932,13.612932 0 0 1 -7.58921,6.80647 c 0,0 -2.00791,6.60227 -7.24889,7.55518 a 20.181172,20.181172 0 0 1 -9.25679,7.48711 10.447925,10.447925 0 0 1 -10.85631,-4.04985 10.209699,10.209699 0 0 1 -8.23583,-9.35889 c 0,0 -7.21485,-5.34307 -6.22792,-12.69406 a 13.408738,13.408738 0 0 1 -4.73049,-9.12066 10.379861,10.379861 0 0 1 -4.18598,-10.2097 36.822981,36.822981 0 0 1 0,-12.59196 c 1.1571,-8.03163 17.01617,-35.29153 17.01617,-35.29153 z"
       fill="#562c27"
       id="path56"
       style="stroke-width:3.40323" /><path
       d="m 161.5629,112.80521 c 0,0 0.17016,14.12341 -2.2121,17.49261 -1.97388,2.79065 -11.67309,-3.06291 -15.00826,-3.60742 -3.33517,-0.54452 -19.97698,3.23307 -21.30424,1.19113 -1.32726,-2.04194 3.40324,-20.21521 3.40324,-20.21521 a 123.74155,123.74155 0 0 0 35.12136,5.13889 z"
       fill="#ecb883"
       id="path58"
       style="stroke-width:3.40323" /><polygon
       points="149.22,20.08 154.19,33.39 162.13,28.54 153.83,17.77 "
       fill="#f6a749"
       id="polygon60"
       transform="matrix(-3.403233,0,0,3.403233,630.42631,29.936482)" /><path
       d="m 169.18614,110.08262 c -28.65522,0.81678 -67.04369,-13.612933 -67.04369,-13.612933 0,0 16.60778,-42.302186 39.7838,-39.069115 36.14233,5.036785 27.25989,52.682048 27.25989,52.682048 z"
       fill="#fbc456"
       id="path62"
       style="stroke-width:3.40323" /><path
       d="m 136.95752,102.73164 q 0.47646,2.04194 1.02097,3.98178 A 270.62509,270.62509 0 0 1 102.21052,96.503719 c 0,0 16.53971,-42.336218 39.71573,-39.103147 1.15709,0 2.24613,0.374356 3.40323,0.612582 -9.52905,4.96872 -13.30664,23.924728 -8.37196,44.718486 z"
       fill="#f6a749"
       id="path110"
       style="stroke-width:3.40323" /><path
       d="m 146.69077,61.960905 h -0.40839 0.44242 c 26.17087,4.220008 19.2623,44.242025 19.2623,44.242025 a 69.051598,69.051598 0 0 1 -7.8955,-0.27226 c 4.35614,-20.929878 -0.34032,-39.953951 -11.40083,-43.969765 z"
       fill="#ffea80"
       id="path112"
       style="stroke-width:3.40323" /><path
       d="m 137.19575,122.87878 c 0.17016,-1.53146 -0.54452,-2.85872 -1.63355,-2.92679 -1.08904,-0.0681 -2.11,1.12307 -2.3142,2.68856 -0.20419,1.56549 0.54452,2.85871 1.63355,2.92678 1.08904,0.0681 2.07597,-1.1571 2.3142,-2.68855 z"
       fill="#5b4a49"
       id="path140"
       style="stroke-width:3.40323" /><path
       d="m 154.24595,124.00184 c 0,-1.56549 -0.51049,-2.89275 -1.49742,-2.96081 -0.98694,-0.0681 -1.93985,1.1571 -2.11001,2.72259 -0.17016,1.56548 0.51049,2.89274 1.53146,2.96081 1.02097,0.0681 1.80371,-1.1571 2.07597,-2.72259 z"
       fill="#5b4a49"
       id="path142"
       style="stroke-width:3.40323" /><path
       d="m 140.36076,115.01731 -7.38502,-2.58646 a 2.0079075,2.0079075 0 0 0 -2.41629,1.53145 l -0.74871,2.3142 a 2.0079075,2.0079075 0 0 0 0.98693,2.68856 l 7.45308,2.51839 a 1.9738751,1.9738751 0 0 0 2.3142,-1.53146 l 0.74871,-2.28016 a 2.0419398,2.0419398 0 0 0 -0.9529,-2.65452 z"
       fill="#562c27"
       id="path144"
       style="stroke-width:3.40323" /><path
       d="m 157.37692,115.97021 -7.21485,0.37436 c -0.91887,0 -1.70162,1.08903 -1.80371,2.3142 l -0.2042,2.48436 c 0,1.22516 0.57855,2.2121 1.49742,2.14403 l 7.24889,-0.44242 a 2.3482308,2.3482308 0 0 0 1.76968,-2.3142 v -2.41629 c 0.17016,-1.22516 -0.47645,-2.17807 -1.29323,-2.14404 z"
       fill="#562c27"
       id="path146"
       style="stroke-width:3.40323" /><path
       d="m 148.86884,136.798 c -0.17016,0.44242 -0.34032,0.88484 -0.54452,1.32726 a 9.4950201,9.4950201 0 0 1 -11.1626,5.71743 10.209699,10.209699 0 0 1 -5.30904,-12.5239 z"
       fill="#443138"
       id="path148"
       style="stroke-width:3.40323" /><path
       d="m 139.10156,125.22701 c 0,-2.72259 1.49742,-4.90066 3.40323,-4.90066 1.90582,0 3.40324,2.17807 3.40324,4.90066 0,2.72258 -1.49742,4.90065 -3.40324,4.90065 -1.90581,0 -3.40323,-2.34823 -3.40323,-4.90065 z"
       fill="#ecb883"
       id="path150"
       style="stroke-width:3.40323" /><path
       d="m 146.52061,123.08297 a 10.95841,10.95841 0 0 0 -0.91887,0.68065 c 0.20419,2.62049 -0.23823,6.80646 -4.5263,5.4792 a 1.0890346,1.0890346 0 0 0 0,0.30629 c 6.70437,3.50533 5.92162,-4.79856 5.44517,-6.46614 z"
       fill="#d17457"
       id="path152"
       style="stroke-width:3.40323" /><path
       d="m 147.71174,136.96816 c 0,0.37436 -0.27226,0.74871 -0.44242,1.1571 a 8.2698562,8.2698562 0 0 1 -9.76728,4.96872 8.7122765,8.7122765 0 0 1 -4.59436,-10.89035 z"
       fill="#f4e8d6"
       id="path154"
       style="stroke-width:3.40323" /><polygon
       points="146.33,31.96 146.28,31.21 144.43,31.63 146.41,30.76 146.43,29.98 146.63,30.68 "
       fill="#443138"
       id="polygon156"
       transform="matrix(-3.403233,0,0,3.403233,630.42631,29.936482)" /></g><g
     aria-label="Agora"
     id="text896"
     style="font-size:85.3333px;line-height:1.25"
     transform="translate(-173.21429,-61.428577)"><path
       d="m 357.167,191.79231 h -7.93599 l -14.67733,37.63198 c -5.71733,14.59199 -7.08266,16.55466 -12.79999,17.66399 l -0.93867,0.17067 v 2.64533 h 22.86932 v -2.64533 c -3.072,-0.42667 -4.52266,-0.768 -5.46133,-1.36533 -1.28,-0.85334 -2.13333,-2.38934 -2.13333,-3.92534 0,-1.27999 0.59733,-3.58399 1.62133,-6.31466 l 2.73067,-7.33866 h 22.01599 l 4.26666,11.00799 c 0.59734,1.536 0.93867,2.98667 0.93867,3.66933 0,2.38934 -1.70667,3.584 -6.05866,4.18134 l -0.68267,0.0853 v 2.64533 h 23.97866 v -2.64533 c -5.54667,-0.85333 -6.57067,-1.792 -9.64267,-9.728 z m -15.44532,32.85332 9.47199,-25.59999 9.728,25.59999 z"
       style="font-family:'URW Bookman';-inkscape-font-specification:'URW Bookman'"
       id="path1095" /><path
       d="m 400.60146,243.93095 c -3.84,-0.512 -5.54667,-1.536 -5.54667,-3.49866 0,-1.62134 1.45067,-3.24267 3.92534,-4.52267 3.49866,1.10933 5.11999,1.36533 8.02133,1.36533 6.14399,0 10.83733,-1.62133 13.90932,-4.69333 2.47467,-2.47466 4.01067,-6.31466 4.01067,-9.64266 0,-4.69333 -2.64533,-9.13066 -7.08266,-12.11733 1.79199,-2.64533 3.07199,-3.66933 4.52266,-3.66933 0.59733,0 0.93867,0.0853 1.96267,0.768 0.93866,0.59733 1.70666,0.85333 2.56,0.85333 1.96266,0 3.24266,-1.28 3.24266,-3.24266 0,-2.13334 -1.87733,-3.66934 -4.608,-3.66934 -2.64533,0 -5.46133,1.10934 -7.16799,2.90134 -1.024,1.024 -1.62134,1.87733 -3.24267,4.69333 -3.41333,-1.28 -5.29066,-1.70667 -8.02133,-1.70667 -9.728,0 -17.57866,6.74133 -17.57866,15.18933 0,4.94933 2.21867,8.96 6.912,12.11733 -5.71733,1.87733 -8.36267,4.52266 -8.36267,8.53333 0,3.41333 1.87734,5.54666 6.22934,7.16799 -6.31467,2.38934 -8.96,5.12 -8.96,9.30133 0,6.144 8.87466,10.41067 21.67466,10.41067 13.90932,0 22.78399,-5.376 22.78399,-13.824 0,-2.38933 -0.68267,-4.52266 -1.96267,-6.144 -1.87733,-2.30399 -4.94933,-3.49866 -10.92266,-4.35199 z m 6.912,-33.45065 c 5.88799,0 8.70399,3.92533 8.70399,12.03199 0,8.10667 -2.90133,12.032 -8.95999,12.032 -6.144,0 -9.04533,-3.92533 -9.04533,-12.11733 0,-7.50933 3.41333,-11.94666 9.30133,-11.94666 z m 7.50933,43.17865 c 6.31466,0.768 8.78933,2.38933 8.78933,5.71733 0,4.864 -6.57067,7.93599 -16.81066,7.93599 -9.81333,0 -16.55466,-3.32799 -16.55466,-8.10666 0,-3.24266 2.47466,-5.97333 7.08266,-7.68 z"
       style="font-family:'URW Bookman';-inkscape-font-specification:'URW Bookman'"
       id="path1097" /><path
       d="m 452.39863,207.74963 c -5.97333,0 -11.264,1.96267 -14.67733,5.54667 -3.584,3.75466 -5.97333,10.06933 -5.97333,16.04266 0,12.88532 8.27733,21.33332 20.99199,21.33332 12.37333,0 20.73599,-8.53333 20.73599,-21.16266 0,-5.54666 -1.96266,-11.17866 -5.12,-15.10399 -3.58399,-4.26667 -9.30133,-6.656 -15.95732,-6.656 z m 0.0853,3.41333 c 7.68,0 12.288,6.99733 12.288,18.77333 0,10.83733 -4.43734,17.32266 -11.94667,17.32266 -7.93599,0 -12.37332,-6.57066 -12.37332,-18.09066 0,-10.92266 4.69333,-18.00533 12.03199,-18.00533 z"
       style="font-family:'URW Bookman';-inkscape-font-specification:'URW Bookman'"
       id="path1099" /><path
       d="m 493.87055,208.51763 h -2.90133 c -5.29066,1.024 -8.10666,1.36533 -12.88533,1.70667 v 2.56 l 2.048,0.17066 c 4.52267,0.512 5.632,1.87734 5.632,7.08267 v 20.05332 c 0,4.69333 -1.536,6.74133 -5.29066,7.08267 l -2.13334,0.17066 v 2.56 h 22.95466 v -2.56 l -2.13333,-0.17066 c -3.75467,-0.34134 -5.29067,-2.38934 -5.29067,-7.08267 v -20.90666 c 3.072,-3.41333 5.376,-4.77866 7.85067,-4.77866 1.45066,0 2.048,0.256 3.584,1.36533 1.536,1.024 2.81599,1.45067 4.43733,1.45067 2.73066,0 4.77866,-1.96267 4.77866,-4.69333 0,-2.816 -2.56,-4.77867 -6.22933,-4.77867 -1.96266,0 -4.01066,0.42667 -6.05866,1.36534 -2.048,0.85333 -2.47467,1.19466 -6.57067,4.69333 -0.256,0.17066 -0.93866,0.85333 -1.792,1.536 z"
       style="font-family:'URW Bookman';-inkscape-font-specification:'URW Bookman'"
       id="path1101" /><path
       d="m 545.83833,225.66963 c -0.68266,0.0853 -2.048,0.25599 -4.096,0.42666 -5.37599,0.59733 -7.25333,0.85333 -10.32533,1.70667 -9.47199,2.38933 -14.33599,6.57066 -14.33599,12.28799 0,6.144 5.54666,10.58133 13.14133,10.58133 5.80266,0 9.89866,-1.70666 15.61599,-6.57066 1.62133,4.608 4.52267,6.57066 9.55733,6.57066 3.66933,0 6.4,-1.024 8.78933,-3.328 l -1.62133,-2.21866 c -1.45067,1.28 -2.38933,1.70666 -3.84,1.70666 -1.792,0 -3.328,-0.85333 -4.01067,-2.38933 -0.59733,-1.19467 -0.76799,-2.304 -0.76799,-5.97333 v -18.09066 c 0,-5.12 -1.36534,-7.76533 -4.864,-9.728 -3.15733,-1.79199 -7.50933,-2.90133 -11.52,-2.90133 -9.89866,0 -18.60266,5.12 -18.60266,10.83733 0,2.048 1.87734,3.75467 4.096,3.75467 2.38933,0 4.352,-1.96267 4.352,-4.352 l -0.0853,-2.38933 c 0,-2.47467 3.83999,-4.43734 8.61866,-4.43734 6.05866,0 9.89866,2.90134 9.89866,7.68 z m 0,14.59199 c -4.864,4.52266 -8.36266,6.31466 -12.71466,6.31466 -4.01066,0 -7.33866,-3.24266 -7.33866,-7.25333 0,-5.80266 7.16799,-9.55733 20.05332,-10.66666 z"
       style="font-family:'URW Bookman';-inkscape-font-specification:'URW Bookman'"
       id="path1103" /></g></g></svg>
