<?xml version="1.0" encoding="UTF-8" standalone="no"?>
<!-- Generator: Adobe Illustrator 25.0.1, SVG Export Plug-In . SVG Version: 6.00 Build 0)  -->

<svg
   version="1.1"
   id="svg2"
   x="0px"
   y="0px"
   viewBox="0 0 1280 640"
   xml:space="preserve"
   sodipodi:docname="social-card.svg"
   inkscape:version="1.2.1 (9c6d41e, 2022-07-14)"
   width="1280"
   height="640"
   xmlns:inkscape="http://www.inkscape.org/namespaces/inkscape"
   xmlns:sodipodi="http://sodipodi.sourceforge.net/DTD/sodipodi-0.dtd"
   xmlns="http://www.w3.org/2000/svg"
   xmlns:svg="http://www.w3.org/2000/svg"><defs
   id="defs436" />
<style
   type="text/css"
   id="style268">
	.st0{fill:#5DA649;}
	.st1{fill:none;}
	.st2{fill:#2D2B2B;}
	.st3{fill:#FFFFFF;}
	.st4{fill:#BA2025;}
	.st5{fill:#EEA794;}
	.st6{fill:#6BB87C;}
	.st7{fill:#108C55;}
</style>
<sodipodi:namedview
   bordercolor="#666666"
   borderopacity="1.0"
   id="base"
   inkscape:current-layer="svg2"
   inkscape:cx="679.28571"
   inkscape:cy="213.57143"
   inkscape:document-units="px"
   inkscape:pageopacity="0.0"
   inkscape:pageshadow="2"
   inkscape:window-height="1387"
   inkscape:window-maximized="0"
   inkscape:window-width="2004"
   inkscape:window-x="0"
   inkscape:window-y="25"
   inkscape:zoom="0.7"
   pagecolor="#ffffff"
   showgrid="false"
   units="px"
   inkscape:showpageshadow="2"
   inkscape:pagecheckerboard="0"
   inkscape:deskcolor="#d1d1d1">
	</sodipodi:namedview>

<path
   class="st2"
   d="m 646.56633,432.13616 c -0.79158,-1.22218 -2.11158,-1.83667 -3.59043,-1.84204 -1.29398,-0.002 -2.56192,0.60027 -3.44276,1.61319 l -20.46375,27.15656 47.11194,-0.43788 z"
   id="path21221-0-8"
   style="fill:#db4d58;fill-opacity:1;stroke-width:1.9382" /><rect
   style="fill:#db4d58;fill-opacity:1;stroke-width:2.47519"
   id="rect34018-3"
   width="404.08362"
   height="88.126244"
   x="437.95819"
   y="456.87375"
   ry="25.311731" /><path
   class="st2"
   d="m 653.12183,442.75987 c -0.78116,-1.11442 -2.08379,-1.6747 -3.54315,-1.67967 -1.27691,-0.002 -2.52811,0.54738 -3.39732,1.47104 l -20.19406,24.76298 46.49092,-0.39928 z"
   id="path21221-0-3"
   style="fill:#f2545b;fill-opacity:1;stroke-width:1.83857" /><rect
   style="fill:#f2545b;fill-opacity:1;stroke-width:2.33264"
   id="rect34018-5"
   width="393.57547"
   height="80.358803"
   x="448.46631"
   y="464.6412"
   ry="15.1526" /><path
   d="m 604.87614,123.07315 c 21.29401,-37.691742 72.05905,-26.528321 72.05905,-26.528321 l -1.31387,61.182651 -76.12675,90.32889 c 0,0 -15.67831,-87.78428 5.38157,-124.98322 z"
   fill="#c13742"
   id="path4-7"
   style="stroke-width:6.34233" /><path
   d="m 590.08586,134.41236 c 16.94793,-41.103298 67.15309,-37.7644 67.15309,-37.7644 l 5.18387,60.4087 -64.21673,103.98639 c 0,0 -25.13058,-85.51625 -8.12023,-126.63069 z"
   fill="#af2d3c"
   id="path6-9"
   style="stroke-width:6.34233" /><polygon
   points="142.57,34.54 141.3,21.25 136.09,20.93 133.13,34.74 "
   fill="#f6a749"
   id="polygon8-2"
   transform="matrix(-6.2435468,1.1151013,1.1151013,6.2435468,1542.3776,-64.015424)" /><path
   d="m 607.82736,321.0458 a 196.61266,196.61266 0 0 1 116.82427,7.67628 c -13.05755,15.99064 -41.76199,30.58803 -79.98805,38.76822 -41.76262,8.94064 -84.65156,7.9674 -114.57639,-0.86195 20.48511,-18.41245 56.76859,-40.35521 77.74017,-45.58255 z"
   fill="#d17457"
   id="path42-0"
   style="stroke-width:6.34233" /><path
   d="m 608.80189,244.97669 -15.72481,81.86045 c 0,0 58.15747,27.30286 104.17858,0.72172 l -6.61813,-77.09683 z"
   fill="#d17457"
   id="path54-2"
   style="stroke-width:6.34233" /><path
   d="m 714.0233,218.71054 c 5.33214,20.11532 16.31055,50.56138 16.31055,50.56138 a 87.20723,87.20723 0 0 1 6.57933,45.85667 26.891538,26.891538 0 0 1 -15.06653,19.8929 25.369375,25.369375 0 0 1 -11.6929,14.97377 c 0,0 -1.5204,12.77038 -10.82321,16.23585 a 37.610099,37.610099 0 0 1 -14.52924,16.76888 19.470996,19.470996 0 0 1 -21.24389,-3.87267 19.027033,19.027033 0 0 1 -18.17591,-14.4712 c 0,0 -14.98703,-7.43834 -15.58502,-21.24777 a 24.988835,24.988835 0 0 1 -11.66701,-15.18272 19.34415,19.34415 0 0 1 -11.02487,-17.35908 68.62416,68.62416 0 0 1 -4.12588,-23.10112 c -0.50883,-15.11389 19.65414,-70.3211 19.65414,-70.3211 z"
   fill="#562c27"
   id="path56-3"
   style="stroke-width:6.34233" /><path
   d="m 709.35685,241.64244 c 0,0 4.93986,25.85496 1.67333,32.81664 -2.70689,5.76646 -22.41895,-1.7944 -28.71604,-1.70055 -6.29712,0.0938 -35.5903,12.47702 -38.69433,9.16578 -3.10404,-3.31126 -0.38013,-38.20178 -0.38013,-38.20178 a 230.60762,230.60762 0 0 0 66.11717,-2.08009 z"
   fill="#ecb883"
   id="path58-7"
   style="stroke-width:6.34233" /><polygon
   points="162.13,28.54 153.83,17.77 149.22,20.08 154.19,33.39 "
   fill="#f6a749"
   id="polygon60-5"
   transform="matrix(-6.2435468,1.1151013,1.1151013,6.2435468,1542.3776,-64.015424)" /><path
   d="m 722.45031,234.14978 c -52.30302,10.88761 -127.45828,-3.00669 -127.45828,-3.00669 0,0 16.60782,-83.04899 60.18573,-84.71146 67.95681,-2.60192 67.27255,87.71815 67.27255,87.71815 z"
   fill="#fbc456"
   id="path62-9"
   style="stroke-width:6.34233" /><path
   d="m 660.91531,231.22374 q 1.54316,3.59 3.17772,6.97041 a 504.34318,504.34318 0 0 1 -68.96496,-7.01093 c 0,0 16.47178,-83.08912 60.04969,-84.75159 2.1228,-0.37913 4.24339,-0.0492 6.44424,0.008 -15.85387,12.23785 -16.57309,48.25218 -0.70669,84.78336 z"
   fill="#f6a749"
   id="path110-2"
   style="stroke-width:6.34233" /><path
   d="m 665.41295,153.23684 -0.74924,0.1338 0.81167,-0.14495 c 49.39561,-0.83314 49.83477,74.85462 49.83477,74.85462 a 128.68616,128.68616 0 0 1 -14.57422,2.08755 c 1.13386,-39.82512 -13.71562,-73.1877 -35.32298,-76.93102 z"
   fill="#ffea80"
   id="path112-2"
   style="stroke-width:6.34233" /><path
   d="m 667.95375,268.10747 c -0.18958,-2.86536 -1.93565,-5.06616 -3.95588,-4.83422 -2.02025,0.23191 -3.50299,2.75174 -3.36467,5.69069 0.1382,2.93894 1.93564,5.06614 3.95587,4.83419 2.02028,-0.23191 3.42942,-2.80301 3.36468,-5.69066 z"
   fill="#5b4a49"
   id="path140-8"
   style="stroke-width:6.34233" /><path
   d="m 699.60192,264.58117 c -0.51294,-2.87203 -1.88438,-5.13975 -3.71727,-4.94124 -1.83298,0.19846 -3.17972,2.75841 -2.97896,5.68623 0.20079,2.92776 1.88438,5.13971 3.77976,4.93007 1.89537,-0.2096 2.92991,-2.71381 2.91647,-5.67506 z"
   fill="#5b4a49"
   id="path142-9"
   style="stroke-width:6.34233" /><path
   d="m 671.1844,252.64783 -14.39598,-2.32532 a 3.7419828,3.7419828 0 0 0 -3.93113,3.60129 l -0.61532,4.49095 a 3.7419828,3.7419828 0 0 0 2.69156,4.60904 l 14.49855,2.17815 a 3.6785596,3.6785596 0 0 0 3.7438,-3.56788 l 0.62647,-4.42849 a 3.8054065,3.8054065 0 0 0 -2.61795,-4.55774 z"
   fill="#562c27"
   id="path144-7"
   style="stroke-width:6.34233" /><path
   d="m 702.71434,248.82051 -13.11365,3.0508 c -1.68574,0.30108 -2.76495,2.55549 -2.5508,4.83662 l 0.43939,4.62471 c 0.40144,2.24767 1.78623,3.86873 3.44969,3.44276 l 13.15379,-3.18682 a 4.3762175,4.3762175 0 0 0 2.48838,-4.82546 l -0.79174,-4.4329 c -0.0892,-2.30344 -1.58776,-3.83977 -3.07506,-3.50971 z"
   fill="#562c27"
   id="path146-3"
   style="stroke-width:6.34233" /><path
   d="m 693.9299,289.81878 c -0.16725,0.86741 -0.33442,1.73483 -0.56409,2.61339 a 17.69514,17.69514 0 0 1 -18.60547,14.1467 19.027033,19.027033 0 0 1 -13.84348,-21.2367 z"
   fill="#443138"
   id="path148-6"
   style="stroke-width:6.34233" /><path
   d="m 672.21958,271.79106 c -0.89209,-4.99484 1.14141,-9.48136 4.63778,-10.10581 3.49643,-0.62446 6.95723,2.88076 7.84931,7.87561 0.89209,4.99481 -1.14141,9.48134 -4.6378,10.1058 -3.49641,0.62446 -7.01297,-3.19294 -7.84929,-7.8756 z"
   fill="#ecb883"
   id="path150-1"
   style="stroke-width:6.34233" /><path
   d="m 685.12799,265.42669 a 20.422346,20.422346 0 0 0 -1.46272,1.5498 c 1.23322,4.74064 1.79313,12.56515 -6.50861,11.53518 a 2.0295501,2.0295501 0 0 0 0.10017,0.56193 c 13.44832,4.23409 9.29148,-10.74368 7.87099,-13.64691 z"
   fill="#d17457"
   id="path152-2"
   style="stroke-width:6.34233" /><path
   d="m 691.86284,290.51009 c 0.1227,0.68679 -0.25418,1.46279 -0.43251,2.26776 a 15.411896,15.411896 0 0 1 -16.29096,12.31592 16.236401,16.236401 0 0 1 -11.99709,-18.47396 z"
   fill="#f4e8d6"
   id="path154-9"
   style="stroke-width:6.34233" /><polygon
   points="146.43,29.98 146.63,30.68 146.33,31.96 146.28,31.21 144.43,31.63 146.41,30.76 "
   fill="#443138"
   id="polygon156-3"
   transform="matrix(-6.2435468,1.1151013,1.1151013,6.2435468,1542.3776,-64.015424)" /><circle
   class="st2"
   cx="488.78381"
   cy="332.06357"
   r="22.118656"
   id="circle21275-9"
   style="fill:#f2545b;stroke-width:1.03843" /><path
   class="st3"
   d="m 483.38393,345.14783 c -0.51922,-9.34591 -0.62305,-16.19958 -0.31152,-17.03029 0.10387,-0.20762 0.10387,-0.41541 0.31152,-0.83076 1.34996,-4.36145 0,-7.06137 1.24613,-7.99596 0.62305,-0.41538 1.34997,-0.31153 1.97301,-0.2076 3.11532,0.51922 5.39987,4.7768 4.88065,8.0998 -0.10386,0.51921 -0.20768,0.9346 -0.31153,1.14227 0.2077,0 0.41538,0 0.51922,0 1.34996,0 2.80378,-0.10387 4.15374,0 2.69994,0.20759 4.88065,2.49225 4.98448,5.19219 0.10387,1.4538 0.2077,3.01145 0,4.46525 -0.20768,2.3884 -1.55764,4.04989 -3.53068,5.29601 -1.03843,0.72694 -2.28454,1.24613 -3.53066,1.55768 -0.72692,0.10387 -1.34997,0.2076 -1.55767,0.2076 -3.01144,0 -8.09977,0.10387 -8.82669,0.10387 z"
   id="path21277-5"
   style="fill:#ffffff;stroke-width:1.03843" /><path
   class="st3"
   d="m 480.78784,328.53288 c 0.10388,5.60755 0.20771,11.11126 0.31154,16.7188 -1.14228,0 -2.3884,0.10388 -3.53068,0.10388 -0.51921,0 -0.93458,-0.51922 -0.93458,-1.14231 0,-1.03841 0,-2.18069 -0.10387,-3.21914 -0.10387,-3.6345 -0.10387,-7.26905 -0.2077,-10.90355 0,-0.93459 0.41539,-1.34996 1.34996,-1.34996 1.14229,-0.20759 2.07687,-0.20759 3.11532,-0.20759 z"
   id="path21279-5"
   style="fill:#ffffff;stroke-width:1.03843" /><circle
   class="st2"
   cx="-469.17664"
   cy="377.63043"
   r="22.118656"
   id="circle21275-2-5"
   style="fill:#f2545b;stroke-width:1.03843"
   transform="scale(-1,1)" /><circle
   class="st2"
   cx="-580.35858"
   cy="423.27853"
   r="9.2119322"
   id="circle21275-2-9-8"
   style="fill:#f2545b;stroke-width:0.432487"
   transform="scale(-1,1)" /><circle
   class="st2"
   cx="-525.72034"
   cy="345.67093"
   r="9.2119322"
   id="circle21275-2-9-1-2"
   style="fill:#f2545b;stroke-width:0.432487"
   transform="scale(-1,1)" /><circle
   class="st2"
   cx="-482.69797"
   cy="416.96521"
   r="9.2119322"
   id="circle21275-2-9-7-9"
   style="fill:#f2545b;stroke-width:0.432487"
   transform="scale(-1,1)" /><circle
   class="st2"
   cx="-531.67438"
   cy="395.03146"
   r="36.192822"
   id="circle26186-2"
   style="fill:#f2545b;stroke-width:1.69919"
   transform="scale(-1,1)" /><path
   class="st3"
   d="m 507.73921,393.45278 c 0.70285,-7.19623 5.841,-13.19448 12.34624,-13.63108 5.03765,-0.26949 9.5055,2.62781 11.69319,7.15324 2.43351,-4.59546 7.20809,-7.63282 12.25789,-7.26508 6.52151,0.41304 11.47072,6.50956 11.61292,13.94409 0.0935,4.88553 -1.92362,9.28153 -4.81012,12.16476 l -18.64536,13.86173 c -0.82878,0.61134 -1.87996,0.57901 -2.52287,-0.0776 l -17.70986,-14.13175 c -2.99615,-2.85202 -4.54908,-7.14565 -4.22203,-12.01826 z"
   id="path21223-0"
   style="fill:#ffffff;stroke-width:2.11262" /><circle
   class="st2"
   cx="791.21619"
   cy="332.06357"
   r="22.118656"
   id="circle21275"
   style="fill:#f2545b;stroke-width:1.03843" /><path
   class="st3"
   d="m 785.81631,345.14783 c -0.51921,-9.34591 -0.62307,-16.19958 -0.31152,-17.03029 0.10388,-0.20762 0.10388,-0.41541 0.31152,-0.83076 1.34997,-4.36145 0,-7.06137 1.24614,-7.99596 0.62304,-0.41538 1.34994,-0.31153 1.97301,-0.2076 3.1153,0.51922 5.39985,4.7768 4.88065,8.0998 -0.10387,0.51921 -0.20762,0.9346 -0.31152,1.14227 0.2076,0 0.41535,0 0.5192,0 1.34997,0 2.80377,-0.10387 4.15375,0 2.69991,0.20759 4.88064,2.49225 4.98446,5.19219 0.10387,1.4538 0.20759,3.01145 0,4.46525 -0.2076,2.3884 -1.55765,4.04989 -3.53066,5.29601 -1.03843,0.72694 -2.28455,1.24613 -3.53068,1.55768 -0.7269,0.10387 -1.34997,0.2076 -1.55765,0.2076 -3.01147,0 -8.0998,0.10387 -8.8267,0.10387 z"
   id="path21277"
   style="fill:#ffffff;stroke-width:1.03843" /><path
   class="st3"
   d="m 783.22023,328.53288 c 0.10387,5.60755 0.2076,11.11126 0.31152,16.7188 -1.14227,0 -2.3884,0.10388 -3.53066,0.10388 -0.51924,0 -0.93461,-0.51922 -0.93461,-1.14231 0,-1.03841 0,-2.18069 -0.10386,-3.21914 -0.10387,-3.6345 -0.10387,-7.26905 -0.20761,-10.90355 0,-0.93459 0.41539,-1.34996 1.34996,-1.34996 1.14228,-0.20759 2.07688,-0.20759 3.11533,-0.20759 z"
   id="path21279"
   style="fill:#ffffff;stroke-width:1.03843" /><circle
   class="st2"
   cx="810.82336"
   cy="377.63043"
   r="22.118656"
   id="circle21275-2"
   style="fill:#f2545b;stroke-width:1.03843" /><circle
   class="st2"
   cx="699.64142"
   cy="423.27853"
   r="9.2119322"
   id="circle21275-2-9"
   style="fill:#f2545b;stroke-width:0.432487" /><circle
   class="st2"
   cx="754.27966"
   cy="345.67093"
   r="9.2119322"
   id="circle21275-2-9-1"
   style="fill:#f2545b;stroke-width:0.432487" /><circle
   class="st2"
   cx="797.30212"
   cy="416.96521"
   r="9.2119322"
   id="circle21275-2-9-7"
   style="fill:#f2545b;stroke-width:0.432487" /><circle
   class="st2"
   cx="748.32568"
   cy="395.03146"
   r="36.192822"
   id="circle26186"
   style="fill:#f2545b;stroke-width:1.69919" /><path
   class="st3"
   d="m 772.2608,393.45278 c -0.70286,-7.19623 -5.84101,-13.19448 -12.34625,-13.63108 -5.03765,-0.26949 -9.5055,2.62781 -11.69319,7.15324 -2.43351,-4.59546 -7.20809,-7.63282 -12.25789,-7.26508 -6.52151,0.41304 -11.47072,6.50956 -11.61292,13.94409 -0.0935,4.88553 1.92362,9.28153 4.81012,12.16476 l 18.64536,13.86173 c 0.82878,0.61134 1.87998,0.57901 2.52287,-0.0776 l 17.70986,-14.13175 c 2.99615,-2.85202 4.54908,-7.14565 4.22204,-12.01826 z"
   id="path21223"
   style="fill:#ffffff;stroke-width:2.11262" /><path
   d="m 527.03226,480.21882 q 3.76739,-2.19035 7.97285,-3.32932 4.20547,-1.22659 8.9366,-1.22659 3.76739,0 6.83387,0.87614 3.1541,0.87613 5.34444,2.80364 2.27797,1.83989 3.41694,4.81875 1.22659,2.89126 1.22659,7.0091 v 27.16026 h -9.02421 l -1.05136,-4.29307 h -0.35046 q -2.01512,2.45318 -5.16921,3.855 -3.06649,1.40182 -7.18432,1.40182 -3.41695,0 -6.04536,-0.96375 -2.6284,-1.05137 -4.46829,-2.71602 -1.83989,-1.75228 -2.80364,-4.11785 -0.87615,-2.36556 -0.87615,-5.0816 0,-3.59217 1.48944,-6.13296 1.57705,-2.6284 4.29308,-4.29308 2.71602,-1.66467 6.30817,-2.45318 3.67979,-0.78851 7.88525,-0.78851 h 5.25682 v -2.54081 q 0,-2.89126 -1.83989,-4.20547 -1.75227,-1.40181 -4.99398,-1.40181 -2.54081,0 -5.25683,0.78851 -2.6284,0.78854 -5.87012,2.54081 z m 22.07867,19.8007 -3.7674,0.0877 q -5.34443,0.17517 -7.44716,1.83989 -2.10273,1.57704 -2.10273,3.85499 0,2.97888 1.75227,4.11786 1.83988,1.05136 4.11785,1.05136 2.27795,0 4.29308,-1.3142 2.10271,-1.31422 3.15409,-3.06649 z"
   style="font-weight:bold;font-size:36px;font-family:'Mukta Mahee';-inkscape-font-specification:'Mukta Mahee Bold';fill:#ffffff;stroke-width:2.43371"
   id="path36129" /><path
   d="m 570.40086,490.73247 q 0,-3.41694 1.3142,-6.22058 1.40182,-2.80364 3.76738,-4.73115 2.45321,-2.01511 5.6949,-3.06648 3.32932,-1.05135 7.27196,-1.05135 1.48942,0 3.24169,0.26284 1.75229,0.17516 3.24172,0.6133 h 17.87319 v 7.35955 h -3.76739 l -5.43204,-0.78852 q 1.13897,1.40181 1.83989,3.50454 0.78851,2.10274 0.78851,4.20547 0,6.65864 -4.81875,10.77649 -4.73114,4.03022 -13.05444,4.03022 -2.19035,0 -3.85502,-0.35045 -2.19035,0.87614 -2.19035,2.89126 0,1.40181 0.96376,2.10272 0.96375,0.70092 3.41694,0.70092 h 9.37467 q 6.9215,0 11.03932,3.06648 4.20548,2.97886 4.20548,9.63751 0,3.41694 -1.66467,6.22058 -1.57705,2.89124 -4.55591,4.90637 -2.97887,2.10273 -7.18433,3.2417 -4.20546,1.13899 -9.37467,1.13899 -9.5499,0 -15.15719,-3.41694 -5.51966,-3.32932 -5.51966,-9.63751 0,-2.89126 1.92751,-5.08161 1.9275,-2.10273 5.34445,-3.32931 -1.2266,-0.87613 -2.45321,-2.45319 -1.22659,-1.66467 -1.22659,-4.11784 0,-2.89125 1.75229,-4.99399 1.75227,-2.10273 4.46829,-3.32933 -1.3142,-0.70091 -2.6284,-1.75226 -1.2266,-1.139 -2.27797,-2.62842 -1.05136,-1.48944 -1.75227,-3.41694 -0.61329,-1.92751 -0.61329,-4.29307 z m 11.21456,29.00017 q -1.31421,0.70089 -2.19035,1.83988 -0.87613,1.13897 -0.87613,2.89124 0,2.5408 2.27795,4.20547 2.36558,1.75227 8.06046,1.75227 5.6949,0 8.32331,-1.92751 2.62842,-1.9275 2.62842,-4.38069 0,-2.45318 -1.66467,-3.41693 -1.66466,-0.96373 -5.16921,-0.96373 z m 13.22967,-29.08779 q 0,-3.41693 -1.83989,-5.16921 -1.83988,-1.75226 -4.64352,-1.75226 -2.89126,0 -4.73115,1.75226 -1.75227,1.75228 -1.75227,5.08161 0,3.50453 1.83989,5.25682 1.83989,1.75228 4.64353,1.75228 2.89126,0 4.64352,-1.75228 1.83989,-1.75229 1.83989,-5.16922 z"
   style="font-weight:bold;font-size:36px;font-family:'Mukta Mahee';-inkscape-font-specification:'Mukta Mahee Bold';fill:#ffffff;stroke-width:2.43371"
   id="path36131" /><path
   d="m 659.41632,497.12826 q 0,5.16923 -1.66465,9.28707 -1.66466,4.11784 -4.64352,7.0091 -2.89126,2.80364 -6.83388,4.3807 -3.94261,1.48942 -8.49854,1.48942 -4.55591,0 -8.49852,-1.40182 -3.85501,-1.40182 -6.74626,-4.11784 -2.80364,-2.71603 -4.46831,-6.65865 -1.57705,-4.03023 -1.57705,-9.11182 0,-5.34444 1.66467,-9.4623 1.66466,-4.20545 4.55592,-7.00909 2.97886,-2.89126 6.92148,-4.38069 3.94262,-1.48943 8.49853,-1.48943 4.55591,0 8.41092,1.40181 3.94262,1.40184 6.74626,4.11786 2.89126,2.6284 4.4683,6.65863 1.66465,4.03024 1.66465,9.28705 z m -12.00307,0.43809 q 0,-3.59217 -0.78852,-6.13297 -0.78853,-2.5408 -2.10273,-4.11785 -1.31421,-1.57705 -3.0665,-2.27796 -1.75226,-0.78851 -3.59215,-0.78851 -1.83989,0 -3.50455,0.70091 -1.66466,0.61329 -2.97886,2.19035 -1.31422,1.48942 -2.10273,4.03022 -0.78853,2.54079 -0.78853,6.39581 0,3.41693 0.78853,5.95773 0.78851,2.45319 2.10273,4.03023 1.4018,1.57706 3.06647,2.36557 1.75228,0.78853 3.59216,0.78853 1.83989,0 3.50455,-0.61329 1.66467,-0.70092 2.97888,-2.27797 1.3142,-1.57704 2.10273,-4.03023 0.78852,-2.5408 0.78852,-6.22057 z"
   style="font-weight:bold;font-size:36px;font-family:'Mukta Mahee';-inkscape-font-specification:'Mukta Mahee Bold';fill:#ffffff;stroke-width:2.43371"
   id="path36133" /><path
   d="m 667.73947,518.3308 v -41.79175 h 9.02421 l 1.31422,7.53479 q 1.48943,-3.32935 4.73113,-5.87014 3.24172,-2.54079 8.14809,-2.54079 2.01512,0 3.59215,0.43806 1.57704,0.43808 2.62842,1.05137 l -1.92751,9.19944 q -0.96375,-0.52568 -2.45318,-0.87614 -1.48943,-0.43807 -3.50456,-0.43807 -4.29307,0 -7.18431,2.89126 -2.80364,2.80364 -2.80364,9.28705 v 21.11492 z"
   style="font-weight:bold;font-size:36px;font-family:'Mukta Mahee';-inkscape-font-specification:'Mukta Mahee Bold';fill:#ffffff;stroke-width:2.43371"
   id="path36135" /><path
   d="m 701.29536,480.21882 q 3.7674,-2.19035 7.97285,-3.32932 4.20547,-1.22659 8.9366,-1.22659 3.7674,0 6.83387,0.87614 3.1541,0.87613 5.34445,2.80364 2.27796,1.83989 3.41693,4.81875 1.2266,2.89126 1.2266,7.0091 v 27.16026 h -9.02423 l -1.05135,-4.29307 h -0.35045 q -2.01513,2.45318 -5.16921,3.855 -3.0665,1.40182 -7.18433,1.40182 -3.41694,0 -6.04536,-0.96375 -2.6284,-1.05137 -4.46828,-2.71602 -1.8399,-1.75228 -2.80365,-4.11785 -0.87615,-2.36556 -0.87615,-5.0816 0,-3.59217 1.48945,-6.13296 1.57704,-2.6284 4.29306,-4.29308 2.71603,-1.66467 6.30819,-2.45318 3.67979,-0.78851 7.88525,-0.78851 h 5.25681 v -2.54081 q 0,-2.89126 -1.83988,-4.20547 -1.75227,-1.40181 -4.99399,-1.40181 -2.5408,0 -5.25682,0.78851 -2.62841,0.78854 -5.87012,2.54081 z m 22.07867,19.8007 -3.76739,0.0877 q -5.34444,0.17517 -7.44717,1.83989 -2.10272,1.57704 -2.10272,3.85499 0,2.97888 1.75226,4.11786 1.83989,1.05136 4.11786,1.05136 2.27794,0 4.29306,-1.3142 2.10273,-1.31422 3.1541,-3.06649 z"
   style="font-weight:bold;font-size:36px;font-family:'Mukta Mahee';-inkscape-font-specification:'Mukta Mahee Bold';fill:#ffffff;stroke-width:2.43371"
   id="path36137" /><path
   d="m 771.03565,486.52702 q -5.16921,-2.45318 -9.98797,-2.45318 -2.80364,0 -4.3807,0.96373 -1.48942,0.96375 -1.48942,2.62842 0,1.66467 1.3142,2.71602 1.40182,1.05137 5.51967,2.27797 l 2.62842,0.78851 q 5.43204,1.57705 8.23568,4.55593 2.80364,2.97886 2.80364,7.71 0,6.22059 -4.81876,9.90036 -4.73113,3.67977 -12.87921,3.67977 -8.32331,0 -14.28104,-2.97886 l 2.62842,-8.58616 q 2.54078,1.31422 5.34442,2.19035 2.80364,0.78853 5.6949,0.78853 3.50456,0 5.0816,-1.05137 1.66465,-1.13898 1.66465,-2.89126 0,-1.83989 -1.57704,-2.80364 -1.57705,-1.05136 -5.95773,-2.27795 l -2.71604,-0.78853 q -5.25681,-1.75227 -7.71,-4.64353 -2.45318,-2.89124 -2.45318,-7.71001 0,-5.6949 4.29306,-9.28705 4.29308,-3.59216 12.00309,-3.59216 7.6224,0 13.49252,2.71603 z"
   style="font-weight:bold;font-size:36px;font-family:'Mukta Mahee';-inkscape-font-specification:'Mukta Mahee Bold';fill:#ffffff;stroke-width:2.43371"
   id="path36139" /></svg>
